{
copyright = "Copyright (c) 2015, Cadson Demak (info@cadsondemak.com)";
customParameters = (
{
name = vendorID;
value = CDK;
},
{
name = description;
value = "Copyright (c) 2015, Cadson Demak (info@cadsondemak.com)";
},
{
name = license;

glyphs = (
{
glyphname = A;
lastChange = "2015-10-24 07:37:55 +0000";
layers = (
{
layerId = "476303D8-9A2F-423D-8E21-2B4181C6C8D8";
name = SemiBold;
paths = (
{
closed = 1;
nodes = (
"199 0 LINE",
"256 146 LINE",
"471 146 LINE",
"529 0 LINE",
"697 0 LINE",
"451 644 LINE",
"277 644 LINE",
"31 0 LINE"
);
},
{
closed = 1;
nodes = (
"363 489 LINE",
"449 265 LINE",
"278 265 LINE"
);
}
);
width = 728;
}
);
leftKerningGroup = A;
note = A;
rightKerningGroup = A;
unicode = 0041;
},
{
glyphname = Aacute;
lastChange = "2015-10-24 07:37:55 +0000";
layers = (
{
layerId = "476303D8-9A2F-423D-8E21-2B4181C6C8D8";
name = SemiBold;
paths = (
{
closed = 1;
nodes = (
"199 0 LINE",
"256 146 LINE",
"471 146 LINE",
"529 0 LINE",
"697 0 LINE",
"451 644 LINE",
"277 644 LINE",
"31 0 LINE"
);
},
{
closed = 1;
nodes = (
"363 489 LINE",
"449 265 LINE",
"278 265 LINE"
);
},
{
closed = 1;
nodes = (
"421 688 LINE",
"513 884 LINE",
"381 884 LINE",
"297 688 LINE"
);
}
);
width = 728;
}
);
leftKerningGroup = A;
note = Aacute;
rightKerningGroup = A;
unicode = 00C1;
},
{
glyphname = Abreve;
lastChange = "2015-10-24 07:37:55 +0000";
layers = (
{
layerId = "476303D8-9A2F-423D-8E21-2B4181C6C8D8";
name = SemiBold;
paths = (
{
closed = 1;
nodes = (
"199 0 LINE",
"256 146 LINE",
"471 146 LINE",
"529 0 LINE",
"697 0 LINE",
"451 644 LINE",
"277 644 LINE",
"31 0 LINE"
);
},
{
closed = 1;
nodes = (
"363 489 LINE",
"449 265 LINE",
"278 265 LINE"
);
},
{
closed = 1;
nodes = (
"467 688 OFFCURVE",
"538 750 OFFCURVE",
"538 860 CURVE",
"432 860 LINE",
"432 814 OFFCURVE",
"412 778 OFFCURVE",
"363 778 CURVE SMOOTH",
"315 778 OFFCURVE",
"296 814 OFFCURVE",
"296 860 CURVE",
"190 860 LINE",
"190 750 OFFCURVE",
"260 688 OFFCURVE",
"363 688 CURVE SMOOTH"
);
}
);
width = 728;
}
);
leftKerningGroup = A;
note = Abreve;
rightKerningGroup = A;
unicode = 0102;
},
{
glyphname = Abreveacute;
lastChange = "2015-10-24 07:37:55 +0000";
layers = (
{
layerId = "476303D8-9A2F-423D-8E21-2B4181C6C8D8";
name = SemiBold;
paths = (
{
closed = 1;
nodes = (
"199 0 LINE",
"256 146 LINE",
"471 146 LINE",
"529 0 LINE",
"697 0 LINE",
"451 644 LINE",
"277 644 LINE",
"31 0 LINE"
);
},
{
closed = 1;
nodes = (
"363 489 LINE",
"449 265 LINE",
"278 265 LINE"
);
},
{
closed = 1;
nodes = (
"464 688 OFFCURVE",
"536 736 OFFCURVE",
"536 852 CURVE",
"444 852 LINE",
"444 800 OFFCURVE",
"415 769 OFFCURVE",
"364 769 CURVE SMOOTH",
"312 769 OFFCURVE",
"283 800 OFFCURVE",
"283 852 CURVE",
"190 852 LINE",
"190 736 OFFCURVE",
"263 688 OFFCURVE",
"364 688 CURVE SMOOTH"
);
},
{
closed = 1;
nodes = (
"410 837 LINE",
"488 986 LINE",
"375 986 LINE",
"309 837 LINE"
);
}
);
width = 728;
}
);
leftKerningGroup = A;
note = Abreveacute;
rightKerningGroup = A;
unicode = 1EAE;
},
{
glyphname = Abrevedotbelow;
lastChange = "2015-10-24 07:37:55 +0000";
layers = (
{
layerId = "476303D8-9A2F-423D-8E21-2B4181C6C8D8";
name = SemiBold;
paths = (
{
closed = 1;
nodes = (
"199 0 LINE",
"256 146 LINE",
"471 146 LINE",
"529 0 LINE",
"697 0 LINE",
"451 644 LINE",
"277 644 LINE",
"31 0 LINE"
);
},
{
closed = 1;
nodes = (
"422 -179 LINE",
"422 -70 LINE",
"304 -70 LINE",
"304 -179 LINE"
);
},
{
closed = 1;
nodes = (
"363 489 LINE",
"449 265 LINE",
"278 265 LINE"
);
},
{
closed = 1;
nodes = (
"466 688 OFFCURVE",
"537 750 OFFCURVE",
"537 860 CURVE",
"431 860 LINE",
"431 814 OFFCURVE",
"411 778 OFFCURVE",
"362 778 CURVE SMOOTH",
"314 778 OFFCURVE",
"295 814 OFFCURVE",
"295 860 CURVE",
"189 860 LINE",
"189 750 OFFCURVE",
"259 688 OFFCURVE",
"362 688 CURVE SMOOTH"
);
}
);
width = 728;
}
);
leftKerningGroup = A;
note = Abrevedotbelow;
rightKerningGroup = A;
unicode = 1EB6;
},
{
glyphname = Abrevegrave;
lastChange = "2015-10-24 07:37:55 +0000";
layers = (
{
layerId = "476303D8-9A2F-423D-8E21-2B4181C6C8D8";
name = SemiBold;
paths = (
{
closed = 1;
nodes = (
"199 0 LINE",
"256 146 LINE",
"471 146 LINE",
"529 0 LINE",
"697 0 LINE",
"451 644 LINE",
"277 644 LINE",
"31 0 LINE"
);
},
{
closed = 1;
nodes = (
"363 489 LINE",
"449 265 LINE",
"278 265 LINE"
);
},
{
closed = 1;
nodes = (
"463 688 OFFCURVE",
"536 736 OFFCURVE",
"536 852 CURVE",
"444 852 LINE",
"444 800 OFFCURVE",
"415 769 OFFCURVE",
"363 769 CURVE SMOOTH",
"311 769 OFFCURVE",
"283 800 OFFCURVE",
"283 852 CURVE",
"190 852 LINE",
"190 736 OFFCURVE",
"263 688 OFFCURVE",
"363 688 CURVE SMOOTH"
);
},
{
closed = 1;
nodes = (
"418 837 LINE",
"352 986 LINE",
"238 986 LINE",
"316 837 LINE"
);
}
);
width = 728;
}
);
leftKerningGroup = A;
note = Abrevegrave;
rightKerningGroup = A;
unicode = 1EB0;
},
{
glyphname = Abrevehookabove;
lastChange = "2015-10-24 07:37:54 +0000";
layers = (
{
layerId = "476303D8-9A2F-423D-8E21-2B4181C6C8D8";
name = SemiBold;
paths = (
{
closed = 1;
nodes = (
"199 0 LINE",
"256 146 LINE",
"471 146 LINE",
"529 0 LINE",
"697 0 LINE",
"451 644 LINE",
"277 644 LINE",
"31 0 LINE"
);
},
{
closed = 1;
nodes = (
"363 489 LINE",
"449 265 LINE",
"278 265 LINE"
);
},
{
closed = 1;
nodes = (
"463 688 OFFCURVE",
"536 736 OFFCURVE",
"536 852 CURVE",
"444 852 LINE",
"444 800 OFFCURVE",
"415 769 OFFCURVE",
"363 769 CURVE SMOOTH",
"311 769 OFFCURVE",
"283 800 OFFCURVE",
"283 852 CURVE",
"190 852 LINE",
"190 736 OFFCURVE",
"263 688 OFFCURVE",
"363 688 CURVE SMOOTH"
);
},
{
closed = 1;
nodes = (
"414 844 LINE",
"414 875 LINE",
"468 887 OFFCURVE",
"490 910 OFFCURVE",
"490 955 CURVE SMOOTH",
"490 1003 OFFCURVE",
"450 1038 OFFCURVE",
"379 1038 CURVE SMOOTH",
"342 1038 OFFCURVE",
"307 1033 OFFCURVE",
"284 1025 CURVE",
"284 963 LINE",
"298 969 OFFCURVE",
"317 974 OFFCURVE",
"336 974 CURVE SMOOTH",
"369 974 OFFCURVE",
"385 967 OFFCURVE",
"385 944 CURVE SMOOTH",
"385 921 OFFCURVE",
"366 907 OFFCURVE",
"308 905 CURVE",
"308 844 LINE"
);
}
);
width = 728;
}
);
leftKerningGroup = A;
note = Abrevehookabove;
rightKerningGroup = A;
unicode = 1EB2;
},
{
glyphname = Abrevetilde;
lastChange = "2015-10-24 07:37:55 +0000";
layers = (
{
layerId = "476303D8-9A2F-423D-8E21-2B4181C6C8D8";
name = SemiBold;
paths = (
{
closed = 1;
nodes = (
"199 0 LINE",
"256 146 LINE",
"471 146 LINE",
"529 0 LINE",
"697 0 LINE",
"451 644 LINE",
"277 644 LINE",
"31 0 LINE"
);
},
{
closed = 1;
nodes = (
"363 489 LINE",
"449 265 LINE",
"278 265 LINE"
);
},
{
closed = 1;
nodes = (
"463 688 OFFCURVE",
"536 736 OFFCURVE",
"536 852 CURVE",
"444 852 LINE",
"444 800 OFFCURVE",
"415 769 OFFCURVE",
"363 769 CURVE SMOOTH",
"311 769 OFFCURVE",
"283 800 OFFCURVE",
"283 852 CURVE",
"190 852 LINE",
"190 736 OFFCURVE",
"263 688 OFFCURVE",
"363 688 CURVE SMOOTH"
);
},
{
closed = 1;
nodes = (
"491 870 OFFCURVE",
"523 884 OFFCURVE",
"536 902 CURVE",
"536 994 LINE",
"519 970 OFFCURVE",
"489 955 OFFCURVE",
"450 955 CURVE SMOOTH",
"392 955 OFFCURVE",
"344 996 OFFCURVE",
"281 996 CURVE SMOOTH",
"245 996 OFFCURVE",
"210 982 OFFCURVE",
"192 964 CURVE",
"192 873 LINE",
"215 897 OFFCURVE",
"245 910 OFFCURVE",
"284 910 CURVE SMOOTH",
"336 910 OFFCURVE",
"392 870 OFFCURVE",
"453 870 CURVE SMOOTH"
);
}
);
width = 728;
}
);
leftKerningGroup = A;
note = Abrevetilde;
rightKerningGroup = A;
unicode = 1EB4;
},
{
glyphname = Acaron;
lastChange = "2015-10-24 07:37:55 +0000";
layers = (
{
layerId = "476303D8-9A2F-423D-8E21-2B4181C6C8D8";
name = SemiBold;
paths = (
{
closed = 1;
nodes = (
"199 0 LINE",
"256 146 LINE",
"471 146 LINE",
"529 0 LINE",
"697 0 LINE",
"451 644 LINE",
"277 644 LINE",
"31 0 LINE"
);
},
{
closed = 1;
nodes = (
"363 489 LINE",
"449 265 LINE",
"278 265 LINE"
);
},
{
closed = 1;
nodes = (
"413 688 LINE",
"558 875 LINE",
"438 875 LINE",
"363 771 LINE",
"291 875 LINE",
"168 875 LINE",
"313 688 LINE"
);
}
);
width = 728;
}
);
leftKerningGroup = A;
note = Acaron;
rightKerningGroup = A;
unicode = 01CD;
},
{
glyphname = Acircumflex;
lastChange = "2015-10-24 07:37:54 +0000";
layers = (
{
layerId = "476303D8-9A2F-423D-8E21-2B4181C6C8D8";
name = SemiBold;
paths = (
{
closed = 1;
nodes = (
"199 0 LINE",
"256 146 LINE",
"471 146 LINE",
"529 0 LINE",
"697 0 LINE",
"451 644 LINE",
"277 644 LINE",
"31 0 LINE"
);
},
{
closed = 1;
nodes = (
"363 489 LINE",
"449 265 LINE",
"278 265 LINE"
);
},
{
closed = 1;
nodes = (
"291 687 LINE",
"363 791 LINE",
"438 687 LINE",
"558 687 LINE",
"413 874 LINE",
"313 874 LINE",
"168 687 LINE"
);
}
);
width = 728;
}
);
leftKerningGroup = A;
note = Acircumflex;
rightKerningGroup = A;
unicode = 00C2;
},
{
glyphname = Acircumflexacute;
lastChange = "2015-10-24 07:37:55 +0000";
layers = (
{
layerId = "476303D8-9A2F-423D-8E21-2B4181C6C8D8";
name = SemiBold;
paths = (
{
closed = 1;
nodes = (
"199 0 LINE",
"256 146 LINE",
"471 146 LINE",
"529 0 LINE",
"697 0 LINE",
"451 644 LINE",
"277 644 LINE",
"31 0 LINE"
);
},
{
closed = 1;
nodes = (
"363 489 LINE",
"449 265 LINE",
"278 265 LINE"
);
},
{
closed = 1;
nodes = (
"296 688 LINE",
"361 768 LINE",
"426 688 LINE",
"555 688 LINE",
"421 832 LINE",
"300 832 LINE",
"166 688 LINE"
);
},
{
closed = 1;
nodes = (
"586 809 LINE",
"661 958 LINE",
"541 958 LINE",
"472 809 LINE"
);
}
);
width = 728;
}
);
leftKerningGroup = A;
note = Acircumflexacute;
rightKerningGroup = A;
unicode = 1EA4;
},
{
glyphname = Acircumflexdotbelow;
lastChange = "2015-10-24 07:37:55 +0000";
layers = (
{
layerId = "476303D8-9A2F-423D-8E21-2B4181C6C8D8";
name = SemiBold;
paths = (
{
closed = 1;
nodes = (
"199 0 LINE",
"256 146 LINE",
"471 146 LINE",
"529 0 LINE",
"697 0 LINE",
"451 644 LINE",
"277 644 LINE",
"31 0 LINE"
);
},
{
closed = 1;
nodes = (
"422 -179 LINE",
"422 -70 LINE",
"304 -70 LINE",
"304 -179 LINE"
);
},
{
closed = 1;
nodes = (
"363 489 LINE",
"449 265 LINE",
"278 265 LINE"
);
},
{
closed = 1;
nodes = (
"291 688 LINE",
"363 792 LINE",
"438 688 LINE",
"558 688 LINE",
"413 875 LINE",
"313 875 LINE",
"168 688 LINE"
);
}
);
width = 728;
}
);
leftKerningGroup = A;
note = Acircumflexdotbelow;
rightKerningGroup = A;
unicode = 1EAC;
},
{
glyphname = Acircumflexgrave;
lastChange = "2015-10-24 07:37:55 +0000";
layers = (
{
layerId = "476303D8-9A2F-423D-8E21-2B4181C6C8D8";
name = SemiBold;
paths = (
{
closed = 1;
nodes = (
"199 0 LINE",
"256 146 LINE",
"471 146 LINE",
"529 0 LINE",
"697 0 LINE",
"451 644 LINE",
"277 644 LINE",
"31 0 LINE"
);
},
{
closed = 1;
nodes = (
"363 489 LINE",
"449 265 LINE",
"278 265 LINE"
);
},
{
closed = 1;
nodes = (
"253 809 LINE",
"184 958 LINE",
"64 958 LINE",
"139 809 LINE"
);
},
{
closed = 1;
nodes = (
"299 688 LINE",
"364 768 LINE",
"429 688 LINE",
"559 688 LINE",
"425 832 LINE",
"304 832 LINE",
"170 688 LINE"
);
}
);
width = 728;
}
);
leftKerningGroup = A;
note = Acircumflexgrave;
rightKerningGroup = A;
unicode = 1EA6;
},
{
glyphname = Acircumflexhookabove;
lastChange = "2015-10-24 07:37:55 +0000";
layers = (
{
layerId = "476303D8-9A2F-423D-8E21-2B4181C6C8D8";
name = SemiBold;
paths = (
{
closed = 1;
nodes = (
"199 0 LINE",
"256 146 LINE",
"471 146 LINE",
"529 0 LINE",
"697 0 LINE",
"451 644 LINE",
"277 644 LINE",
"31 0 LINE"
);
},
{
closed = 1;
nodes = (
"363 489 LINE",
"449 265 LINE",
"278 265 LINE"
);
},
{
closed = 1;
nodes = (
"298 688 LINE",
"363 768 LINE",
"428 688 LINE",
"557 688 LINE",
"423 832 LINE",
"302 832 LINE",
"168 688 LINE"
);
},
{
closed = 1;
nodes = (
"593 787 LINE",
"593 820 LINE",
"644 828 OFFCURVE",
"667 857 OFFCURVE",
"667 902 CURVE SMOOTH",
"667 952 OFFCURVE",
"628 985 OFFCURVE",
"552 985 CURVE SMOOTH",
"514 985 OFFCURVE",
"484 980 OFFCURVE",
"461 973 CURVE",
"461 906 LINE",
"476 912 OFFCURVE",
"494 916 OFFCURVE",
"514 916 CURVE SMOOTH",
"542 916 OFFCURVE",
"557 909 OFFCURVE",
"557 891 CURVE SMOOTH",
"557 872 OFFCURVE",
"544 860 OFFCURVE",
"484 858 CURVE",
"484 787 LINE"
);
}
);
width = 728;
}
);
leftKerningGroup = A;
note = Acircumflexhookabove;
rightKerningGroup = A;
unicode = 1EA8;
},
{
glyphname = Acircumflextilde;
lastChange = "2015-10-24 07:37:55 +0000";
layers = (
{
layerId = "476303D8-9A2F-423D-8E21-2B4181C6C8D8";
name = SemiBold;
paths = (
{
closed = 1;
nodes = (
"199 0 LINE",
"256 146 LINE",
"471 146 LINE",
"529 0 LINE",
"697 0 LINE",
"451 644 LINE",
"277 644 LINE",
"31 0 LINE"
);
},
{
closed = 1;
nodes = (
"363 489 LINE",
"449 265 LINE",
"278 265 LINE"
);
},
{
closed = 1;
nodes = (
"298 688 LINE",
"363 768 LINE",
"428 688 LINE",
"557 688 LINE",
"423 832 LINE",
"302 832 LINE",
"168 688 LINE"
);
},
{
closed = 1;
nodes = (
"498 847 OFFCURVE",
"530 861 OFFCURVE",
"543 879 CURVE",
"543 971 LINE",
"526 947 OFFCURVE",
"496 932 OFFCURVE",
"457 932 CURVE SMOOTH",
"399 932 OFFCURVE",
"351 973 OFFCURVE",
"288 973 CURVE SMOOTH",
"252 973 OFFCURVE",
"217 959 OFFCURVE",
"199 941 CURVE",
"199 850 LINE",
"222 874 OFFCURVE",
"252 887 OFFCURVE",
"291 887 CURVE SMOOTH",
"343 887 OFFCURVE",
"399 847 OFFCURVE",
"460 847 CURVE SMOOTH"
);
}
);
width = 728;
}
);
leftKerningGroup = A;
note = Acircumflextilde;
rightKerningGroup = A;
unicode = 1EAA;
},
{
glyphname = Adieresis;
lastChange = "2015-10-24 07:37:55 +0000";
layers = (
{
layerId = "476303D8-9A2F-423D-8E21-2B4181C6C8D8";
name = SemiBold;
paths = (
{
closed = 1;
nodes = (
"199 0 LINE",
"256 146 LINE",
"471 146 LINE",
"529 0 LINE",
"697 0 LINE",
"451 644 LINE",
"277 644 LINE",
"31 0 LINE"
);
},
{
closed = 1;
nodes = (
"363 489 LINE",
"449 265 LINE",
"278 265 LINE"
);
},
{
closed = 1;
nodes = (
"319 713 LINE",
"319 822 LINE",
"201 822 LINE",
"201 713 LINE"
);
},
{
closed = 1;
nodes = (
"525 713 LINE",
"525 822 LINE",
"407 822 LINE",
"407 713 LINE"
);
}
);
width = 728;
}
);
leftKerningGroup = A;
note = Adieresis;
rightKerningGroup = A;
unicode = 00C4;
},
{
glyphname = Adotbelow;
lastChange = "2015-10-24 07:37:54 +0000";
layers = (
{
layerId = "476303D8-9A2F-423D-8E21-2B4181C6C8D8";
name = SemiBold;
paths = (
{
closed = 1;
nodes = (
"199 0 LINE",
"256 146 LINE",
"471 146 LINE",
"529 0 LINE",
"697 0 LINE",
"451 644 LINE",
"277 644 LINE",
"31 0 LINE"
);
},
{
closed = 1;
nodes = (
"422 -179 LINE",
"422 -70 LINE",
"304 -70 LINE",
"304 -179 LINE"
);
},
{
closed = 1;
nodes = (
"363 489 LINE",
"449 265 LINE",
"278 265 LINE"
);
}
);
width = 728;
}
);
leftKerningGroup = A;
note = Adotbelow;
rightKerningGroup = A;
unicode = 1EA0;
},
{
glyphname = Agrave;
lastChange = "2015-10-24 07:37:55 +0000";
layers = (
{
layerId = "476303D8-9A2F-423D-8E21-2B4181C6C8D8";
name = SemiBold;
paths = (
{
closed = 1;
nodes = (
"199 0 LINE",
"256 146 LINE",
"471 146 LINE",
"529 0 LINE",
"697 0 LINE",
"451 644 LINE",
"277 644 LINE",
"31 0 LINE"
);
},
{
closed = 1;
nodes = (
"363 489 LINE",
"449 265 LINE",
"278 265 LINE"
);
},
{
closed = 1;
nodes = (
"423 688 LINE",
"339 884 LINE",
"207 884 LINE",
"300 688 LINE"
);
}
);
width = 728;
}
);
leftKerningGroup = A;
note = Agrave;
rightKerningGroup = A;
unicode = 00C0;
},
{
glyphname = Ahookabove;
lastChange = "2015-10-24 07:37:55 +0000";
layers = (
{
layerId = "476303D8-9A2F-423D-8E21-2B4181C6C8D8";
name = SemiBold;
paths = (
{
closed = 1;
nodes = (
"199 0 LINE",
"256 146 LINE",
"471 146 LINE",
"529 0 LINE",
"697 0 LINE",
"451 644 LINE",
"277 644 LINE",
"31 0 LINE"
);
},
{
closed = 1;
nodes = (
"363 489 LINE",
"449 265 LINE",
"278 265 LINE"
);
},
{
closed = 1;
nodes = (
"425 688 LINE",
"425 732 LINE",
"484 746 OFFCURVE",
"510 772 OFFCURVE",
"510 829 CURVE SMOOTH",
"510 888 OFFCURVE",
"462 928 OFFCURVE",
"374 928 CURVE SMOOTH",
"331 928 OFFCURVE",
"293 923 OFFCURVE",
"267 914 CURVE",
"267 842 LINE",
"283 847 OFFCURVE",
"308 851 OFFCURVE",
"327 851 CURVE SMOOTH",
"368 851 OFFCURVE",
"392 840 OFFCURVE",
"392 815 CURVE SMOOTH",
"392 788 OFFCURVE",
"374 773 OFFCURVE",
"303 769 CURVE",
"303 688 LINE"
);
}
);
width = 728;
}
);
leftKerningGroup = A;
note = Ahookabove;
rightKerningGroup = A;
unicode = 1EA2;
},
{
glyphname = Amacron;
lastChange = "2015-10-24 07:37:55 +0000";
layers = (
{
layerId = "476303D8-9A2F-423D-8E21-2B4181C6C8D8";
name = SemiBold;
paths = (
{
closed = 1;
nodes = (
"199 0 LINE",
"256 146 LINE",
"471 146 LINE",
"529 0 LINE",
"697 0 LINE",
"451 644 LINE",
"277 644 LINE",
"31 0 LINE"
);
},
{
closed = 1;
nodes = (
"363 489 LINE",
"449 265 LINE",
"278 265 LINE"
);
},
{
closed = 1;
nodes = (
"522 704 LINE",
"522 801 LINE",
"204 801 LINE",
"204 704 LINE"
);
}
);
width = 728;
}
);
leftKerningGroup = A;
note = Amacron;
rightKerningGroup = A;
unicode = 0100;
},
{
glyphname = Aogonek;
lastChange = "2015-11-25 10:05:06 +0000";
layers = (
{
layerId = "476303D8-9A2F-423D-8E21-2B4181C6C8D8";
name = SemiBold;
paths = (
{
closed = 1;
nodes = (
"199 0 LINE",
"256 146 LINE",
"471 146 LINE",
"529 0 LINE",
"697 0 LINE",
"451 644 LINE",
"277 644 LINE",
"31 0 LINE"
);
},
{
closed = 1;
nodes = (
"626 -220 OFFCURVE",
"664 -213 OFFCURVE",
"683 -205 CURVE",
"683 -124 LINE",
"671 -131 OFFCURVE",
"650 -135 OFFCURVE",
"633 -135 CURVE SMOOTH",
"606 -135 OFFCURVE",
"589 -124 OFFCURVE",
"589 -97 CURVE SMOOTH",
"589 -61 OFFCURVE",
"615 -28 OFFCURVE",
"652 0 CURVE",
"539 0 LINE",
"494 -30 OFFCURVE",
"466 -76 OFFCURVE",
"466 -126 CURVE SMOOTH",
"466 -191 OFFCURVE",
"521 -220 OFFCURVE",
"589 -220 CURVE SMOOTH"
);
},
{
closed = 1;
nodes = (
"363 489 LINE",
"449 265 LINE",
"278 265 LINE"
);
}
);
width = 728;
}
);
leftKerningGroup = A;
note = Aogonek;
rightKerningGroup = A;
unicode = 0104;
},
{
glyphname = Aring;
lastChange = "2015-10-24 07:37:55 +0000";
layers = (
{
layerId = "476303D8-9A2F-423D-8E21-2B4181C6C8D8";
name = SemiBold;
paths = (
{
closed = 1;
nodes = (
"199 0 LINE",
"256 146 LINE",
"471 146 LINE",
"529 0 LINE",
"697 0 LINE",
"451 644 LINE",
"277 644 LINE",
"31 0 LINE"
);
},
{
closed = 1;
nodes = (
"363 489 LINE",
"449 265 LINE",
"278 265 LINE"
);
},
{
closed = 1;
nodes = (
"447 592 OFFCURVE",
"495 647 OFFCURVE",
"495 717 CURVE SMOOTH",
"495 788 OFFCURVE",
"447 843 OFFCURVE",
"363 843 CURVE SMOOTH",
"281 843 OFFCURVE",
"232 788 OFFCURVE",
"232 717 CURVE SMOOTH",
"232 647 OFFCURVE",
"281 592 OFFCURVE",
"363 592 CURVE SMOOTH"
);
},
{
closed = 1;
nodes = (
"328 662 OFFCURVE",
"306 686 OFFCURVE",
"306 717 CURVE SMOOTH",
"306 748 OFFCURVE",
"328 773 OFFCURVE",
"363 773 CURVE SMOOTH",
"400 773 OFFCURVE",
"421 748 OFFCURVE",
"421 717 CURVE SMOOTH",
"421 686 OFFCURVE",
"400 662 OFFCURVE",
"363 662 CURVE SMOOTH"
);
}
);
width = 728;
}
);
leftKerningGroup = A;
note = Aring;
rightKerningGroup = A;
unicode = 00C5;
},
{
glyphname = Aringacute;
lastChange = "2015-10-24 07:37:55 +0000";
layers = (
{
layerId = "476303D8-9A2F-423D-8E21-2B4181C6C8D8";
name = SemiBold;
paths = (
{
closed = 1;
nodes = (
"199 0 LINE",
"256 146 LINE",
"471 146 LINE",
"529 0 LINE",
"697 0 LINE",
"451 644 LINE",
"277 644 LINE",
"31 0 LINE"
);
},
{
closed = 1;
nodes = (
"363 489 LINE",
"449 265 LINE",
"278 265 LINE"
);
},
{
closed = 1;
nodes = (
"447 592 OFFCURVE",
"495 647 OFFCURVE",
"495 717 CURVE SMOOTH",
"495 788 OFFCURVE",
"447 843 OFFCURVE",
"363 843 CURVE SMOOTH",
"281 843 OFFCURVE",
"232 788 OFFCURVE",
"232 717 CURVE SMOOTH",
"232 647 OFFCURVE",
"281 592 OFFCURVE",
"363 592 CURVE SMOOTH"
);
},
{
closed = 1;
nodes = (
"328 662 OFFCURVE",
"306 686 OFFCURVE",
"306 717 CURVE SMOOTH",
"306 748 OFFCURVE",
"328 773 OFFCURVE",
"363 773 CURVE SMOOTH",
"400 773 OFFCURVE",
"421 748 OFFCURVE",
"421 717 CURVE SMOOTH",
"421 686 OFFCURVE",
"400 662 OFFCURVE",
"363 662 CURVE SMOOTH"
);
},
{
closed = 1;
nodes = (
"415 867 LINE",
"507 1053 LINE",
"375 1053 LINE",
"291 867 LINE"
);
}
);
width = 728;
}
);
leftKerningGroup = A;
note = Aringacute;
rightKerningGroup = A;
unicode = 01FA;
},
{
glyphname = Atilde;
lastChange = "2015-10-24 07:37:55 +0000";
layers = (
{
layerId = "476303D8-9A2F-423D-8E21-2B4181C6C8D8";
name = SemiBold;
paths = (
{
closed = 1;
nodes = (
"199 0 LINE",
"256 146 LINE",
"471 146 LINE",
"529 0 LINE",
"697 0 LINE",
"451 644 LINE",
"277 644 LINE",
"31 0 LINE"
);
},
{
closed = 1;
nodes = (
"363 489 LINE",
"449 265 LINE",
"278 265 LINE"
);
},
{
closed = 1;
nodes = (
"492 690 OFFCURVE",
"525 704 OFFCURVE",
"538 722 CURVE",
"538 830 LINE",
"521 806 OFFCURVE",
"491 791 OFFCURVE",
"451 791 CURVE SMOOTH",
"392 791 OFFCURVE",
"344 832 OFFCURVE",
"280 832 CURVE SMOOTH",
"243 832 OFFCURVE",
"208 818 OFFCURVE",
"189 800 CURVE",
"189 693 LINE",
"213 717 OFFCURVE",
"244 731 OFFCURVE",
"283 731 CURVE SMOOTH",
"335 731 OFFCURVE",
"392 690 OFFCURVE",
"454 690 CURVE SMOOTH"
);
}
);
width = 728;
}
);
leftKerningGroup = A;
note = Atilde;
rightKerningGroup = A;
unicode = 00C3;
},
{
glyphname = AE;
lastChange = "2015-10-24 07:37:55 +0000";
layers = (
{
layerId = "476303D8-9A2F-423D-8E21-2B4181C6C8D8";
name = SemiBold;
paths = (
{
closed = 1;
nodes = (
"203 0 LINE",
"260 147 LINE",
"402 147 LINE",
"402 0 LINE",
"823 0 LINE",
"823 124 LINE",
"562 124 LINE",
"562 259 LINE",
"786 259 LINE",
"786 385 LINE",
"562 385 LINE",
"562 520 LINE",
"823 520 LINE",
"823 644 LINE",
"277 644 LINE",
"31 0 LINE"
);
},
{
closed = 1;
nodes = (
"390 520 LINE",
"402 520 LINE",
"402 272 LINE",
"297 272 LINE"
);
}
);
width = 854;
}
);
leftKerningGroup = A;
note = AE;
rightKerningGroup = E;
unicode = 00C6;
},
{
glyphname = AEacute;
lastChange = "2015-10-24 07:37:55 +0000";
layers = (
{
layerId = "476303D8-9A2F-423D-8E21-2B4181C6C8D8";
name = SemiBold;
paths = (
{
closed = 1;
nodes = (
"203 0 LINE",
"260 147 LINE",
"402 147 LINE",
"402 0 LINE",
"823 0 LINE",
"823 124 LINE",
"562 124 LINE",
"562 259 LINE",
"786 259 LINE",
"786 385 LINE",
"562 385 LINE",
"562 520 LINE",
"823 520 LINE",
"823 644 LINE",
"277 644 LINE",
"31 0 LINE"
);
},
{
closed = 1;
nodes = (
"390 520 LINE",
"402 520 LINE",
"402 272 LINE",
"297 272 LINE"
);
},
{
closed = 1;
nodes = (
"542 688 LINE",
"634 884 LINE",
"502 884 LINE",
"418 688 LINE"
);
}
);
width = 854;
}
);
leftKerningGroup = A;
note = AEacute;
rightKerningGroup = E;
unicode = 01FC;
},
{
glyphname = B;
lastChange = "2015-10-24 07:37:55 +0000";
layers = (
{
layerId = "476303D8-9A2F-423D-8E21-2B4181C6C8D8";
name = SemiBold;
paths = (
{
closed = 1;
nodes = (
"401 0 LINE SMOOTH",
"535 0 OFFCURVE",
"610 66 OFFCURVE",
"610 189 CURVE SMOOTH",
"610 271 OFFCURVE",
"574 308 OFFCURVE",
"516 329 CURVE",
"559 354 OFFCURVE",
"587 400 OFFCURVE",
"587 468 CURVE SMOOTH",
"587 580 OFFCURVE",
"520 644 OFFCURVE",
"391 644 CURVE SMOOTH",
"51 644 LINE",
"51 0 LINE"
);
},
{
closed = 1;
nodes = (
"212 271 LINE",
"353 271 LINE SMOOTH",
"421 271 OFFCURVE",
"446 246 OFFCURVE",
"446 197 CURVE SMOOTH",
"446 136 OFFCURVE",
"418 115 OFFCURVE",
"359 115 CURVE SMOOTH",
"212 115 LINE"
);
},
{
closed = 1;
nodes = (
"212 528 LINE",
"335 528 LINE SMOOTH",
"401 528 OFFCURVE",
"423 503 OFFCURVE",
"423 454 CURVE SMOOTH",
"423 408 OFFCURVE",
"399 382 OFFCURVE",
"343 382 CURVE SMOOTH",
"212 382 LINE"
);
}
);
width = 641;
}
);
note = B;
unicode = 0042;
},
{
glyphname = C;
lastChange = "2015-10-24 07:37:55 +0000";
layers = (
{
layerId = "476303D8-9A2F-423D-8E21-2B4181C6C8D8";
name = SemiBold;
paths = (
{
closed = 1;
nodes = (
"456 -10 OFFCURVE",
"516 1 OFFCURVE",
"572 20 CURVE",
"572 162 LINE",
"514 138 OFFCURVE",
"453 127 OFFCURVE",
"390 127 CURVE SMOOTH",
"261 127 OFFCURVE",
"195 186 OFFCURVE",
"195 317 CURVE SMOOTH",
"195 454 OFFCURVE",
"254 516 OFFCURVE",
"388 516 CURVE SMOOTH",
"454 516 OFFCURVE",
"513 504 OFFCURVE",
"571 480 CURVE",
"571 621 LINE",
"514 641 OFFCURVE",
"455 654 OFFCURVE",
"376 654 CURVE SMOOTH",
"146 654 OFFCURVE",
"31 532 OFFCURVE",
"31 317 CURVE SMOOTH",
"31 112 OFFCURVE",
"152 -10 OFFCURVE",
"377 -10 CURVE SMOOTH"
);
}
);
width = 603;
}
);
leftKerningGroup = C;
note = C;
rightKerningGroup = C;
unicode = 0043;
},
{
glyphname = Cacute;
lastChange = "2015-10-24 07:37:55 +0000";
layers = (
{
layerId = "476303D8-9A2F-423D-8E21-2B4181C6C8D8";
name = SemiBold;
paths = (
{
closed = 1;
nodes = (
"456 -10 OFFCURVE",
"516 1 OFFCURVE",
"572 20 CURVE",
"572 162 LINE",
"514 138 OFFCURVE",
"453 127 OFFCURVE",
"390 127 CURVE SMOOTH",
"261 127 OFFCURVE",
"195 186 OFFCURVE",
"195 317 CURVE SMOOTH",
"195 454 OFFCURVE",
"254 516 OFFCURVE",
"388 516 CURVE SMOOTH",
"454 516 OFFCURVE",
"513 504 OFFCURVE",
"571 480 CURVE",
"571 621 LINE",
"514 641 OFFCURVE",
"455 654 OFFCURVE",
"376 654 CURVE SMOOTH",
"146 654 OFFCURVE",
"31 532 OFFCURVE",
"31 317 CURVE SMOOTH",
"31 112 OFFCURVE",
"152 -10 OFFCURVE",
"377 -10 CURVE SMOOTH"
);
},
{
closed = 1;
nodes = (
"423 688 LINE",
"515 884 LINE",
"383 884 LINE",
"299 688 LINE"
);
}
);
width = 603;
}
);
leftKerningGroup = C;
note = Cacute;
rightKerningGroup = C;
unicode = 0106;
},
{
glyphname = Ccaron;
lastChange = "2015-10-24 07:37:55 +0000";
layers = (
{
layerId = "476303D8-9A2F-423D-8E21-2B4181C6C8D8";
name = SemiBold;
paths = (
{
closed = 1;
nodes = (
"456 -10 OFFCURVE",
"516 1 OFFCURVE",
"572 20 CURVE",
"572 162 LINE",
"514 138 OFFCURVE",
"453 127 OFFCURVE",
"390 127 CURVE SMOOTH",
"261 127 OFFCURVE",
"195 186 OFFCURVE",
"195 317 CURVE SMOOTH",
"195 454 OFFCURVE",
"254 516 OFFCURVE",
"388 516 CURVE SMOOTH",
"454 516 OFFCURVE",
"513 504 OFFCURVE",
"571 480 CURVE",
"571 621 LINE",
"514 641 OFFCURVE",
"455 654 OFFCURVE",
"376 654 CURVE SMOOTH",
"146 654 OFFCURVE",
"31 532 OFFCURVE",
"31 317 CURVE SMOOTH",
"31 112 OFFCURVE",
"152 -10 OFFCURVE",
"377 -10 CURVE SMOOTH"
);
},
{
closed = 1;
nodes = (
"417 687 LINE",
"562 874 LINE",
"442 874 LINE",
"367 770 LINE",
"295 874 LINE",
"172 874 LINE",
"317 687 LINE"
);
}
);
width = 603;
}
);
leftKerningGroup = C;
note = Ccaron;
rightKerningGroup = C;
unicode = 010C;
},
{
glyphname = Ccedilla;
lastChange = "2015-10-24 07:37:55 +0000";
layers = (
{
layerId = "476303D8-9A2F-423D-8E21-2B4181C6C8D8";
name = SemiBold;
paths = (
{
closed = 1;
nodes = (
"456 -10 OFFCURVE",
"516 1 OFFCURVE",
"572 20 CURVE",
"572 162 LINE",
"514 138 OFFCURVE",
"453 127 OFFCURVE",
"390 127 CURVE SMOOTH",
"261 127 OFFCURVE",
"195 186 OFFCURVE",
"195 317 CURVE SMOOTH",
"195 454 OFFCURVE",
"254 516 OFFCURVE",
"388 516 CURVE SMOOTH",
"454 516 OFFCURVE",
"513 504 OFFCURVE",
"571 480 CURVE",
"571 621 LINE",
"514 641 OFFCURVE",
"455 654 OFFCURVE",
"376 654 CURVE SMOOTH",
"146 654 OFFCURVE",
"31 532 OFFCURVE",
"31 317 CURVE SMOOTH",
"31 112 OFFCURVE",
"152 -10 OFFCURVE",
"377 -10 CURVE SMOOTH"
);
},
{
closed = 1;
nodes = (
"464 -240 OFFCURVE",
"514 -202 OFFCURVE",
"514 -136 CURVE SMOOTH",
"514 -80 OFFCURVE",
"480 -43 OFFCURVE",
"405 -43 CURVE",
"420 0 LINE",
"324 0 LINE",
"295 -100 LINE",
"349 -100 LINE SMOOTH",
"388 -100 OFFCURVE",
"414 -103 OFFCURVE",
"414 -134 CURVE SMOOTH",
"414 -163 OFFCURVE",
"393 -169 OFFCURVE",
"338 -169 CURVE SMOOTH",
"318 -169 OFFCURVE",
"296 -166 OFFCURVE",
"278 -161 CURVE",
"278 -232 LINE",
"293 -236 OFFCURVE",
"334 -240 OFFCURVE",
"357 -240 CURVE SMOOTH"
);
}
);
width = 603;
}
);
leftKerningGroup = C;
note = Ccedilla;
rightKerningGroup = C;
unicode = 00C7;
},
{
glyphname = Ccircumflex;
lastChange = "2015-10-24 07:37:55 +0000";
layers = (
{
layerId = "476303D8-9A2F-423D-8E21-2B4181C6C8D8";
name = SemiBold;
paths = (
{
closed = 1;
nodes = (
"456 -10 OFFCURVE",
"516 1 OFFCURVE",
"572 20 CURVE",
"572 162 LINE",
"514 138 OFFCURVE",
"453 127 OFFCURVE",
"390 127 CURVE SMOOTH",
"261 127 OFFCURVE",
"195 186 OFFCURVE",
"195 317 CURVE SMOOTH",
"195 454 OFFCURVE",
"254 516 OFFCURVE",
"388 516 CURVE SMOOTH",
"454 516 OFFCURVE",
"513 504 OFFCURVE",
"571 480 CURVE",
"571 621 LINE",
"514 641 OFFCURVE",
"455 654 OFFCURVE",
"376 654 CURVE SMOOTH",
"146 654 OFFCURVE",
"31 532 OFFCURVE",
"31 317 CURVE SMOOTH",
"31 112 OFFCURVE",
"152 -10 OFFCURVE",
"377 -10 CURVE SMOOTH"
);
},
{
closed = 1;
nodes = (
"273 687 LINE",
"345 791 LINE",
"420 687 LINE",
"540 687 LINE",
"395 874 LINE",
"295 874 LINE",
"150 687 LINE"
);
}
);
width = 603;
}
);
leftKerningGroup = C;
note = Ccircumflex;
rightKerningGroup = C;
unicode = 0108;
},
{
glyphname = Cdotaccent;
lastChange = "2015-10-24 07:37:55 +0000";
layers = (
{
layerId = "476303D8-9A2F-423D-8E21-2B4181C6C8D8";
name = SemiBold;
paths = (
{
closed = 1;
nodes = (
"456 -10 OFFCURVE",
"516 1 OFFCURVE",
"572 20 CURVE",
"572 162 LINE",
"514 138 OFFCURVE",
"453 127 OFFCURVE",
"390 127 CURVE SMOOTH",
"261 127 OFFCURVE",
"195 186 OFFCURVE",
"195 317 CURVE SMOOTH",
"195 454 OFFCURVE",
"254 516 OFFCURVE",
"388 516 CURVE SMOOTH",
"454 516 OFFCURVE",
"513 504 OFFCURVE",
"571 480 CURVE",
"571 621 LINE",
"514 641 OFFCURVE",
"455 654 OFFCURVE",
"376 654 CURVE SMOOTH",
"146 654 OFFCURVE",
"31 532 OFFCURVE",
"31 317 CURVE SMOOTH",
"31 112 OFFCURVE",
"152 -10 OFFCURVE",
"377 -10 CURVE SMOOTH"
);
},
{
closed = 1;
nodes = (
"417 714 LINE",
"417 823 LINE",
"300 823 LINE",
"300 714 LINE"
);
}
);
width = 603;
}
);
leftKerningGroup = C;
note = Cdotaccent;
rightKerningGroup = C;
unicode = 010A;
},
{
glyphname = D;
lastChange = "2015-10-24 07:37:55 +0000";
layers = (
{
layerId = "476303D8-9A2F-423D-8E21-2B4181C6C8D8";
name = SemiBold;
paths = (
{
closed = 1;
nodes = (
"330 0 LINE SMOOTH",
"528 0 OFFCURVE",
"632 97 OFFCURVE",
"632 318 CURVE SMOOTH",
"632 553 OFFCURVE",
"525 644 OFFCURVE",
"330 644 CURVE SMOOTH",
"51 644 LINE",
"51 0 LINE"
);
},
{
closed = 1;
nodes = (
"212 520 LINE",
"308 520 LINE SMOOTH",
"420 520 OFFCURVE",
"468 477 OFFCURVE",
"468 318 CURVE SMOOTH",
"468 159 OFFCURVE",
"412 124 OFFCURVE",
"308 124 CURVE SMOOTH",
"212 124 LINE"
);
}
);
width = 663;
}
);
note = D;
rightKerningGroup = D;
unicode = 0044;
},
{
glyphname = Eth;
lastChange = "2015-10-24 07:37:55 +0000";
layers = (
{
layerId = "476303D8-9A2F-423D-8E21-2B4181C6C8D8";
name = SemiBold;
paths = (
{
closed = 1;
nodes = (
"373 0 LINE SMOOTH",
"571 0 OFFCURVE",
"675 97 OFFCURVE",
"675 318 CURVE SMOOTH",
"675 553 OFFCURVE",
"568 644 OFFCURVE",
"373 644 CURVE SMOOTH",
"94 644 LINE",
"94 374 LINE",
"21 374 LINE",
"21 257 LINE",
"94 257 LINE",
"94 0 LINE"
);
},
{
closed = 1;
nodes = (
"255 257 LINE",
"381 257 LINE",
"381 374 LINE",
"255 374 LINE",
"255 520 LINE",
"351 520 LINE SMOOTH",
"463 520 OFFCURVE",
"511 477 OFFCURVE",
"511 318 CURVE SMOOTH",
"511 159 OFFCURVE",
"455 124 OFFCURVE",
"351 124 CURVE SMOOTH",
"255 124 LINE"
);
}
);
width = 707;
}
);
note = Eth;
rightKerningGroup = D;
unicode = 00D0;
},
{
glyphname = Dcaron;
lastChange = "2015-10-24 07:37:55 +0000";
layers = (
{
layerId = "476303D8-9A2F-423D-8E21-2B4181C6C8D8";
name = SemiBold;
paths = (
{
closed = 1;
nodes = (
"330 0 LINE SMOOTH",
"528 0 OFFCURVE",
"632 97 OFFCURVE",
"632 318 CURVE SMOOTH",
"632 553 OFFCURVE",
"525 644 OFFCURVE",
"330 644 CURVE SMOOTH",
"51 644 LINE",
"51 0 LINE"
);
},
{
closed = 1;
nodes = (
"212 520 LINE",
"308 520 LINE SMOOTH",
"420 520 OFFCURVE",
"468 477 OFFCURVE",
"468 318 CURVE SMOOTH",
"468 159 OFFCURVE",
"412 124 OFFCURVE",
"308 124 CURVE SMOOTH",
"212 124 LINE"
);
},
{
closed = 1;
nodes = (
"351 698 LINE",
"496 885 LINE",
"376 885 LINE",
"301 781 LINE",
"229 885 LINE",
"106 885 LINE",
"251 698 LINE"
);
}
);
width = 663;
}
);
note = Dcaron;
rightKerningGroup = D;
unicode = 010E;
},
{
glyphname = Dcroat;
lastChange = "2015-10-24 07:37:55 +0000";
layers = (
{
layerId = "476303D8-9A2F-423D-8E21-2B4181C6C8D8";
name = SemiBold;
paths = (
{
closed = 1;
nodes = (
"363 0 LINE SMOOTH",
"561 0 OFFCURVE",
"665 97 OFFCURVE",
"665 318 CURVE SMOOTH",
"665 553 OFFCURVE",
"558 644 OFFCURVE",
"363 644 CURVE SMOOTH",
"84 644 LINE",
"84 374 LINE",
"11 374 LINE",
"11 257 LINE",
"84 257 LINE",
"84 0 LINE"
);
},
{
closed = 1;
nodes = (
"245 257 LINE",
"371 257 LINE",
"371 374 LINE",
"245 374 LINE",
"245 520 LINE",
"341 520 LINE SMOOTH",
"453 520 OFFCURVE",
"501 477 OFFCURVE",
"501 318 CURVE SMOOTH",
"501 159 OFFCURVE",
"445 124 OFFCURVE",
"341 124 CURVE SMOOTH",
"245 124 LINE"
);
}
);
width = 697;
}
);
note = Dcroat;
rightKerningGroup = D;
unicode = 0110;
},
{
glyphname = Ddotbelow;
lastChange = "2015-10-24 07:37:55 +0000";
layers = (
{
layerId = "476303D8-9A2F-423D-8E21-2B4181C6C8D8";
name = SemiBold;
paths = (
{
closed = 1;
nodes = (
"330 0 LINE SMOOTH",
"528 0 OFFCURVE",
"632 97 OFFCURVE",
"632 318 CURVE SMOOTH",
"632 553 OFFCURVE",
"525 644 OFFCURVE",
"330 644 CURVE SMOOTH",
"51 644 LINE",
"51 0 LINE"
);
},
{
closed = 1;
nodes = (
"359 -189 LINE",
"359 -80 LINE",
"241 -80 LINE",
"241 -189 LINE"
);
},
{
closed = 1;
nodes = (
"212 520 LINE",
"308 520 LINE SMOOTH",
"420 520 OFFCURVE",
"468 477 OFFCURVE",
"468 318 CURVE SMOOTH",
"468 159 OFFCURVE",
"412 124 OFFCURVE",
"308 124 CURVE SMOOTH",
"212 124 LINE"
);
}
);
width = 663;
}
);
note = Ddotbelow;
rightKerningGroup = D;
unicode = 1E0C;
},
{
glyphname = Dlinebelow;
lastChange = "2015-10-24 07:37:55 +0000";
layers = (
{
layerId = "476303D8-9A2F-423D-8E21-2B4181C6C8D8";
name = SemiBold;
paths = (
{
closed = 1;
nodes = (
"330 0 LINE SMOOTH",
"528 0 OFFCURVE",
"632 97 OFFCURVE",
"632 318 CURVE SMOOTH",
"632 553 OFFCURVE",
"525 644 OFFCURVE",
"330 644 CURVE SMOOTH",
"51 644 LINE",
"51 0 LINE"
);
},
{
closed = 1;
nodes = (
"461 -180 LINE",
"461 -82 LINE",
"143 -82 LINE",
"143 -180 LINE"
);
},
{
closed = 1;
nodes = (
"212 520 LINE",
"308 520 LINE SMOOTH",
"420 520 OFFCURVE",
"468 477 OFFCURVE",
"468 318 CURVE SMOOTH",
"468 159 OFFCURVE",
"412 124 OFFCURVE",
"308 124 CURVE SMOOTH",
"212 124 LINE"
);
}
);
width = 663;
}
);
note = Dlinebelow;
rightKerningGroup = D;
unicode = 1E0E;
},
{
glyphname = E;
lastChange = "2015-10-24 08:02:51 +0000";
layers = (
{
layerId = "476303D8-9A2F-423D-8E21-2B4181C6C8D8";
name = SemiBold;
paths = (
{
closed = 1;
nodes = (
"526 0 LINE",
"526 124 LINE",
"212 124 LINE",
"212 259 LINE",
"489 259 LINE",
"489 385 LINE",
"212 385 LINE",
"212 520 LINE",
"526 520 LINE",
"526 644 LINE",
"51 644 LINE",
"51 0 LINE"
);
}
);
width = 552;
}
);
leftKerningGroup = E;
note = E;
rightKerningGroup = E;
unicode = 0045;
},
{
glyphname = Eacute;
lastChange = "2015-10-24 07:37:56 +0000";
layers = (
{
layerId = "476303D8-9A2F-423D-8E21-2B4181C6C8D8";
name = SemiBold;
paths = (
{
closed = 1;
nodes = (
"526 0 LINE",
"526 124 LINE",
"212 124 LINE",
"212 259 LINE",
"489 259 LINE",
"489 385 LINE",
"212 385 LINE",
"212 520 LINE",
"526 520 LINE",
"526 644 LINE",
"51 644 LINE",
"51 0 LINE"
);
},
{
closed = 1;
nodes = (
"335 688 LINE",
"427 884 LINE",
"295 884 LINE",
"211 688 LINE"
);
}
);
width = 552;
}
);
leftKerningGroup = E;
note = Eacute;
rightKerningGroup = E;
unicode = 00C9;
},
{
glyphname = Ebreve;
lastChange = "2015-11-25 10:05:48 +0000";
layers = (
{
layerId = "476303D8-9A2F-423D-8E21-2B4181C6C8D8";
name = SemiBold;
paths = (
{
closed = 1;
nodes = (
"526 0 LINE",
"526 124 LINE",
"212 124 LINE",
"212 259 LINE",
"489 259 LINE",
"489 385 LINE",
"212 385 LINE",
"212 520 LINE",
"526 520 LINE",
"526 644 LINE",
"51 644 LINE",
"51 0 LINE"
);
},
{
closed = 1;
nodes = (
"397 688 OFFCURVE",
"468 750 OFFCURVE",
"468 860 CURVE",
"362 860 LINE",
"362 814 OFFCURVE",
"342 778 OFFCURVE",
"293 778 CURVE SMOOTH",
"245 778 OFFCURVE",
"226 814 OFFCURVE",
"226 860 CURVE",
"120 860 LINE",
"120 750 OFFCURVE",
"190 688 OFFCURVE",
"293 688 CURVE SMOOTH"
);
}
);
width = 552;
}
);
leftKerningGroup = E;
note = Ebreve;
rightKerningGroup = E;
unicode = 0114;
},
{
glyphname = Ecaron;
lastChange = "2015-11-25 10:05:48 +0000";
layers = (
{
layerId = "476303D8-9A2F-423D-8E21-2B4181C6C8D8";
name = SemiBold;
paths = (
{
closed = 1;
nodes = (
"526 0 LINE",
"526 124 LINE",
"212 124 LINE",
"212 259 LINE",
"489 259 LINE",
"489 385 LINE",
"212 385 LINE",
"212 520 LINE",
"526 520 LINE",
"526 644 LINE",
"51 644 LINE",
"51 0 LINE"
);
},
{
closed = 1;
nodes = (
"346 687 LINE",
"491 874 LINE",
"371 874 LINE",
"296 770 LINE",
"224 874 LINE",
"101 874 LINE",
"246 687 LINE"
);
}
);
width = 552;
}
);
leftKerningGroup = E;
note = Ecaron;
rightKerningGroup = E;
unicode = 011A;
},
{
glyphname = Ecircumflex;
lastChange = "2015-11-25 10:06:08 +0000";
layers = (
{
layerId = "476303D8-9A2F-423D-8E21-2B4181C6C8D8";
name = SemiBold;
paths = (
{
closed = 1;
nodes = (
"526 0 LINE",
"526 124 LINE",
"212 124 LINE",
"212 259 LINE",
"489 259 LINE",
"489 385 LINE",
"212 385 LINE",
"212 520 LINE",
"526 520 LINE",
"526 644 LINE",
"51 644 LINE",
"51 0 LINE"
);
},
{
closed = 1;
nodes = (
"216 687 LINE",
"288 791 LINE",
"363 687 LINE",
"483 687 LINE",
"338 874 LINE",
"238 874 LINE",
"93 687 LINE"
);
}
);
width = 552;
}
);
leftKerningGroup = E;
note = Ecircumflex;
rightKerningGroup = E;
unicode = 00CA;
},
{
glyphname = Ecircumflexacute;
lastChange = "2015-11-25 10:05:48 +0000";
layers = (
{
layerId = "476303D8-9A2F-423D-8E21-2B4181C6C8D8";
name = SemiBold;
paths = (
{
closed = 1;
nodes = (
"526 0 LINE",
"526 124 LINE",
"212 124 LINE",
"212 259 LINE",
"489 259 LINE",
"489 385 LINE",
"212 385 LINE",
"212 520 LINE",
"526 520 LINE",
"526 644 LINE",
"51 644 LINE",
"51 0 LINE"
);
},
{
closed = 1;
nodes = (
"214 688 LINE",
"279 768 LINE",
"344 688 LINE",
"473 688 LINE",
"339 832 LINE",
"218 832 LINE",
"84 688 LINE"
);
},
{
closed = 1;
nodes = (
"504 809 LINE",
"579 958 LINE",
"459 958 LINE",
"390 809 LINE"
);
}
);
width = 552;
}
);
leftKerningGroup = E;
note = Ecircumflexacute;
rightKerningGroup = E;
unicode = 1EBE;
},
{
glyphname = Ecircumflexdotbelow;
lastChange = "2015-11-25 10:06:30 +0000";
layers = (
{
layerId = "476303D8-9A2F-423D-8E21-2B4181C6C8D8";
name = SemiBold;
paths = (
{
closed = 1;
nodes = (
"526 0 LINE",
"526 124 LINE",
"212 124 LINE",
"212 259 LINE",
"489 259 LINE",
"489 385 LINE",
"212 385 LINE",
"212 520 LINE",
"526 520 LINE",
"526 644 LINE",
"51 644 LINE",
"51 0 LINE"
);
},
{
closed = 1;
nodes = (
"341 -179 LINE",
"341 -70 LINE",
"223 -70 LINE",
"223 -179 LINE"
);
},
{
closed = 1;
nodes = (
"209 688 LINE",
"281 792 LINE",
"356 688 LINE",
"476 688 LINE",
"331 875 LINE",
"231 875 LINE",
"86 688 LINE"
);
}
);
width = 552;
}
);
leftKerningGroup = E;
note = Ecircumflexdotbelow;
rightKerningGroup = E;
unicode = 1EC6;
},
{
glyphname = Ecircumflexgrave;
lastChange = "2015-10-24 07:37:54 +0000";
layers = (
{
layerId = "476303D8-9A2F-423D-8E21-2B4181C6C8D8";
name = SemiBold;
paths = (
{
closed = 1;
nodes = (
"526 0 LINE",
"526 124 LINE",
"212 124 LINE",
"212 259 LINE",
"489 259 LINE",
"489 385 LINE",
"212 385 LINE",
"212 520 LINE",
"526 520 LINE",
"526 644 LINE",
"51 644 LINE",
"51 0 LINE"
);
},
{
closed = 1;
nodes = (
"175 809 LINE",
"106 958 LINE",
"-14 958 LINE",
"61 809 LINE"
);
},
{
closed = 1;
nodes = (
"221 688 LINE",
"286 768 LINE",
"351 688 LINE",
"481 688 LINE",
"347 832 LINE",
"226 832 LINE",
"92 688 LINE"
);
}
);
width = 552;
}
);
leftKerningGroup = E;
note = Ecircumflexgrave;
rightKerningGroup = E;
unicode = 1EC0;
},
{
glyphname = Ecircumflexhookabove;
lastChange = "2015-11-25 10:05:48 +0000";
layers = (
{
layerId = "476303D8-9A2F-423D-8E21-2B4181C6C8D8";
name = SemiBold;
paths = (
{
closed = 1;
nodes = (
"526 0 LINE",
"526 124 LINE",
"212 124 LINE",
"212 259 LINE",
"489 259 LINE",
"489 385 LINE",
"212 385 LINE",
"212 520 LINE",
"526 520 LINE",
"526 644 LINE",
"51 644 LINE",
"51 0 LINE"
);
},
{
closed = 1;
nodes = (
"218 688 LINE",
"283 768 LINE",
"348 688 LINE",
"477 688 LINE",
"343 832 LINE",
"222 832 LINE",
"88 688 LINE"
);
},
{
closed = 1;
nodes = (
"513 787 LINE",
"513 820 LINE",
"564 828 OFFCURVE",
"587 857 OFFCURVE",
"587 902 CURVE SMOOTH",
"587 952 OFFCURVE",
"548 985 OFFCURVE",
"472 985 CURVE SMOOTH",
"434 985 OFFCURVE",
"404 980 OFFCURVE",
"381 973 CURVE",
"381 906 LINE",
"396 912 OFFCURVE",
"414 916 OFFCURVE",
"434 916 CURVE SMOOTH",
"462 916 OFFCURVE",
"477 909 OFFCURVE",
"477 891 CURVE SMOOTH",
"477 872 OFFCURVE",
"464 860 OFFCURVE",
"404 858 CURVE",
"404 787 LINE"
);
}
);
width = 552;
}
);
leftKerningGroup = E;
note = Ecircumflexhookabove;
rightKerningGroup = E;
unicode = 1EC2;
},
{
glyphname = Ecircumflextilde;
lastChange = "2015-11-25 10:05:48 +0000";
layers = (
{
layerId = "476303D8-9A2F-423D-8E21-2B4181C6C8D8";
name = SemiBold;
paths = (
{
closed = 1;
nodes = (
"526 0 LINE",
"526 124 LINE",
"212 124 LINE",
"212 259 LINE",
"489 259 LINE",
"489 385 LINE",
"212 385 LINE",
"212 520 LINE",
"526 520 LINE",
"526 644 LINE",
"51 644 LINE",
"51 0 LINE"
);
},
{
closed = 1;
nodes = (
"223 688 LINE",
"288 768 LINE",
"353 688 LINE",
"482 688 LINE",
"348 832 LINE",
"227 832 LINE",
"93 688 LINE"
);
},
{
closed = 1;
nodes = (
"423 847 OFFCURVE",
"455 861 OFFCURVE",
"468 879 CURVE",
"468 971 LINE",
"451 947 OFFCURVE",
"421 932 OFFCURVE",
"382 932 CURVE SMOOTH",
"324 932 OFFCURVE",
"276 973 OFFCURVE",
"213 973 CURVE SMOOTH",
"177 973 OFFCURVE",
"142 959 OFFCURVE",
"124 941 CURVE",
"124 850 LINE",
"147 874 OFFCURVE",
"177 887 OFFCURVE",
"216 887 CURVE SMOOTH",
"268 887 OFFCURVE",
"324 847 OFFCURVE",
"385 847 CURVE SMOOTH"
);
}
);
width = 552;
}
);
leftKerningGroup = E;
note = Ecircumflextilde;
rightKerningGroup = E;
unicode = 1EC4;
},
{
glyphname = Edieresis;
lastChange = "2015-11-25 10:05:48 +0000";
layers = (
{
layerId = "476303D8-9A2F-423D-8E21-2B4181C6C8D8";
name = SemiBold;
paths = (
{
closed = 1;
nodes = (
"526 0 LINE",
"526 124 LINE",
"212 124 LINE",
"212 259 LINE",
"489 259 LINE",
"489 385 LINE",
"212 385 LINE",
"212 520 LINE",
"526 520 LINE",
"526 644 LINE",
"51 644 LINE",
"51 0 LINE"
);
},
{
closed = 1;
nodes = (
"248 714 LINE",
"248 823 LINE",
"130 823 LINE",
"130 714 LINE"
);
},
{
closed = 1;
nodes = (
"454 714 LINE",
"454 823 LINE",
"336 823 LINE",
"336 714 LINE"
);
}
);
width = 552;
}
);
leftKerningGroup = E;
note = Edieresis;
rightKerningGroup = E;
unicode = 00CB;
},
{
glyphname = Edotaccent;
lastChange = "2015-11-25 10:05:48 +0000";
layers = (
{
layerId = "476303D8-9A2F-423D-8E21-2B4181C6C8D8";
name = SemiBold;
paths = (
{
closed = 1;
nodes = (
"526 0 LINE",
"526 124 LINE",
"212 124 LINE",
"212 259 LINE",
"489 259 LINE",
"489 385 LINE",
"212 385 LINE",
"212 520 LINE",
"526 520 LINE",
"526 644 LINE",
"51 644 LINE",
"51 0 LINE"
);
},
{
closed = 1;
nodes = (
"346 714 LINE",
"346 823 LINE",
"229 823 LINE",
"229 714 LINE"
);
}
);
width = 552;
}
);
leftKerningGroup = E;
note = Edotaccent;
rightKerningGroup = E;
unicode = 0116;
},
{
glyphname = Edotbelow;
lastChange = "2015-11-25 10:05:48 +0000";
layers = (
{
layerId = "476303D8-9A2F-423D-8E21-2B4181C6C8D8";
name = SemiBold;
paths = (
{
closed = 1;
nodes = (
"526 0 LINE",
"526 124 LINE",
"212 124 LINE",
"212 259 LINE",
"489 259 LINE",
"489 385 LINE",
"212 385 LINE",
"212 520 LINE",
"526 520 LINE",
"526 644 LINE",
"51 644 LINE",
"51 0 LINE"
);
},
{
closed = 1;
nodes = (
"340 -179 LINE",
"340 -70 LINE",
"222 -70 LINE",
"222 -179 LINE"
);
}
);
width = 552;
}
);
leftKerningGroup = E;
note = Edotbelow;
rightKerningGroup = E;
unicode = 1EB8;
},
{
glyphname = Egrave;
lastChange = "2015-11-25 10:05:48 +0000";
layers = (
{
layerId = "476303D8-9A2F-423D-8E21-2B4181C6C8D8";
name = SemiBold;
paths = (
{
closed = 1;
nodes = (
"526 0 LINE",
"526 124 LINE",
"212 124 LINE",
"212 259 LINE",
"489 259 LINE",
"489 385 LINE",
"212 385 LINE",
"212 520 LINE",
"526 520 LINE",
"526 644 LINE",
"51 644 LINE",
"51 0 LINE"
);
},
{
closed = 1;
nodes = (
"366 688 LINE",
"282 884 LINE",
"150 884 LINE",
"243 688 LINE"
);
}
);
width = 552;
}
);
leftKerningGroup = E;
note = Egrave;
rightKerningGroup = E;
unicode = 00C8;
},
{
glyphname = Ehookabove;
lastChange = "2015-11-25 10:05:48 +0000";
layers = (
{
layerId = "476303D8-9A2F-423D-8E21-2B4181C6C8D8";
name = SemiBold;
paths = (
{
closed = 1;
nodes = (
"526 0 LINE",
"526 124 LINE",
"212 124 LINE",
"212 259 LINE",
"489 259 LINE",
"489 385 LINE",
"212 385 LINE",
"212 520 LINE",
"526 520 LINE",
"526 644 LINE",
"51 644 LINE",
"51 0 LINE"
);
},
{
closed = 1;
nodes = (
"346 688 LINE",
"346 732 LINE",
"405 746 OFFCURVE",
"431 772 OFFCURVE",
"431 829 CURVE SMOOTH",
"431 888 OFFCURVE",
"383 928 OFFCURVE",
"295 928 CURVE SMOOTH",
"252 928 OFFCURVE",
"214 923 OFFCURVE",
"188 914 CURVE",
"188 842 LINE",
"204 847 OFFCURVE",
"229 851 OFFCURVE",
"248 851 CURVE SMOOTH",
"289 851 OFFCURVE",
"313 840 OFFCURVE",
"313 815 CURVE SMOOTH",
"313 788 OFFCURVE",
"295 773 OFFCURVE",
"224 769 CURVE",
"224 688 LINE"
);
}
);
width = 552;
}
);
leftKerningGroup = E;
note = Ehookabove;
rightKerningGroup = E;
unicode = 1EBA;
},
{
glyphname = Emacron;
lastChange = "2015-11-25 10:05:48 +0000";
layers = (
{
layerId = "476303D8-9A2F-423D-8E21-2B4181C6C8D8";
name = SemiBold;
paths = (
{
closed = 1;
nodes = (
"526 0 LINE",
"526 124 LINE",
"212 124 LINE",
"212 259 LINE",
"489 259 LINE",
"489 385 LINE",
"212 385 LINE",
"212 520 LINE",
"526 520 LINE",
"526 644 LINE",
"51 644 LINE",
"51 0 LINE"
);
},
{
closed = 1;
nodes = (
"439 723 LINE",
"439 820 LINE",
"121 820 LINE",
"121 723 LINE"
);
}
);
width = 552;
}
);
leftKerningGroup = E;
note = Emacron;
rightKerningGroup = E;
unicode = 0112;
},
{
glyphname = Eogonek;
lastChange = "2015-11-25 10:05:48 +0000";
layers = (
{
layerId = "476303D8-9A2F-423D-8E21-2B4181C6C8D8";
name = SemiBold;
paths = (
{
closed = 1;
nodes = (
"526 0 LINE",
"526 124 LINE",
"212 124 LINE",
"212 259 LINE",
"489 259 LINE",
"489 385 LINE",
"212 385 LINE",
"212 520 LINE",
"526 520 LINE",
"526 644 LINE",
"51 644 LINE",
"51 0 LINE"
);
},
{
closed = 1;
nodes = (
"461 -220 OFFCURVE",
"499 -213 OFFCURVE",
"518 -205 CURVE",
"518 -124 LINE",
"506 -131 OFFCURVE",
"485 -135 OFFCURVE",
"468 -135 CURVE SMOOTH",
"441 -135 OFFCURVE",
"424 -124 OFFCURVE",
"424 -97 CURVE SMOOTH",
"424 -61 OFFCURVE",
"450 -28 OFFCURVE",
"487 0 CURVE",
"374 0 LINE",
"329 -30 OFFCURVE",
"301 -76 OFFCURVE",
"301 -126 CURVE SMOOTH",
"301 -191 OFFCURVE",
"356 -220 OFFCURVE",
"424 -220 CURVE SMOOTH"
);
}
);
width = 552;
}
);
leftKerningGroup = E;
note = Eogonek;
rightKerningGroup = E;
unicode = 0118;
},
{
glyphname = Etilde;
lastChange = "2015-11-25 10:05:48 +0000";
layers = (
{
layerId = "476303D8-9A2F-423D-8E21-2B4181C6C8D8";
name = SemiBold;
paths = (
{
closed = 1;
nodes = (
"526 0 LINE",
"526 124 LINE",
"212 124 LINE",
"212 259 LINE",
"489 259 LINE",
"489 385 LINE",
"212 385 LINE",
"212 520 LINE",
"526 520 LINE",
"526 644 LINE",
"51 644 LINE",
"51 0 LINE"
);
},
{
closed = 1;
nodes = (
"419 698 OFFCURVE",
"452 712 OFFCURVE",
"465 730 CURVE",
"465 838 LINE",
"448 814 OFFCURVE",
"418 799 OFFCURVE",
"378 799 CURVE SMOOTH",
"319 799 OFFCURVE",
"271 840 OFFCURVE",
"207 840 CURVE SMOOTH",
"170 840 OFFCURVE",
"135 826 OFFCURVE",
"116 808 CURVE",
"116 701 LINE",
"140 725 OFFCURVE",
"171 739 OFFCURVE",
"210 739 CURVE SMOOTH",
"262 739 OFFCURVE",
"319 698 OFFCURVE",
"381 698 CURVE SMOOTH"
);
}
);
width = 552;
}
);
leftKerningGroup = E;
note = Etilde;
rightKerningGroup = E;
unicode = 1EBC;
},
{
glyphname = F;
lastChange = "2015-10-24 08:03:36 +0000";
layers = (
{
layerId = "476303D8-9A2F-423D-8E21-2B4181C6C8D8";
name = SemiBold;
paths = (
{
closed = 1;
nodes = (
"212 0 LINE",
"212 259 LINE",
"482 259 LINE",
"482 385 LINE",
"212 385 LINE",
"212 520 LINE",
"519 520 LINE",
"519 644 LINE",
"51 644 LINE",
"51 0 LINE"
);
}
);
width = 530;
}
);
note = F;
unicode = 0046;
},
{
glyphname = G;
lastChange = "2015-10-24 08:04:22 +0000";
layers = (
{
layerId = "476303D8-9A2F-423D-8E21-2B4181C6C8D8";
name = SemiBold;
paths = (
{
closed = 1;
nodes = (
"491 -10 OFFCURVE",
"570 17 OFFCURVE",
"616 47 CURVE",
"616 366 LINE",
"342 366 LINE",
"342 265 LINE",
"481 265 LINE",
"481 143 LINE",
"450 133 OFFCURVE",
"412 127 OFFCURVE",
"373 127 CURVE SMOOTH",
"255 127 OFFCURVE",
"195 186 OFFCURVE",
"195 313 CURVE SMOOTH",
"195 452 OFFCURVE",
"255 516 OFFCURVE",
"394 516 CURVE SMOOTH",
"459 516 OFFCURVE",
"522 509 OFFCURVE",
"579 488 CURVE",
"579 626 LINE",
"522 645 OFFCURVE",
"461 654 OFFCURVE",
"382 654 CURVE SMOOTH",
"151 654 OFFCURVE",
"31 528 OFFCURVE",
"31 313 CURVE SMOOTH",
"31 108 OFFCURVE",
"149 -10 OFFCURVE",
"372 -10 CURVE SMOOTH"
);
}
);
width = 647;
}
);
leftKerningGroup = G;
note = G;
unicode = 0047;
},
{
glyphname = Gbreve;
lastChange = "2015-10-24 07:37:55 +0000";
layers = (
{
layerId = "476303D8-9A2F-423D-8E21-2B4181C6C8D8";
name = SemiBold;
paths = (
{
closed = 1;
nodes = (
"491 -10 OFFCURVE",
"570 17 OFFCURVE",
"616 47 CURVE",
"616 366 LINE",
"342 366 LINE",
"342 265 LINE",
"481 265 LINE",
"481 143 LINE",
"450 133 OFFCURVE",
"412 127 OFFCURVE",
"373 127 CURVE SMOOTH",
"255 127 OFFCURVE",
"195 186 OFFCURVE",
"195 313 CURVE SMOOTH",
"195 452 OFFCURVE",
"255 516 OFFCURVE",
"394 516 CURVE SMOOTH",
"459 516 OFFCURVE",
"522 509 OFFCURVE",
"579 488 CURVE",
"579 626 LINE",
"522 645 OFFCURVE",
"461 654 OFFCURVE",
"382 654 CURVE SMOOTH",
"151 654 OFFCURVE",
"31 528 OFFCURVE",
"31 313 CURVE SMOOTH",
"31 108 OFFCURVE",
"149 -10 OFFCURVE",
"372 -10 CURVE SMOOTH"
);
},
{
closed = 1;
nodes = (
"476 688 OFFCURVE",
"547 750 OFFCURVE",
"547 860 CURVE",
"441 860 LINE",
"441 814 OFFCURVE",
"421 778 OFFCURVE",
"372 778 CURVE SMOOTH",
"324 778 OFFCURVE",
"305 814 OFFCURVE",
"305 860 CURVE",
"199 860 LINE",
"199 750 OFFCURVE",
"269 688 OFFCURVE",
"372 688 CURVE SMOOTH"
);
}
);
width = 647;
}
);
leftKerningGroup = G;
note = Gbreve;
unicode = 011E;
},
{
glyphname = Gcaron;
lastChange = "2015-10-24 07:37:55 +0000";
layers = (
{
layerId = "476303D8-9A2F-423D-8E21-2B4181C6C8D8";
name = SemiBold;
paths = (
{
closed = 1;
nodes = (
"491 -10 OFFCURVE",
"570 17 OFFCURVE",
"616 47 CURVE",
"616 366 LINE",
"342 366 LINE",
"342 265 LINE",
"481 265 LINE",
"481 143 LINE",
"450 133 OFFCURVE",
"412 127 OFFCURVE",
"373 127 CURVE SMOOTH",
"255 127 OFFCURVE",
"195 186 OFFCURVE",
"195 313 CURVE SMOOTH",
"195 452 OFFCURVE",
"255 516 OFFCURVE",
"394 516 CURVE SMOOTH",
"459 516 OFFCURVE",
"522 509 OFFCURVE",
"579 488 CURVE",
"579 626 LINE",
"522 645 OFFCURVE",
"461 654 OFFCURVE",
"382 654 CURVE SMOOTH",
"151 654 OFFCURVE",
"31 528 OFFCURVE",
"31 313 CURVE SMOOTH",
"31 108 OFFCURVE",
"149 -10 OFFCURVE",
"372 -10 CURVE SMOOTH"
);
},
{
closed = 1;
nodes = (
"419 688 LINE",
"564 875 LINE",
"444 875 LINE",
"369 771 LINE",
"297 875 LINE",
"174 875 LINE",
"319 688 LINE"
);
}
);
width = 647;
}
);
leftKerningGroup = G;
note = Gcaron;
unicode = 01E6;
},
{
glyphname = Gcircumflex;
lastChange = "2015-10-24 07:37:54 +0000";
layers = (
{
layerId = "476303D8-9A2F-423D-8E21-2B4181C6C8D8";
name = SemiBold;
paths = (
{
closed = 1;
nodes = (
"491 -10 OFFCURVE",
"570 17 OFFCURVE",
"616 47 CURVE",
"616 366 LINE",
"342 366 LINE",
"342 265 LINE",
"481 265 LINE",
"481 143 LINE",
"450 133 OFFCURVE",
"412 127 OFFCURVE",
"373 127 CURVE SMOOTH",
"255 127 OFFCURVE",
"195 186 OFFCURVE",
"195 313 CURVE SMOOTH",
"195 452 OFFCURVE",
"255 516 OFFCURVE",
"394 516 CURVE SMOOTH",
"459 516 OFFCURVE",
"522 509 OFFCURVE",
"579 488 CURVE",
"579 626 LINE",
"522 645 OFFCURVE",
"461 654 OFFCURVE",
"382 654 CURVE SMOOTH",
"151 654 OFFCURVE",
"31 528 OFFCURVE",
"31 313 CURVE SMOOTH",
"31 108 OFFCURVE",
"149 -10 OFFCURVE",
"372 -10 CURVE SMOOTH"
);
},
{
closed = 1;
nodes = (
"289 687 LINE",
"361 791 LINE",
"436 687 LINE",
"556 687 LINE",
"411 874 LINE",
"311 874 LINE",
"166 687 LINE"
);
}
);
width = 647;
}
);
leftKerningGroup = G;
note = Gcircumflex;
unicode = 011C;
},
{
glyphname = Gcommaaccent;
lastChange = "2015-10-24 07:37:55 +0000";
layers = (
{
layerId = "476303D8-9A2F-423D-8E21-2B4181C6C8D8";
name = SemiBold;
paths = (
{
closed = 1;
nodes = (
"491 -10 OFFCURVE",
"570 17 OFFCURVE",
"616 47 CURVE",
"616 366 LINE",
"342 366 LINE",
"342 265 LINE",
"481 265 LINE",
"481 143 LINE",
"450 133 OFFCURVE",
"412 127 OFFCURVE",
"373 127 CURVE SMOOTH",
"255 127 OFFCURVE",
"195 186 OFFCURVE",
"195 313 CURVE SMOOTH",
"195 452 OFFCURVE",
"255 516 OFFCURVE",
"394 516 CURVE SMOOTH",
"459 516 OFFCURVE",
"522 509 OFFCURVE",
"579 488 CURVE",
"579 626 LINE",
"522 645 OFFCURVE",
"461 654 OFFCURVE",
"382 654 CURVE SMOOTH",
"151 654 OFFCURVE",
"31 528 OFFCURVE",
"31 313 CURVE SMOOTH",
"31 108 OFFCURVE",
"149 -10 OFFCURVE",
"372 -10 CURVE SMOOTH"
);
},
{
closed = 1;
nodes = (
"395 -250 LINE",
"448 -37 LINE",
"319 -37 LINE",
"286 -250 LINE"
);
}
);
width = 647;
}
);
leftKerningGroup = G;
note = Gcommaaccent;
unicode = 0122;
},
{
glyphname = Gdotaccent;
lastChange = "2015-10-24 07:37:55 +0000";
layers = (
{
layerId = "476303D8-9A2F-423D-8E21-2B4181C6C8D8";
name = SemiBold;
paths = (
{
closed = 1;
nodes = (
"491 -10 OFFCURVE",
"570 17 OFFCURVE",
"616 47 CURVE",
"616 366 LINE",
"342 366 LINE",
"342 265 LINE",
"481 265 LINE",
"481 143 LINE",
"450 133 OFFCURVE",
"412 127 OFFCURVE",
"373 127 CURVE SMOOTH",
"255 127 OFFCURVE",
"195 186 OFFCURVE",
"195 313 CURVE SMOOTH",
"195 452 OFFCURVE",
"255 516 OFFCURVE",
"394 516 CURVE SMOOTH",
"459 516 OFFCURVE",
"522 509 OFFCURVE",
"579 488 CURVE",
"579 626 LINE",
"522 645 OFFCURVE",
"461 654 OFFCURVE",
"382 654 CURVE SMOOTH",
"151 654 OFFCURVE",
"31 528 OFFCURVE",
"31 313 CURVE SMOOTH",
"31 108 OFFCURVE",
"149 -10 OFFCURVE",
"372 -10 CURVE SMOOTH"
);
},
{
closed = 1;
nodes = (
"438 714 LINE",
"438 823 LINE",
"321 823 LINE",
"321 714 LINE"
);
}
);
width = 647;
}
);
leftKerningGroup = G;
note = Gdotaccent;
unicode = 0120;
},
{
glyphname = Gmacron;
lastChange = "2015-10-24 07:37:55 +0000";
layers = (
{
layerId = "476303D8-9A2F-423D-8E21-2B4181C6C8D8";
name = SemiBold;
paths = (
{
closed = 1;
nodes = (
"491 -10 OFFCURVE",
"570 17 OFFCURVE",
"616 47 CURVE",
"616 366 LINE",
"342 366 LINE",
"342 265 LINE",
"481 265 LINE",
"481 143 LINE",
"450 133 OFFCURVE",
"412 127 OFFCURVE",
"373 127 CURVE SMOOTH",
"255 127 OFFCURVE",
"195 186 OFFCURVE",
"195 313 CURVE SMOOTH",
"195 452 OFFCURVE",
"255 516 OFFCURVE",
"394 516 CURVE SMOOTH",
"459 516 OFFCURVE",
"522 509 OFFCURVE",
"579 488 CURVE",
"579 626 LINE",
"522 645 OFFCURVE",
"461 654 OFFCURVE",
"382 654 CURVE SMOOTH",
"151 654 OFFCURVE",
"31 528 OFFCURVE",
"31 313 CURVE SMOOTH",
"31 108 OFFCURVE",
"149 -10 OFFCURVE",
"372 -10 CURVE SMOOTH"
);
},
{
closed = 1;
nodes = (
"533 717 LINE",
"533 814 LINE",
"215 814 LINE",
"215 717 LINE"
);
}
);
width = 647;
}
);
leftKerningGroup = G;
note = Gmacron;
unicode = 1E20;
},
{
glyphname = H;
lastChange = "2015-10-24 07:37:56 +0000";
layers = (
{
layerId = "476303D8-9A2F-423D-8E21-2B4181C6C8D8";
name = SemiBold;
paths = (
{
closed = 1;
nodes = (
"212 0 LINE",
"212 255 LINE",
"464 255 LINE",
"464 0 LINE",
"625 0 LINE",
"625 644 LINE",
"464 644 LINE",
"464 389 LINE",
"212 389 LINE",
"212 644 LINE",
"51 644 LINE",
"51 0 LINE"
);
}
);
width = 676;
}
);
note = H;
unicode = 0048;
},
{
glyphname = Hbar;
lastChange = "2015-10-24 07:37:55 +0000";
layers = (
{
layerId = "476303D8-9A2F-423D-8E21-2B4181C6C8D8";
name = SemiBold;
paths = (
{
closed = 1;
nodes = (
"212 0 LINE",
"212 255 LINE",
"464 255 LINE",
"464 0 LINE",
"625 0 LINE",
"625 454 LINE",
"666 454 LINE",
"666 569 LINE",
"625 569 LINE",
"625 644 LINE",
"464 644 LINE",
"464 569 LINE",
"212 569 LINE",
"212 644 LINE",
"51 644 LINE",
"51 569 LINE",
"10 569 LINE",
"10 454 LINE",
"51 454 LINE",
"51 0 LINE"
);
},
{
closed = 1;
nodes = (
"212 454 LINE",
"464 454 LINE",
"464 389 LINE",
"212 389 LINE"
);
}
);
width = 677;
}
);
note = Hbar;
unicode = 0126;
},
{
glyphname = Hbrevebelow;
lastChange = "2015-10-24 07:37:55 +0000";
layers = (
{
layerId = "476303D8-9A2F-423D-8E21-2B4181C6C8D8";
name = SemiBold;
paths = (
{
closed = 1;
nodes = (
"212 0 LINE",
"212 255 LINE",
"464 255 LINE",
"464 0 LINE",
"625 0 LINE",
"625 644 LINE",
"464 644 LINE",
"464 389 LINE",
"212 389 LINE",
"212 644 LINE",
"51 644 LINE",
"51 0 LINE"
);
},
{
closed = 1;
nodes = (
"441 -227 OFFCURVE",
"512 -165 OFFCURVE",
"512 -55 CURVE",
"406 -55 LINE",
"406 -101 OFFCURVE",
"386 -137 OFFCURVE",
"337 -137 CURVE SMOOTH",
"289 -137 OFFCURVE",
"270 -101 OFFCURVE",
"270 -55 CURVE",
"164 -55 LINE",
"164 -165 OFFCURVE",
"234 -227 OFFCURVE",
"337 -227 CURVE SMOOTH"
);
}
);
width = 676;
}
);
note = Hbrevebelow;
unicode = 1E2A;
},
{
glyphname = Hcircumflex;
lastChange = "2015-10-24 07:37:55 +0000";
layers = (
{
layerId = "476303D8-9A2F-423D-8E21-2B4181C6C8D8";
name = SemiBold;
paths = (
{
closed = 1;
nodes = (
"212 0 LINE",
"212 255 LINE",
"464 255 LINE",
"464 0 LINE",
"625 0 LINE",
"625 644 LINE",
"464 644 LINE",
"464 389 LINE",
"212 389 LINE",
"212 644 LINE",
"51 644 LINE",
"51 0 LINE"
);
},
{
closed = 1;
nodes = (
"265 687 LINE",
"337 791 LINE",
"412 687 LINE",
"532 687 LINE",
"387 874 LINE",
"287 874 LINE",
"142 687 LINE"
);
}
);
width = 676;
}
);
note = Hcircumflex;
unicode = 0124;
},
{
glyphname = Hdotbelow;
lastChange = "2015-10-24 07:37:56 +0000";
layers = (
{
layerId = "476303D8-9A2F-423D-8E21-2B4181C6C8D8";
name = SemiBold;
paths = (
{
closed = 1;
nodes = (
"212 0 LINE",
"212 255 LINE",
"464 255 LINE",
"464 0 LINE",
"625 0 LINE",
"625 644 LINE",
"464 644 LINE",
"464 389 LINE",
"212 389 LINE",
"212 644 LINE",
"51 644 LINE",
"51 0 LINE"
);
},
{
closed = 1;
nodes = (
"397 -189 LINE",
"397 -80 LINE",
"279 -80 LINE",
"279 -189 LINE"
);
}
);
width = 676;
}
);
note = Hdotbelow;
unicode = 1E24;
},
{
glyphname = I;
lastChange = "2015-10-24 07:37:55 +0000";
layers = (
{
layerId = "476303D8-9A2F-423D-8E21-2B4181C6C8D8";
name = SemiBold;
paths = (
{
closed = 1;
nodes = (
"212 0 LINE",
"212 644 LINE",
"51 644 LINE",
"51 0 LINE"
);
}
);
width = 263;
}
);
note = I;
unicode = 0049;
},
{
glyphname = IJ;
lastChange = "2015-10-24 07:37:55 +0000";
layers = (
{
layerId = "476303D8-9A2F-423D-8E21-2B4181C6C8D8";
name = SemiBold;
paths = (
{
closed = 1;
nodes = (
"568 -10 OFFCURVE",
"649 64 OFFCURVE",
"649 199 CURVE SMOOTH",
"649 644 LINE",
"488 644 LINE",
"488 229 LINE SMOOTH",
"488 156 OFFCURVE",
"458 127 OFFCURVE",
"380 127 CURVE SMOOTH",
"339 127 OFFCURVE",
"297 134 OFFCURVE",
"265 148 CURVE",
"265 13 LINE",
"308 -3 OFFCURVE",
"358 -10 OFFCURVE",
"413 -10 CURVE SMOOTH"
);
},
{
closed = 1;
nodes = (
"212 0 LINE",
"212 644 LINE",
"51 644 LINE",
"51 0 LINE"
);
}
);
width = 696;
}
);
note = IJ;
unicode = 0132;
},
{
glyphname = Iacute;
lastChange = "2015-10-24 07:37:55 +0000";
layers = (
{
layerId = "476303D8-9A2F-423D-8E21-2B4181C6C8D8";
name = SemiBold;
paths = (
{
closed = 1;
nodes = (
"212 0 LINE",
"212 644 LINE",
"51 644 LINE",
"51 0 LINE"
);
},
{
closed = 1;
nodes = (
"191 688 LINE",
"283 884 LINE",
"151 884 LINE",
"67 688 LINE"
);
}
);
width = 264;
}
);
note = Iacute;
unicode = 00CD;
},
{
glyphname = Ibreve;
lastChange = "2015-10-24 07:37:56 +0000";
layers = (
{
layerId = "476303D8-9A2F-423D-8E21-2B4181C6C8D8";
name = SemiBold;
paths = (
{
closed = 1;
nodes = (
"212 0 LINE",
"212 644 LINE",
"51 644 LINE",
"51 0 LINE"
);
},
{
closed = 1;
nodes = (
"235 705 OFFCURVE",
"306 767 OFFCURVE",
"306 877 CURVE",
"200 877 LINE",
"200 831 OFFCURVE",
"180 795 OFFCURVE",
"131 795 CURVE SMOOTH",
"83 795 OFFCURVE",
"64 831 OFFCURVE",
"64 877 CURVE",
"-42 877 LINE",
"-42 767 OFFCURVE",
"28 705 OFFCURVE",
"131 705 CURVE SMOOTH"
);
}
);
width = 264;
}
);
note = Ibreve;
unicode = 012C;
},
{
glyphname = Icaron;
lastChange = "2015-10-24 07:37:55 +0000";
layers = (
{
layerId = "476303D8-9A2F-423D-8E21-2B4181C6C8D8";
name = SemiBold;
paths = (
{
closed = 1;
nodes = (
"212 0 LINE",
"212 644 LINE",
"51 644 LINE",
"51 0 LINE"
);
},
{
closed = 1;
nodes = (
"181 688 LINE",
"326 875 LINE",
"206 875 LINE",
"131 771 LINE",
"59 875 LINE",
"-64 875 LINE",
"81 688 LINE"
);
}
);
width = 264;
}
);
note = Icaron;
unicode = 01CF;
},
{
glyphname = Icircumflex;
lastChange = "2015-10-24 07:37:55 +0000";
layers = (
{
layerId = "476303D8-9A2F-423D-8E21-2B4181C6C8D8";
name = SemiBold;
paths = (
{
closed = 1;
nodes = (
"212 0 LINE",
"212 644 LINE",
"51 644 LINE",
"51 0 LINE"
);
},
{
closed = 1;
nodes = (
"59 687 LINE",
"131 791 LINE",
"206 687 LINE",
"326 687 LINE",
"181 874 LINE",
"81 874 LINE",
"-64 687 LINE"
);
}
);
width = 264;
}
);
note = Icircumflex;
unicode = 00CE;
},
{
glyphname = Idieresis;
lastChange = "2015-10-24 07:37:55 +0000";
layers = (
{
layerId = "476303D8-9A2F-423D-8E21-2B4181C6C8D8";
name = SemiBold;
paths = (
{
closed = 1;
nodes = (
"212 0 LINE",
"212 644 LINE",
"51 644 LINE",
"51 0 LINE"
);
},
{
closed = 1;
nodes = (
"88 720 LINE",
"88 829 LINE",
"-30 829 LINE",
"-30 720 LINE"
);
},
{
closed = 1;
nodes = (
"294 720 LINE",
"294 829 LINE",
"176 829 LINE",
"176 720 LINE"
);
}
);
width = 263;
}
);
note = Idieresis;
unicode = 00CF;
},
{
glyphname = Idotaccent;
lastChange = "2015-10-24 07:37:55 +0000";
layers = (
{
layerId = "476303D8-9A2F-423D-8E21-2B4181C6C8D8";
name = SemiBold;
paths = (
{
closed = 1;
nodes = (
"212 0 LINE",
"212 644 LINE",
"51 644 LINE",
"51 0 LINE"
);
},
{
closed = 1;
nodes = (
"190 720 LINE",
"190 829 LINE",
"73 829 LINE",
"73 720 LINE"
);
}
);
width = 263;
}
);
note = Idotaccent;
unicode = 0130;
},
{
glyphname = Idotbelow;
lastChange = "2015-10-24 07:37:56 +0000";
layers = (
{
layerId = "476303D8-9A2F-423D-8E21-2B4181C6C8D8";
name = SemiBold;
paths = (
{
closed = 1;
nodes = (
"212 0 LINE",
"212 644 LINE",
"51 644 LINE",
"51 0 LINE"
);
},
{
closed = 1;
nodes = (
"190 -179 LINE",
"190 -70 LINE",
"72 -70 LINE",
"72 -179 LINE"
);
}
);
width = 263;
}
);
note = Idotbelow;
unicode = 1ECA;
},
{
glyphname = Igrave;
lastChange = "2015-10-24 07:37:55 +0000";
layers = (
{
layerId = "476303D8-9A2F-423D-8E21-2B4181C6C8D8";
name = SemiBold;
paths = (
{
closed = 1;
nodes = (
"212 0 LINE",
"212 644 LINE",
"51 644 LINE",
"51 0 LINE"
);
},
{
closed = 1;
nodes = (
"194 688 LINE",
"110 884 LINE",
"-22 884 LINE",
"71 688 LINE"
);
}
);
width = 263;
}
);
note = Igrave;
unicode = 00CC;
},
{
glyphname = Ihookabove;
lastChange = "2015-10-24 07:37:55 +0000";
layers = (
{
layerId = "476303D8-9A2F-423D-8E21-2B4181C6C8D8";
name = SemiBold;
paths = (
{
closed = 1;
nodes = (
"212 0 LINE",
"212 644 LINE",
"51 644 LINE",
"51 0 LINE"
);
},
{
closed = 1;
nodes = (
"188 688 LINE",
"188 732 LINE",
"247 746 OFFCURVE",
"273 772 OFFCURVE",
"273 829 CURVE SMOOTH",
"273 888 OFFCURVE",
"225 928 OFFCURVE",
"137 928 CURVE SMOOTH",
"94 928 OFFCURVE",
"56 923 OFFCURVE",
"30 914 CURVE",
"30 842 LINE",
"46 847 OFFCURVE",
"71 851 OFFCURVE",
"90 851 CURVE SMOOTH",
"131 851 OFFCURVE",
"155 840 OFFCURVE",
"155 815 CURVE SMOOTH",
"155 788 OFFCURVE",
"137 773 OFFCURVE",
"66 769 CURVE",
"66 688 LINE"
);
}
);
width = 264;
}
);
note = Ihookabove;
unicode = 1EC8;
},
{
glyphname = Imacron;
lastChange = "2015-10-24 07:37:56 +0000";
layers = (
{
layerId = "476303D8-9A2F-423D-8E21-2B4181C6C8D8";
name = SemiBold;
paths = (
{
closed = 1;
nodes = (
"212 0 LINE",
"212 644 LINE",
"51 644 LINE",
"51 0 LINE"
);
},
{
closed = 1;
nodes = (
"291 723 LINE",
"291 820 LINE",
"-27 820 LINE",
"-27 723 LINE"
);
}
);
width = 264;
}
);
note = Imacron;
unicode = 012A;
},
{
glyphname = Iogonek;
lastChange = "2015-10-24 07:37:54 +0000";
layers = (
{
layerId = "476303D8-9A2F-423D-8E21-2B4181C6C8D8";
name = SemiBold;
paths = (
{
closed = 1;
nodes = (
"212 0 LINE",
"212 644 LINE",
"51 644 LINE",
"51 0 LINE"
);
},
{
closed = 1;
nodes = (
"164 -220 OFFCURVE",
"202 -213 OFFCURVE",
"221 -205 CURVE",
"221 -124 LINE",
"209 -131 OFFCURVE",
"188 -135 OFFCURVE",
"171 -135 CURVE SMOOTH",
"144 -135 OFFCURVE",
"127 -124 OFFCURVE",
"127 -97 CURVE SMOOTH",
"127 -61 OFFCURVE",
"153 -28 OFFCURVE",
"190 0 CURVE",
"77 0 LINE",
"32 -30 OFFCURVE",
"4 -76 OFFCURVE",
"4 -126 CURVE SMOOTH",
"4 -191 OFFCURVE",
"59 -220 OFFCURVE",
"127 -220 CURVE SMOOTH"
);
}
);
width = 264;
}
);
note = Iogonek;
unicode = 012E;
},
{
glyphname = Itilde;
lastChange = "2015-10-24 07:37:56 +0000";
layers = (
{
layerId = "476303D8-9A2F-423D-8E21-2B4181C6C8D8";
name = SemiBold;
paths = (
{
closed = 1;
nodes = (
"212 0 LINE",
"212 644 LINE",
"51 644 LINE",
"51 0 LINE"
);
},
{
closed = 1;
nodes = (
"260 705 OFFCURVE",
"293 719 OFFCURVE",
"306 737 CURVE",
"306 845 LINE",
"289 821 OFFCURVE",
"259 806 OFFCURVE",
"219 806 CURVE SMOOTH",
"160 806 OFFCURVE",
"112 847 OFFCURVE",
"48 847 CURVE SMOOTH",
"11 847 OFFCURVE",
"-24 833 OFFCURVE",
"-43 815 CURVE",
"-43 708 LINE",
"-19 732 OFFCURVE",
"12 746 OFFCURVE",
"51 746 CURVE SMOOTH",
"103 746 OFFCURVE",
"160 705 OFFCURVE",
"222 705 CURVE SMOOTH"
);
}
);
width = 264;
}
);
note = Itilde;
unicode = 0128;
},
{
glyphname = J;
lastChange = "2015-10-24 07:37:54 +0000";
layers = (
{
layerId = "476303D8-9A2F-423D-8E21-2B4181C6C8D8";
name = SemiBold;
paths = (
{
closed = 1;
nodes = (
"314 -10 OFFCURVE",
"395 64 OFFCURVE",
"395 199 CURVE SMOOTH",
"395 644 LINE",
"234 644 LINE",
"234 229 LINE SMOOTH",
"234 156 OFFCURVE",
"204 127 OFFCURVE",
"126 127 CURVE SMOOTH",
"85 127 OFFCURVE",
"43 134 OFFCURVE",
"11 148 CURVE",
"11 13 LINE",
"54 -3 OFFCURVE",
"104 -10 OFFCURVE",
"159 -10 CURVE SMOOTH"
);
}
);
width = 441;
}
);
note = J;
unicode = 004A;
},
{
glyphname = Jcircumflex;
lastChange = "2015-10-24 07:37:55 +0000";
layers = (
{
layerId = "476303D8-9A2F-423D-8E21-2B4181C6C8D8";
name = SemiBold;
paths = (
{
closed = 1;
nodes = (
"314 -10 OFFCURVE",
"395 64 OFFCURVE",
"395 199 CURVE SMOOTH",
"395 644 LINE",
"234 644 LINE",
"234 229 LINE SMOOTH",
"234 156 OFFCURVE",
"204 127 OFFCURVE",
"126 127 CURVE SMOOTH",
"85 127 OFFCURVE",
"43 134 OFFCURVE",
"11 148 CURVE",
"11 13 LINE",
"54 -3 OFFCURVE",
"104 -10 OFFCURVE",
"159 -10 CURVE SMOOTH"
);
},
{
closed = 1;
nodes = (
"237 687 LINE",
"309 791 LINE",
"384 687 LINE",
"504 687 LINE",
"359 874 LINE",
"259 874 LINE",
"114 687 LINE"
);
}
);
width = 441;
}
);
note = Jcircumflex;
unicode = 0134;
},
{
glyphname = K;
lastChange = "2015-10-24 07:37:55 +0000";
layers = (
{
layerId = "476303D8-9A2F-423D-8E21-2B4181C6C8D8";
name = SemiBold;
paths = (
{
closed = 1;
nodes = (
"212 0 LINE",
"212 195 LINE",
"288 278 LINE",
"460 0 LINE",
"632 0 LINE",
"388 381 LINE",
"618 644 LINE",
"434 644 LINE",
"212 394 LINE",
"212 644 LINE",
"51 644 LINE",
"51 0 LINE"
);
}
);
width = 663;
}
);
leftKerningGroup = K;
note = K;
rightKerningGroup = K;
unicode = 004B;
},
{
glyphname = Kcommaaccent;
lastChange = "2015-10-24 07:37:55 +0000";
layers = (
{
layerId = "476303D8-9A2F-423D-8E21-2B4181C6C8D8";
name = SemiBold;
paths = (
{
closed = 1;
nodes = (
"212 0 LINE",
"212 195 LINE",
"288 278 LINE",
"460 0 LINE",
"632 0 LINE",
"388 381 LINE",
"618 644 LINE",
"434 644 LINE",
"212 394 LINE",
"212 644 LINE",
"51 644 LINE",
"51 0 LINE"
);
},
{
closed = 1;
nodes = (
"348 -250 LINE",
"401 -37 LINE",
"272 -37 LINE",
"239 -250 LINE"
);
}
);
width = 663;
}
);
leftKerningGroup = K;
note = Kcommaaccent;
rightKerningGroup = K;
unicode = 0136;
},
{
glyphname = L;
lastChange = "2015-10-24 07:37:55 +0000";
layers = (
{
layerId = "476303D8-9A2F-423D-8E21-2B4181C6C8D8";
name = SemiBold;
paths = (
{
closed = 1;
nodes = (
"516 0 LINE",
"516 124 LINE",
"212 124 LINE",
"212 644 LINE",
"51 644 LINE",
"51 0 LINE"
);
}
);
width = 527;
}
);
note = L;
rightKerningGroup = L;
unicode = 004C;
},
{
glyphname = Lacute;
lastChange = "2015-10-24 07:37:55 +0000";
layers = (
{
layerId = "476303D8-9A2F-423D-8E21-2B4181C6C8D8";
name = SemiBold;
paths = (
{
closed = 1;
nodes = (
"516 0 LINE",
"516 124 LINE",
"212 124 LINE",
"212 644 LINE",
"51 644 LINE",
"51 0 LINE"
);
},
{
closed = 1;
nodes = (
"192 688 LINE",
"284 884 LINE",
"152 884 LINE",
"68 688 LINE"
);
}
);
width = 527;
}
);
note = Lacute;
rightKerningGroup = L;
unicode = 0139;
},
{
glyphname = Lcaron;
lastChange = "2015-10-24 07:37:55 +0000";
layers = (
{
layerId = "476303D8-9A2F-423D-8E21-2B4181C6C8D8";
name = SemiBold;
paths = (
{
closed = 1;
nodes = (
"516 0 LINE",
"516 124 LINE",
"212 124 LINE",
"212 644 LINE",
"51 644 LINE",
"51 0 LINE"
);
},
{
closed = 1;
nodes = (
"415 595 LINE",
"468 808 LINE",
"339 808 LINE",
"306 595 LINE"
);
}
);
width = 527;
}
);
note = Lcaron;
rightKerningGroup = L;
unicode = 013D;
},
{
glyphname = Lcommaaccent;
lastChange = "2015-10-24 07:37:55 +0000";
layers = (
{
layerId = "476303D8-9A2F-423D-8E21-2B4181C6C8D8";
name = SemiBold;
paths = (
{
closed = 1;
nodes = (
"516 0 LINE",
"516 124 LINE",
"212 124 LINE",
"212 644 LINE",
"51 644 LINE",
"51 0 LINE"
);
},
{
closed = 1;
nodes = (
"311 -250 LINE",
"364 -37 LINE",
"235 -37 LINE",
"202 -250 LINE"
);
}
);
width = 527;
}
);
note = Lcommaaccent;
rightKerningGroup = L;
unicode = 013B;
},
{
glyphname = Ldot;
lastChange = "2015-10-24 07:37:55 +0000";
layers = (
{
layerId = "476303D8-9A2F-423D-8E21-2B4181C6C8D8";
name = SemiBold;
paths = (
{
closed = 1;
nodes = (
"516 0 LINE",
"516 124 LINE",
"212 124 LINE",
"212 644 LINE",
"51 644 LINE",
"51 0 LINE"
);
},
{
closed = 1;
nodes = (
"454 284 LINE",
"454 393 LINE",
"336 393 LINE",
"336 284 LINE"
);
}
);
width = 527;
}
);
note = Ldot;
rightKerningGroup = L;
unicode = 013F;
},
{
glyphname = Ldotbelow;
lastChange = "2015-10-24 07:37:55 +0000";
layers = (
{
layerId = "476303D8-9A2F-423D-8E21-2B4181C6C8D8";
name = SemiBold;
paths = (
{
closed = 1;
nodes = (
"516 0 LINE",
"516 124 LINE",
"212 124 LINE",
"212 644 LINE",
"51 644 LINE",
"51 0 LINE"
);
},
{
closed = 1;
nodes = (
"335 -179 LINE",
"335 -70 LINE",
"217 -70 LINE",
"217 -179 LINE"
);
}
);
width = 527;
}
);
note = Ldotbelow;
rightKerningGroup = L;
unicode = 1E36;
},
{
glyphname = Ldotbelowmacron;
lastChange = "2015-11-25 10:07:17 +0000";
layers = (
{
layerId = "476303D8-9A2F-423D-8E21-2B4181C6C8D8";
name = SemiBold;
paths = (
{
closed = 1;
nodes = (
"516 0 LINE",
"516 124 LINE",
"212 124 LINE",
"212 644 LINE",
"51 644 LINE",
"51 0 LINE"
);
},
{
closed = 1;
nodes = (
"335 -179 LINE",
"335 -70 LINE",
"217 -70 LINE",
"217 -179 LINE"
);
},
{
closed = 1;
nodes = (
"308 717 LINE",
"308 814 LINE",
"-10 814 LINE",
"-10 717 LINE"
);
}
);
width = 527;
}
);
note = Ldotbelowmacron;
rightKerningGroup = L;
unicode = 1E38;
},
{
glyphname = Llinebelow;
lastChange = "2015-10-24 07:37:54 +0000";
layers = (
{
layerId = "476303D8-9A2F-423D-8E21-2B4181C6C8D8";
name = SemiBold;
paths = (
{
closed = 1;
nodes = (
"516 0 LINE",
"516 124 LINE",
"212 124 LINE",
"212 644 LINE",
"51 644 LINE",
"51 0 LINE"
);
},
{
closed = 1;
nodes = (
"438 -168 LINE",
"438 -70 LINE",
"120 -70 LINE",
"120 -168 LINE"
);
}
);
width = 527;
}
);
note = Llinebelow;
rightKerningGroup = L;
unicode = 1E3A;
},
{
glyphname = Lslash;
lastChange = "2015-10-24 07:37:55 +0000";
layers = (
{
layerId = "476303D8-9A2F-423D-8E21-2B4181C6C8D8";
name = SemiBold;
paths = (
{
closed = 1;
nodes = (
"516 0 LINE",
"516 124 LINE",
"212 124 LINE",
"212 319 LINE",
"318 366 LINE",
"318 481 LINE",
"212 434 LINE",
"212 644 LINE",
"51 644 LINE",
"51 364 LINE",
"-27 330 LINE",
"-27 215 LINE",
"51 249 LINE",
"51 0 LINE"
);
}
);
width = 527;
}
);
note = Lslash;
rightKerningGroup = L;
unicode = 0141;
},
{
glyphname = M;
lastChange = "2015-10-24 07:37:55 +0000";
layers = (
{
layerId = "476303D8-9A2F-423D-8E21-2B4181C6C8D8";
name = SemiBold;
paths = (
{
closed = 1;
nodes = (
"212 0 LINE",
"212 370 LINE",
"340 110 LINE",
"429 110 LINE",
"556 370 LINE",
"556 0 LINE",
"717 0 LINE",
"717 644 LINE",
"559 644 LINE",
"385 287 LINE",
"210 644 LINE",
"51 644 LINE",
"51 0 LINE"
);
}
);
width = 768;
}
);
note = M;
unicode = 004D;
},
{
glyphname = Mdotbelow;
lastChange = "2015-10-24 07:37:55 +0000";
layers = (
{
layerId = "476303D8-9A2F-423D-8E21-2B4181C6C8D8";
name = SemiBold;
paths = (
{
closed = 1;
nodes = (
"212 0 LINE",
"212 370 LINE",
"340 110 LINE",
"429 110 LINE",
"556 370 LINE",
"556 0 LINE",
"717 0 LINE",
"717 644 LINE",
"559 644 LINE",
"385 287 LINE",
"210 644 LINE",
"51 644 LINE",
"51 0 LINE"
);
},
{
closed = 1;
nodes = (
"450 -179 LINE",
"450 -70 LINE",
"332 -70 LINE",
"332 -179 LINE"
);
}
);
width = 768;
}
);
note = Mdotbelow;
unicode = 1E42;
},
{
glyphname = N;
lastChange = "2015-10-24 07:37:55 +0000";
layers = (
{
layerId = "476303D8-9A2F-423D-8E21-2B4181C6C8D8";
name = SemiBold;
paths = (
{
closed = 1;
nodes = (
"212 0 LINE",
"212 384 LINE",
"486 0 LINE",
"625 0 LINE",
"625 644 LINE",
"463 644 LINE",
"463 259 LINE",
"189 644 LINE",
"51 644 LINE",
"51 0 LINE"
);
}
);
width = 676;
}
);
note = N;
unicode = 004E;
},
{
glyphname = Nacute;
lastChange = "2015-10-24 07:37:55 +0000";
layers = (
{
layerId = "476303D8-9A2F-423D-8E21-2B4181C6C8D8";
name = SemiBold;
paths = (
{
closed = 1;
nodes = (
"212 0 LINE",
"212 384 LINE",
"486 0 LINE",
"625 0 LINE",
"625 644 LINE",
"463 644 LINE",
"463 259 LINE",
"189 644 LINE",
"51 644 LINE",
"51 0 LINE"
);
},
{
closed = 1;
nodes = (
"383 688 LINE",
"475 884 LINE",
"343 884 LINE",
"259 688 LINE"
);
}
);
width = 676;
}
);
note = Nacute;
unicode = 0143;
},
{
glyphname = Ncaron;
lastChange = "2015-10-24 07:37:56 +0000";
layers = (
{
layerId = "476303D8-9A2F-423D-8E21-2B4181C6C8D8";
name = SemiBold;
paths = (
{
closed = 1;
nodes = (
"212 0 LINE",
"212 384 LINE",
"486 0 LINE",
"625 0 LINE",
"625 644 LINE",
"463 644 LINE",
"463 259 LINE",
"189 644 LINE",
"51 644 LINE",
"51 0 LINE"
);
},
{
closed = 1;
nodes = (
"388 687 LINE",
"533 874 LINE",
"413 874 LINE",
"338 770 LINE",
"266 874 LINE",
"143 874 LINE",
"288 687 LINE"
);
}
);
width = 676;
}
);
note = Ncaron;
unicode = 0147;
},
{
glyphname = Ncommaaccent;
lastChange = "2015-10-24 07:37:55 +0000";
layers = (
{
layerId = "476303D8-9A2F-423D-8E21-2B4181C6C8D8";
name = SemiBold;
paths = (
{
closed = 1;
nodes = (
"212 0 LINE",
"212 384 LINE",
"486 0 LINE",
"625 0 LINE",
"625 644 LINE",
"463 644 LINE",
"463 259 LINE",
"189 644 LINE",
"51 644 LINE",
"51 0 LINE"
);
},
{
closed = 1;
nodes = (
"359 -250 LINE",
"412 -37 LINE",
"283 -37 LINE",
"250 -250 LINE"
);
}
);
width = 676;
}
);
note = Ncommaaccent;
unicode = 0145;
},
{
glyphname = Ndotaccent;
lastChange = "2015-10-24 07:37:55 +0000";
layers = (
{
layerId = "476303D8-9A2F-423D-8E21-2B4181C6C8D8";
name = SemiBold;
paths = (
{
closed = 1;
nodes = (
"212 0 LINE",
"212 384 LINE",
"486 0 LINE",
"625 0 LINE",
"625 644 LINE",
"463 644 LINE",
"463 259 LINE",
"189 644 LINE",
"51 644 LINE",
"51 0 LINE"
);
},
{
closed = 1;
nodes = (
"399 714 LINE",
"399 823 LINE",
"282 823 LINE",
"282 714 LINE"
);
}
);
width = 676;
}
);
note = Ndotaccent;
unicode = 1E44;
},
{
glyphname = Ndotbelow;
lastChange = "2015-10-24 07:37:55 +0000";
layers = (
{
layerId = "476303D8-9A2F-423D-8E21-2B4181C6C8D8";
name = SemiBold;
paths = (
{
closed = 1;
nodes = (
"212 0 LINE",
"212 384 LINE",
"486 0 LINE",
"625 0 LINE",
"625 644 LINE",
"463 644 LINE",
"463 259 LINE",
"189 644 LINE",
"51 644 LINE",
"51 0 LINE"
);
},
{
closed = 1;
nodes = (
"398 -179 LINE",
"398 -70 LINE",
"280 -70 LINE",
"280 -179 LINE"
);
}
);
width = 676;
}
);
note = Ndotbelow;
unicode = 1E46;
},
{
glyphname = Eng;
lastChange = "2015-10-24 07:37:55 +0000";
layers = (
{
layerId = "476303D8-9A2F-423D-8E21-2B4181C6C8D8";
name = SemiBold;
paths = (
{
closed = 1;
nodes = (
"570 -234 OFFCURVE",
"625 -167 OFFCURVE",
"625 -69 CURVE SMOOTH",
"625 644 LINE",
"463 644 LINE",
"463 259 LINE",
"189 644 LINE",
"51 644 LINE",
"51 0 LINE",
"212 0 LINE",
"212 384 LINE",
"463 32 LINE",
"463 -55 LINE SMOOTH",
"463 -97 OFFCURVE",
"442 -117 OFFCURVE",
"393 -117 CURVE SMOOTH",
"375 -117 OFFCURVE",
"354 -114 OFFCURVE",
"333 -107 CURVE",
"333 -214 LINE",
"366 -228 OFFCURVE",
"404 -234 OFFCURVE",
"451 -234 CURVE SMOOTH"
);
}
);
width = 676;
}
);
note = Eng;
unicode = 014A;
},
{
glyphname = Nlinebelow;
lastChange = "2015-10-24 07:37:55 +0000";
layers = (
{
layerId = "476303D8-9A2F-423D-8E21-2B4181C6C8D8";
name = SemiBold;
paths = (
{
closed = 1;
nodes = (
"212 0 LINE",
"212 384 LINE",
"486 0 LINE",
"625 0 LINE",
"625 644 LINE",
"463 644 LINE",
"463 259 LINE",
"189 644 LINE",
"51 644 LINE",
"51 0 LINE"
);
},
{
closed = 1;
nodes = (
"501 -166 LINE",
"501 -68 LINE",
"183 -68 LINE",
"183 -166 LINE"
);
}
);
width = 676;
}
);
note = Nlinebelow;
unicode = 1E48;
},
{
glyphname = Ntilde;
lastChange = "2015-10-24 07:37:55 +0000";
layers = (
{
layerId = "476303D8-9A2F-423D-8E21-2B4181C6C8D8";
name = SemiBold;
paths = (
{
closed = 1;
nodes = (
"212 0 LINE",
"212 384 LINE",
"486 0 LINE",
"625 0 LINE",
"625 644 LINE",
"463 644 LINE",
"463 259 LINE",
"189 644 LINE",
"51 644 LINE",
"51 0 LINE"
);
},
{
closed = 1;
nodes = (
"475 698 OFFCURVE",
"508 712 OFFCURVE",
"521 730 CURVE",
"521 838 LINE",
"504 814 OFFCURVE",
"474 799 OFFCURVE",
"434 799 CURVE SMOOTH",
"375 799 OFFCURVE",
"327 840 OFFCURVE",
"263 840 CURVE SMOOTH",
"226 840 OFFCURVE",
"191 826 OFFCURVE",
"172 808 CURVE",
"172 701 LINE",
"196 725 OFFCURVE",
"227 739 OFFCURVE",
"266 739 CURVE SMOOTH",
"318 739 OFFCURVE",
"375 698 OFFCURVE",
"437 698 CURVE SMOOTH"
);
}
);
width = 676;
}
);
note = Ntilde;
unicode = 00D1;
},
{
glyphname = O;
lastChange = "2015-10-24 07:37:56 +0000";
layers = (
{
layerId = "476303D8-9A2F-423D-8E21-2B4181C6C8D8";
name = SemiBold;
paths = (
{
closed = 1;
nodes = (
"561 -10 OFFCURVE",
"673 93 OFFCURVE",
"673 319 CURVE SMOOTH",
"673 557 OFFCURVE",
"561 654 OFFCURVE",
"352 654 CURVE SMOOTH",
"142 654 OFFCURVE",
"31 557 OFFCURVE",
"31 319 CURVE SMOOTH",
"31 93 OFFCURVE",
"142 -10 OFFCURVE",
"352 -10 CURVE SMOOTH"
);
},
{
closed = 1;
nodes = (
"243 127 OFFCURVE",
"195 187 OFFCURVE",
"195 319 CURVE SMOOTH",
"195 463 OFFCURVE",
"243 516 OFFCURVE",
"352 516 CURVE SMOOTH",
"460 516 OFFCURVE",
"508 463 OFFCURVE",
"508 319 CURVE SMOOTH",
"508 187 OFFCURVE",
"460 127 OFFCURVE",
"352 127 CURVE SMOOTH"
);
}
);
width = 704;
}
);
leftKerningGroup = O;
note = O;
rightKerningGroup = O;
unicode = 004F;
},
{
glyphname = Oacute;
lastChange = "2015-10-24 07:37:55 +0000";
layers = (
{
layerId = "476303D8-9A2F-423D-8E21-2B4181C6C8D8";
name = SemiBold;
paths = (
{
closed = 1;
nodes = (
"561 -10 OFFCURVE",
"673 93 OFFCURVE",
"673 319 CURVE SMOOTH",
"673 557 OFFCURVE",
"561 654 OFFCURVE",
"352 654 CURVE SMOOTH",
"142 654 OFFCURVE",
"31 557 OFFCURVE",
"31 319 CURVE SMOOTH",
"31 93 OFFCURVE",
"142 -10 OFFCURVE",
"352 -10 CURVE SMOOTH"
);
},
{
closed = 1;
nodes = (
"243 127 OFFCURVE",
"195 187 OFFCURVE",
"195 319 CURVE SMOOTH",
"195 463 OFFCURVE",
"243 516 OFFCURVE",
"352 516 CURVE SMOOTH",
"460 516 OFFCURVE",
"508 463 OFFCURVE",
"508 319 CURVE SMOOTH",
"508 187 OFFCURVE",
"460 127 OFFCURVE",
"352 127 CURVE SMOOTH"
);
},
{
closed = 1;
nodes = (
"403 688 LINE",
"495 884 LINE",
"363 884 LINE",
"279 688 LINE"
);
}
);
width = 704;
}
);
leftKerningGroup = O;
note = Oacute;
rightKerningGroup = O;
unicode = 00D3;
},
{
glyphname = Obreve;
lastChange = "2015-10-24 07:37:55 +0000";
layers = (
{
layerId = "476303D8-9A2F-423D-8E21-2B4181C6C8D8";
name = SemiBold;
paths = (
{
closed = 1;
nodes = (
"561 -10 OFFCURVE",
"673 93 OFFCURVE",
"673 319 CURVE SMOOTH",
"673 557 OFFCURVE",
"561 654 OFFCURVE",
"352 654 CURVE SMOOTH",
"142 654 OFFCURVE",
"31 557 OFFCURVE",
"31 319 CURVE SMOOTH",
"31 93 OFFCURVE",
"142 -10 OFFCURVE",
"352 -10 CURVE SMOOTH"
);
},
{
closed = 1;
nodes = (
"243 127 OFFCURVE",
"195 187 OFFCURVE",
"195 319 CURVE SMOOTH",
"195 463 OFFCURVE",
"243 516 OFFCURVE",
"352 516 CURVE SMOOTH",
"460 516 OFFCURVE",
"508 463 OFFCURVE",
"508 319 CURVE SMOOTH",
"508 187 OFFCURVE",
"460 127 OFFCURVE",
"352 127 CURVE SMOOTH"
);
},
{
closed = 1;
nodes = (
"455 688 OFFCURVE",
"526 750 OFFCURVE",
"526 860 CURVE",
"420 860 LINE",
"420 814 OFFCURVE",
"400 778 OFFCURVE",
"351 778 CURVE SMOOTH",
"303 778 OFFCURVE",
"284 814 OFFCURVE",
"284 860 CURVE",
"178 860 LINE",
"178 750 OFFCURVE",
"248 688 OFFCURVE",
"351 688 CURVE SMOOTH"
);
}
);
width = 704;
}
);
leftKerningGroup = O;
note = Obreve;
rightKerningGroup = O;
unicode = 014E;
},
{
glyphname = Ocaron;
lastChange = "2015-10-24 07:37:55 +0000";
layers = (
{
layerId = "476303D8-9A2F-423D-8E21-2B4181C6C8D8";
name = SemiBold;
paths = (
{
closed = 1;
nodes = (
"561 -10 OFFCURVE",
"673 93 OFFCURVE",
"673 319 CURVE SMOOTH",
"673 557 OFFCURVE",
"561 654 OFFCURVE",
"352 654 CURVE SMOOTH",
"142 654 OFFCURVE",
"31 557 OFFCURVE",
"31 319 CURVE SMOOTH",
"31 93 OFFCURVE",
"142 -10 OFFCURVE",
"352 -10 CURVE SMOOTH"
);
},
{
closed = 1;
nodes = (
"243 127 OFFCURVE",
"195 187 OFFCURVE",
"195 319 CURVE SMOOTH",
"195 463 OFFCURVE",
"243 516 OFFCURVE",
"352 516 CURVE SMOOTH",
"460 516 OFFCURVE",
"508 463 OFFCURVE",
"508 319 CURVE SMOOTH",
"508 187 OFFCURVE",
"460 127 OFFCURVE",
"352 127 CURVE SMOOTH"
);
},
{
closed = 1;
nodes = (
"401 688 LINE",
"546 875 LINE",
"426 875 LINE",
"351 771 LINE",
"279 875 LINE",
"156 875 LINE",
"301 688 LINE"
);
}
);
width = 704;
}
);
leftKerningGroup = O;
note = Ocaron;
rightKerningGroup = O;
unicode = 01D1;
},
{
glyphname = Ocircumflex;
lastChange = "2015-10-24 07:37:55 +0000";
layers = (
{
layerId = "476303D8-9A2F-423D-8E21-2B4181C6C8D8";
name = SemiBold;
paths = (
{
closed = 1;
nodes = (
"561 -10 OFFCURVE",
"673 93 OFFCURVE",
"673 319 CURVE SMOOTH",
"673 557 OFFCURVE",
"561 654 OFFCURVE",
"352 654 CURVE SMOOTH",
"142 654 OFFCURVE",
"31 557 OFFCURVE",
"31 319 CURVE SMOOTH",
"31 93 OFFCURVE",
"142 -10 OFFCURVE",
"352 -10 CURVE SMOOTH"
);
},
{
closed = 1;
nodes = (
"243 127 OFFCURVE",
"195 187 OFFCURVE",
"195 319 CURVE SMOOTH",
"195 463 OFFCURVE",
"243 516 OFFCURVE",
"352 516 CURVE SMOOTH",
"460 516 OFFCURVE",
"508 463 OFFCURVE",
"508 319 CURVE SMOOTH",
"508 187 OFFCURVE",
"460 127 OFFCURVE",
"352 127 CURVE SMOOTH"
);
},
{
closed = 1;
nodes = (
"280 687 LINE",
"352 791 LINE",
"427 687 LINE",
"547 687 LINE",
"402 874 LINE",
"302 874 LINE",
"157 687 LINE"
);
}
);
width = 704;
}
);
leftKerningGroup = O;
note = Ocircumflex;
rightKerningGroup = O;
unicode = 00D4;
},
{
glyphname = Ocircumflexacute;
lastChange = "2015-10-24 07:37:55 +0000";
layers = (
{
layerId = "476303D8-9A2F-423D-8E21-2B4181C6C8D8";
name = SemiBold;
paths = (
{
closed = 1;
nodes = (
"561 -10 OFFCURVE",
"673 93 OFFCURVE",
"673 319 CURVE SMOOTH",
"673 557 OFFCURVE",
"561 654 OFFCURVE",
"352 654 CURVE SMOOTH",
"142 654 OFFCURVE",
"31 557 OFFCURVE",
"31 319 CURVE SMOOTH",
"31 93 OFFCURVE",
"142 -10 OFFCURVE",
"352 -10 CURVE SMOOTH"
);
},
{
closed = 1;
nodes = (
"243 127 OFFCURVE",
"195 187 OFFCURVE",
"195 319 CURVE SMOOTH",
"195 463 OFFCURVE",
"243 516 OFFCURVE",
"352 516 CURVE SMOOTH",
"460 516 OFFCURVE",
"508 463 OFFCURVE",
"508 319 CURVE SMOOTH",
"508 187 OFFCURVE",
"460 127 OFFCURVE",
"352 127 CURVE SMOOTH"
);
},
{
closed = 1;
nodes = (
"286 688 LINE",
"351 768 LINE",
"416 688 LINE",
"545 688 LINE",
"411 832 LINE",
"290 832 LINE",
"156 688 LINE"
);
},
{
closed = 1;
nodes = (
"576 809 LINE",
"651 958 LINE",
"531 958 LINE",
"462 809 LINE"
);
}
);
width = 704;
}
);
leftKerningGroup = O;
note = Ocircumflexacute;
rightKerningGroup = O;
unicode = 1ED0;
},
{
glyphname = Ocircumflexdotbelow;
lastChange = "2015-11-25 10:07:35 +0000";
layers = (
{
layerId = "476303D8-9A2F-423D-8E21-2B4181C6C8D8";
name = SemiBold;
paths = (
{
closed = 1;
nodes = (
"561 -10 OFFCURVE",
"673 93 OFFCURVE",
"673 319 CURVE SMOOTH",
"673 557 OFFCURVE",
"561 654 OFFCURVE",
"352 654 CURVE SMOOTH",
"142 654 OFFCURVE",
"31 557 OFFCURVE",
"31 319 CURVE SMOOTH",
"31 93 OFFCURVE",
"142 -10 OFFCURVE",
"352 -10 CURVE SMOOTH"
);
},
{
closed = 1;
nodes = (
"243 127 OFFCURVE",
"195 187 OFFCURVE",
"195 319 CURVE SMOOTH",
"195 463 OFFCURVE",
"243 516 OFFCURVE",
"352 516 CURVE SMOOTH",
"460 516 OFFCURVE",
"508 463 OFFCURVE",
"508 319 CURVE SMOOTH",
"508 187 OFFCURVE",
"460 127 OFFCURVE",
"352 127 CURVE SMOOTH"
);
},
{
closed = 1;
nodes = (
"410 -179 LINE",
"410 -70 LINE",
"292 -70 LINE",
"292 -179 LINE"
);
},
{
closed = 1;
nodes = (
"279 689 LINE",
"351 793 LINE",
"426 689 LINE",
"546 689 LINE",
"401 876 LINE",
"301 876 LINE",
"156 689 LINE"
);
}
);
width = 704;
}
);
leftKerningGroup = O;
note = Ocircumflexdotbelow;
rightKerningGroup = O;
unicode = 1ED8;
},
{
glyphname = Ocircumflexgrave;
lastChange = "2015-10-24 07:37:54 +0000";
layers = (
{
layerId = "476303D8-9A2F-423D-8E21-2B4181C6C8D8";
name = SemiBold;
paths = (
{
closed = 1;
nodes = (
"561 -10 OFFCURVE",
"673 93 OFFCURVE",
"673 319 CURVE SMOOTH",
"673 557 OFFCURVE",
"561 654 OFFCURVE",
"352 654 CURVE SMOOTH",
"142 654 OFFCURVE",
"31 557 OFFCURVE",
"31 319 CURVE SMOOTH",
"31 93 OFFCURVE",
"142 -10 OFFCURVE",
"352 -10 CURVE SMOOTH"
);
},
{
closed = 1;
nodes = (
"243 127 OFFCURVE",
"195 187 OFFCURVE",
"195 319 CURVE SMOOTH",
"195 463 OFFCURVE",
"243 516 OFFCURVE",
"352 516 CURVE SMOOTH",
"460 516 OFFCURVE",
"508 463 OFFCURVE",
"508 319 CURVE SMOOTH",
"508 187 OFFCURVE",
"460 127 OFFCURVE",
"352 127 CURVE SMOOTH"
);
},
{
closed = 1;
nodes = (
"240 809 LINE",
"171 958 LINE",
"51 958 LINE",
"126 809 LINE"
);
},
{
closed = 1;
nodes = (
"286 688 LINE",
"351 768 LINE",
"416 688 LINE",
"546 688 LINE",
"412 832 LINE",
"291 832 LINE",
"157 688 LINE"
);
}
);
width = 704;
}
);
leftKerningGroup = O;
note = Ocircumflexgrave;
rightKerningGroup = O;
unicode = 1ED2;
},
{
glyphname = Ocircumflexhookabove;
lastChange = "2015-10-24 07:37:56 +0000";
layers = (
{
layerId = "476303D8-9A2F-423D-8E21-2B4181C6C8D8";
name = SemiBold;
paths = (
{
closed = 1;
nodes = (
"561 -10 OFFCURVE",
"673 93 OFFCURVE",
"673 319 CURVE SMOOTH",
"673 557 OFFCURVE",
"561 654 OFFCURVE",
"352 654 CURVE SMOOTH",
"142 654 OFFCURVE",
"31 557 OFFCURVE",
"31 319 CURVE SMOOTH",
"31 93 OFFCURVE",
"142 -10 OFFCURVE",
"352 -10 CURVE SMOOTH"
);
},
{
closed = 1;
nodes = (
"243 127 OFFCURVE",
"195 187 OFFCURVE",
"195 319 CURVE SMOOTH",
"195 463 OFFCURVE",
"243 516 OFFCURVE",
"352 516 CURVE SMOOTH",
"460 516 OFFCURVE",
"508 463 OFFCURVE",
"508 319 CURVE SMOOTH",
"508 187 OFFCURVE",
"460 127 OFFCURVE",
"352 127 CURVE SMOOTH"
);
},
{
closed = 1;
nodes = (
"286 688 LINE",
"351 768 LINE",
"416 688 LINE",
"545 688 LINE",
"411 832 LINE",
"290 832 LINE",
"156 688 LINE"
);
},
{
closed = 1;
nodes = (
"581 787 LINE",
"581 820 LINE",
"632 828 OFFCURVE",
"655 857 OFFCURVE",
"655 902 CURVE SMOOTH",
"655 952 OFFCURVE",
"616 985 OFFCURVE",
"540 985 CURVE SMOOTH",
"502 985 OFFCURVE",
"472 980 OFFCURVE",
"449 973 CURVE",
"449 906 LINE",
"464 912 OFFCURVE",
"482 916 OFFCURVE",
"502 916 CURVE SMOOTH",
"530 916 OFFCURVE",
"545 909 OFFCURVE",
"545 891 CURVE SMOOTH",
"545 872 OFFCURVE",
"532 860 OFFCURVE",
"472 858 CURVE",
"472 787 LINE"
);
}
);
width = 704;
}
);
leftKerningGroup = O;
note = Ocircumflexhookabove;
rightKerningGroup = O;
unicode = 1ED4;
},
{
glyphname = Ocircumflextilde;
lastChange = "2015-10-24 07:37:54 +0000";
layers = (
{
layerId = "476303D8-9A2F-423D-8E21-2B4181C6C8D8";
name = SemiBold;
paths = (
{
closed = 1;
nodes = (
"561 -10 OFFCURVE",
"673 93 OFFCURVE",
"673 319 CURVE SMOOTH",
"673 557 OFFCURVE",
"561 654 OFFCURVE",
"352 654 CURVE SMOOTH",
"142 654 OFFCURVE",
"31 557 OFFCURVE",
"31 319 CURVE SMOOTH",
"31 93 OFFCURVE",
"142 -10 OFFCURVE",
"352 -10 CURVE SMOOTH"
);
},
{
closed = 1;
nodes = (
"243 127 OFFCURVE",
"195 187 OFFCURVE",
"195 319 CURVE SMOOTH",
"195 463 OFFCURVE",
"243 516 OFFCURVE",
"352 516 CURVE SMOOTH",
"460 516 OFFCURVE",
"508 463 OFFCURVE",
"508 319 CURVE SMOOTH",
"508 187 OFFCURVE",
"460 127 OFFCURVE",
"352 127 CURVE SMOOTH"
);
},
{
closed = 1;
nodes = (
"451 688 OFFCURVE",
"524 736 OFFCURVE",
"524 852 CURVE",
"432 852 LINE",
"432 800 OFFCURVE",
"403 769 OFFCURVE",
"351 769 CURVE SMOOTH",
"299 769 OFFCURVE",
"271 800 OFFCURVE",
"271 852 CURVE",
"178 852 LINE",
"178 736 OFFCURVE",
"251 688 OFFCURVE",
"351 688 CURVE SMOOTH"
);
},
{
closed = 1;
nodes = (
"479 870 OFFCURVE",
"511 884 OFFCURVE",
"524 902 CURVE",
"524 994 LINE",
"507 970 OFFCURVE",
"477 955 OFFCURVE",
"438 955 CURVE SMOOTH",
"380 955 OFFCURVE",
"332 996 OFFCURVE",
"269 996 CURVE SMOOTH",
"233 996 OFFCURVE",
"198 982 OFFCURVE",
"180 964 CURVE",
"180 873 LINE",
"203 897 OFFCURVE",
"233 910 OFFCURVE",
"272 910 CURVE SMOOTH",
"324 910 OFFCURVE",
"380 870 OFFCURVE",
"441 870 CURVE SMOOTH"
);
}
);
width = 704;
}
);
leftKerningGroup = O;
note = Ocircumflextilde;
rightKerningGroup = O;
unicode = 1ED6;
},
{
glyphname = Odieresis;
lastChange = "2015-10-24 07:37:55 +0000";
layers = (
{
layerId = "476303D8-9A2F-423D-8E21-2B4181C6C8D8";
name = SemiBold;
paths = (
{
closed = 1;
nodes = (
"561 -10 OFFCURVE",
"673 93 OFFCURVE",
"673 319 CURVE SMOOTH",
"673 557 OFFCURVE",
"561 654 OFFCURVE",
"352 654 CURVE SMOOTH",
"142 654 OFFCURVE",
"31 557 OFFCURVE",
"31 319 CURVE SMOOTH",
"31 93 OFFCURVE",
"142 -10 OFFCURVE",
"352 -10 CURVE SMOOTH"
);
},
{
closed = 1;
nodes = (
"243 127 OFFCURVE",
"195 187 OFFCURVE",
"195 319 CURVE SMOOTH",
"195 463 OFFCURVE",
"243 516 OFFCURVE",
"352 516 CURVE SMOOTH",
"460 516 OFFCURVE",
"508 463 OFFCURVE",
"508 319 CURVE SMOOTH",
"508 187 OFFCURVE",
"460 127 OFFCURVE",
"352 127 CURVE SMOOTH"
);
},
{
closed = 1;
nodes = (
"308 714 LINE",
"308 823 LINE",
"190 823 LINE",
"190 714 LINE"
);
},
{
closed = 1;
nodes = (
"514 714 LINE",
"514 823 LINE",
"396 823 LINE",
"396 714 LINE"
);
}
);
width = 704;
}
);
leftKerningGroup = O;
note = Odieresis;
rightKerningGroup = O;
unicode = 00D6;
},
{
glyphname = Odotbelow;
lastChange = "2015-11-25 10:07:40 +0000";
layers = (
{
layerId = "476303D8-9A2F-423D-8E21-2B4181C6C8D8";
name = SemiBold;
paths = (
{
closed = 1;
nodes = (
"561 -10 OFFCURVE",
"673 93 OFFCURVE",
"673 319 CURVE SMOOTH",
"673 557 OFFCURVE",
"561 654 OFFCURVE",
"352 654 CURVE SMOOTH",
"142 654 OFFCURVE",
"31 557 OFFCURVE",
"31 319 CURVE SMOOTH",
"31 93 OFFCURVE",
"142 -10 OFFCURVE",
"352 -10 CURVE SMOOTH"
);
},
{
closed = 1;
nodes = (
"243 127 OFFCURVE",
"195 187 OFFCURVE",
"195 319 CURVE SMOOTH",
"195 463 OFFCURVE",
"243 516 OFFCURVE",
"352 516 CURVE SMOOTH",
"460 516 OFFCURVE",
"508 463 OFFCURVE",
"508 319 CURVE SMOOTH",
"508 187 OFFCURVE",
"460 127 OFFCURVE",
"352 127 CURVE SMOOTH"
);
},
{
closed = 1;
nodes = (
"411 -179 LINE",
"411 -70 LINE",
"293 -70 LINE",
"293 -179 LINE"
);
}
);
width = 704;
}
);
leftKerningGroup = O;
note = Odotbelow;
rightKerningGroup = O;
unicode = 1ECC;
},
{
glyphname = Ograve;
lastChange = "2015-10-24 07:37:55 +0000";
layers = (
{
layerId = "476303D8-9A2F-423D-8E21-2B4181C6C8D8";
name = SemiBold;
paths = (
{
closed = 1;
nodes = (
"561 -10 OFFCURVE",
"673 93 OFFCURVE",
"673 319 CURVE SMOOTH",
"673 557 OFFCURVE",
"561 654 OFFCURVE",
"352 654 CURVE SMOOTH",
"142 654 OFFCURVE",
"31 557 OFFCURVE",
"31 319 CURVE SMOOTH",
"31 93 OFFCURVE",
"142 -10 OFFCURVE",
"352 -10 CURVE SMOOTH"
);
},
{
closed = 1;
nodes = (
"243 127 OFFCURVE",
"195 187 OFFCURVE",
"195 319 CURVE SMOOTH",
"195 463 OFFCURVE",
"243 516 OFFCURVE",
"352 516 CURVE SMOOTH",
"460 516 OFFCURVE",
"508 463 OFFCURVE",
"508 319 CURVE SMOOTH",
"508 187 OFFCURVE",
"460 127 OFFCURVE",
"352 127 CURVE SMOOTH"
);
},
{
closed = 1;
nodes = (
"419 688 LINE",
"335 884 LINE",
"203 884 LINE",
"296 688 LINE"
);
}
);
width = 704;
}
);
leftKerningGroup = O;
note = Ograve;
rightKerningGroup = O;
unicode = 00D2;
},
{
glyphname = Ohookabove;
lastChange = "2015-10-24 07:37:55 +0000";
layers = (
{
layerId = "476303D8-9A2F-423D-8E21-2B4181C6C8D8";
name = SemiBold;
paths = (
{
closed = 1;
nodes = (
"561 -10 OFFCURVE",
"673 93 OFFCURVE",
"673 319 CURVE SMOOTH",
"673 557 OFFCURVE",
"561 654 OFFCURVE",
"352 654 CURVE SMOOTH",
"142 654 OFFCURVE",
"31 557 OFFCURVE",
"31 319 CURVE SMOOTH",
"31 93 OFFCURVE",
"142 -10 OFFCURVE",
"352 -10 CURVE SMOOTH"
);
},
{
closed = 1;
nodes = (
"243 127 OFFCURVE",
"195 187 OFFCURVE",
"195 319 CURVE SMOOTH",
"195 463 OFFCURVE",
"243 516 OFFCURVE",
"352 516 CURVE SMOOTH",
"460 516 OFFCURVE",
"508 463 OFFCURVE",
"508 319 CURVE SMOOTH",
"508 187 OFFCURVE",
"460 127 OFFCURVE",
"352 127 CURVE SMOOTH"
);
},
{
closed = 1;
nodes = (
"410 688 LINE",
"410 732 LINE",
"469 746 OFFCURVE",
"495 772 OFFCURVE",
"495 829 CURVE SMOOTH",
"495 888 OFFCURVE",
"447 928 OFFCURVE",
"359 928 CURVE SMOOTH",
"316 928 OFFCURVE",
"278 923 OFFCURVE",
"252 914 CURVE",
"252 842 LINE",
"268 847 OFFCURVE",
"293 851 OFFCURVE",
"312 851 CURVE SMOOTH",
"353 851 OFFCURVE",
"377 840 OFFCURVE",
"377 815 CURVE SMOOTH",
"377 788 OFFCURVE",
"359 773 OFFCURVE",
"288 769 CURVE",
"288 688 LINE"
);
}
);
width = 704;
}
);
leftKerningGroup = O;
note = Ohookabove;
rightKerningGroup = O;
unicode = 1ECE;
},
{
glyphname = Ohorn;
lastChange = "2015-10-24 07:37:55 +0000";
layers = (
{
layerId = "476303D8-9A2F-423D-8E21-2B4181C6C8D8";
name = SemiBold;
paths = (
{
closed = 1;
nodes = (
"561 -10 OFFCURVE",
"673 93 OFFCURVE",
"673 319 CURVE SMOOTH",
"673 386 OFFCURVE",
"664 442 OFFCURVE",
"646 486 CURVE",
"739 504 OFFCURVE",
"781 559 OFFCURVE",
"781 688 CURVE",
"666 688 LINE",
"666 612 OFFCURVE",
"641 587 OFFCURVE",
"576 585 CURVE",
"523 632 OFFCURVE",
"449 654 OFFCURVE",
"352 654 CURVE SMOOTH",
"142 654 OFFCURVE",
"31 557 OFFCURVE",
"31 319 CURVE SMOOTH",
"31 93 OFFCURVE",
"142 -10 OFFCURVE",
"352 -10 CURVE SMOOTH"
);
},
{
closed = 1;
nodes = (
"243 127 OFFCURVE",
"195 187 OFFCURVE",
"195 319 CURVE SMOOTH",
"195 463 OFFCURVE",
"243 516 OFFCURVE",
"352 516 CURVE SMOOTH",
"460 516 OFFCURVE",
"508 463 OFFCURVE",
"508 319 CURVE SMOOTH",
"508 187 OFFCURVE",
"460 127 OFFCURVE",
"352 127 CURVE SMOOTH"
);
}
);
width = 785;
}
);
leftKerningGroup = O;
note = Ohorn;
rightKerningGroup = O;
unicode = 01A0;
},
{
glyphname = Ohornacute;
lastChange = "2015-10-24 07:37:55 +0000";
layers = (
{
layerId = "476303D8-9A2F-423D-8E21-2B4181C6C8D8";
name = SemiBold;
paths = (
{
closed = 1;
nodes = (
"561 -10 OFFCURVE",
"673 93 OFFCURVE",
"673 319 CURVE SMOOTH",
"673 386 OFFCURVE",
"664 442 OFFCURVE",
"646 486 CURVE",
"739 504 OFFCURVE",
"781 559 OFFCURVE",
"781 688 CURVE",
"666 688 LINE",
"666 612 OFFCURVE",
"641 587 OFFCURVE",
"576 585 CURVE",
"523 632 OFFCURVE",
"449 654 OFFCURVE",
"352 654 CURVE SMOOTH",
"142 654 OFFCURVE",
"31 557 OFFCURVE",
"31 319 CURVE SMOOTH",
"31 93 OFFCURVE",
"142 -10 OFFCURVE",
"352 -10 CURVE SMOOTH"
);
},
{
closed = 1;
nodes = (
"243 127 OFFCURVE",
"195 187 OFFCURVE",
"195 319 CURVE SMOOTH",
"195 463 OFFCURVE",
"243 516 OFFCURVE",
"352 516 CURVE SMOOTH",
"460 516 OFFCURVE",
"508 463 OFFCURVE",
"508 319 CURVE SMOOTH",
"508 187 OFFCURVE",
"460 127 OFFCURVE",
"352 127 CURVE SMOOTH"
);
},
{
closed = 1;
nodes = (
"415 688 LINE",
"507 884 LINE",
"375 884 LINE",
"291 688 LINE"
);
}
);
width = 785;
}
);
leftKerningGroup = O;
note = Ohornacute;
rightKerningGroup = O;
unicode = 1EDA;
},
{
glyphname = Ohorndotbelow;
lastChange = "2015-11-25 10:07:46 +0000";
layers = (
{
layerId = "476303D8-9A2F-423D-8E21-2B4181C6C8D8";
name = SemiBold;
paths = (
{
closed = 1;
nodes = (
"561 -10 OFFCURVE",
"673 93 OFFCURVE",
"673 319 CURVE SMOOTH",
"673 386 OFFCURVE",
"664 442 OFFCURVE",
"646 486 CURVE",
"739 504 OFFCURVE",
"781 559 OFFCURVE",
"781 688 CURVE",
"666 688 LINE",
"666 612 OFFCURVE",
"641 587 OFFCURVE",
"576 585 CURVE",
"523 632 OFFCURVE",
"449 654 OFFCURVE",
"352 654 CURVE SMOOTH",
"142 654 OFFCURVE",
"31 557 OFFCURVE",
"31 319 CURVE SMOOTH",
"31 93 OFFCURVE",
"142 -10 OFFCURVE",
"352 -10 CURVE SMOOTH"
);
},
{
closed = 1;
nodes = (
"243 127 OFFCURVE",
"195 187 OFFCURVE",
"195 319 CURVE SMOOTH",
"195 463 OFFCURVE",
"243 516 OFFCURVE",
"352 516 CURVE SMOOTH",
"460 516 OFFCURVE",
"508 463 OFFCURVE",
"508 319 CURVE SMOOTH",
"508 187 OFFCURVE",
"460 127 OFFCURVE",
"352 127 CURVE SMOOTH"
);
},
{
closed = 1;
nodes = (
"412 -179 LINE",
"412 -70 LINE",
"294 -70 LINE",
"294 -179 LINE"
);
}
);
width = 785;
}
);
leftKerningGroup = O;
note = Ohorndotbelow;
rightKerningGroup = O;
unicode = 1EE2;
},
{
glyphname = Ohorngrave;
lastChange = "2015-10-24 07:37:56 +0000";
layers = (
{
layerId = "476303D8-9A2F-423D-8E21-2B4181C6C8D8";
name = SemiBold;
paths = (
{
closed = 1;
nodes = (
"561 -10 OFFCURVE",
"673 93 OFFCURVE",
"673 319 CURVE SMOOTH",
"673 386 OFFCURVE",
"664 442 OFFCURVE",
"646 486 CURVE",
"739 504 OFFCURVE",
"781 559 OFFCURVE",
"781 688 CURVE",
"666 688 LINE",
"666 612 OFFCURVE",
"641 587 OFFCURVE",
"576 585 CURVE",
"523 632 OFFCURVE",
"449 654 OFFCURVE",
"352 654 CURVE SMOOTH",
"142 654 OFFCURVE",
"31 557 OFFCURVE",
"31 319 CURVE SMOOTH",
"31 93 OFFCURVE",
"142 -10 OFFCURVE",
"352 -10 CURVE SMOOTH"
);
},
{
closed = 1;
nodes = (
"243 127 OFFCURVE",
"195 187 OFFCURVE",
"195 319 CURVE SMOOTH",
"195 463 OFFCURVE",
"243 516 OFFCURVE",
"352 516 CURVE SMOOTH",
"460 516 OFFCURVE",
"508 463 OFFCURVE",
"508 319 CURVE SMOOTH",
"508 187 OFFCURVE",
"460 127 OFFCURVE",
"352 127 CURVE SMOOTH"
);
},
{
closed = 1;
nodes = (
"430 688 LINE",
"346 884 LINE",
"214 884 LINE",
"307 688 LINE"
);
}
);
width = 785;
}
);
leftKerningGroup = O;
note = Ohorngrave;
rightKerningGroup = O;
unicode = 1EDC;
},
{
glyphname = Ohornhookabove;
lastChange = "2015-10-24 07:37:55 +0000";
layers = (
{
layerId = "476303D8-9A2F-423D-8E21-2B4181C6C8D8";
name = SemiBold;
paths = (
{
closed = 1;
nodes = (
"561 -10 OFFCURVE",
"673 93 OFFCURVE",
"673 319 CURVE SMOOTH",
"673 386 OFFCURVE",
"664 442 OFFCURVE",
"646 486 CURVE",
"739 504 OFFCURVE",
"781 559 OFFCURVE",
"781 688 CURVE",
"666 688 LINE",
"666 612 OFFCURVE",
"641 587 OFFCURVE",
"576 585 CURVE",
"523 632 OFFCURVE",
"449 654 OFFCURVE",
"352 654 CURVE SMOOTH",
"142 654 OFFCURVE",
"31 557 OFFCURVE",
"31 319 CURVE SMOOTH",
"31 93 OFFCURVE",
"142 -10 OFFCURVE",
"352 -10 CURVE SMOOTH"
);
},
{
closed = 1;
nodes = (
"243 127 OFFCURVE",
"195 187 OFFCURVE",
"195 319 CURVE SMOOTH",
"195 463 OFFCURVE",
"243 516 OFFCURVE",
"352 516 CURVE SMOOTH",
"460 516 OFFCURVE",
"508 463 OFFCURVE",
"508 319 CURVE SMOOTH",
"508 187 OFFCURVE",
"460 127 OFFCURVE",
"352 127 CURVE SMOOTH"
);
},
{
closed = 1;
nodes = (
"413 688 LINE",
"413 732 LINE",
"472 746 OFFCURVE",
"498 772 OFFCURVE",
"498 829 CURVE SMOOTH",
"498 888 OFFCURVE",
"450 928 OFFCURVE",
"362 928 CURVE SMOOTH",
"319 928 OFFCURVE",
"281 923 OFFCURVE",
"255 914 CURVE",
"255 842 LINE",
"271 847 OFFCURVE",
"296 851 OFFCURVE",
"315 851 CURVE SMOOTH",
"356 851 OFFCURVE",
"380 840 OFFCURVE",
"380 815 CURVE SMOOTH",
"380 788 OFFCURVE",
"362 773 OFFCURVE",
"291 769 CURVE",
"291 688 LINE"
);
}
);
width = 785;
}
);
leftKerningGroup = O;
note = Ohornhookabove;
rightKerningGroup = O;
unicode = 1EDE;
},
{
glyphname = Ohorntilde;
lastChange = "2015-10-24 07:37:55 +0000";
layers = (
{
layerId = "476303D8-9A2F-423D-8E21-2B4181C6C8D8";
name = SemiBold;
paths = (
{
closed = 1;
nodes = (
"561 -10 OFFCURVE",
"673 93 OFFCURVE",
"673 319 CURVE SMOOTH",
"673 386 OFFCURVE",
"664 442 OFFCURVE",
"646 486 CURVE",
"739 504 OFFCURVE",
"781 559 OFFCURVE",
"781 688 CURVE",
"666 688 LINE",
"666 612 OFFCURVE",
"641 587 OFFCURVE",
"576 585 CURVE",
"523 632 OFFCURVE",
"449 654 OFFCURVE",
"352 654 CURVE SMOOTH",
"142 654 OFFCURVE",
"31 557 OFFCURVE",
"31 319 CURVE SMOOTH",
"31 93 OFFCURVE",
"142 -10 OFFCURVE",
"352 -10 CURVE SMOOTH"
);
},
{
closed = 1;
nodes = (
"243 127 OFFCURVE",
"195 187 OFFCURVE",
"195 319 CURVE SMOOTH",
"195 463 OFFCURVE",
"243 516 OFFCURVE",
"352 516 CURVE SMOOTH",
"460 516 OFFCURVE",
"508 463 OFFCURVE",
"508 319 CURVE SMOOTH",
"508 187 OFFCURVE",
"460 127 OFFCURVE",
"352 127 CURVE SMOOTH"
);
},
{
closed = 1;
nodes = (
"487 694 OFFCURVE",
"520 708 OFFCURVE",
"533 726 CURVE",
"533 834 LINE",
"516 810 OFFCURVE",
"486 795 OFFCURVE",
"446 795 CURVE SMOOTH",
"387 795 OFFCURVE",
"339 836 OFFCURVE",
"275 836 CURVE SMOOTH",
"238 836 OFFCURVE",
"203 822 OFFCURVE",
"184 804 CURVE",
"184 697 LINE",
"208 721 OFFCURVE",
"239 735 OFFCURVE",
"278 735 CURVE SMOOTH",
"330 735 OFFCURVE",
"387 694 OFFCURVE",
"449 694 CURVE SMOOTH"
);
}
);
width = 785;
}
);
leftKerningGroup = O;
note = Ohorntilde;
rightKerningGroup = O;
unicode = 1EE0;
},
{
glyphname = Ohungarumlaut;
lastChange = "2015-10-24 07:37:55 +0000";
layers = (
{
layerId = "476303D8-9A2F-423D-8E21-2B4181C6C8D8";
name = SemiBold;
paths = (
{
closed = 1;
nodes = (
"561 -10 OFFCURVE",
"673 93 OFFCURVE",
"673 319 CURVE SMOOTH",
"673 557 OFFCURVE",
"561 654 OFFCURVE",
"352 654 CURVE SMOOTH",
"142 654 OFFCURVE",
"31 557 OFFCURVE",
"31 319 CURVE SMOOTH",
"31 93 OFFCURVE",
"142 -10 OFFCURVE",
"352 -10 CURVE SMOOTH"
);
},
{
closed = 1;
nodes = (
"243 127 OFFCURVE",
"195 187 OFFCURVE",
"195 319 CURVE SMOOTH",
"195 463 OFFCURVE",
"243 516 OFFCURVE",
"352 516 CURVE SMOOTH",
"460 516 OFFCURVE",
"508 463 OFFCURVE",
"508 319 CURVE SMOOTH",
"508 187 OFFCURVE",
"460 127 OFFCURVE",
"352 127 CURVE SMOOTH"
);
},
{
closed = 1;
nodes = (
"272 688 LINE",
"369 868 LINE",
"230 868 LINE",
"148 688 LINE"
);
},
{
closed = 1;
nodes = (
"503 688 LINE",
"600 868 LINE",
"461 868 LINE",
"379 688 LINE"
);
}
);
width = 704;
}
);
leftKerningGroup = O;
note = Ohungarumlaut;
rightKerningGroup = O;
unicode = 0150;
},
{
glyphname = Omacron;
lastChange = "2015-10-24 07:37:54 +0000";
layers = (
{
layerId = "476303D8-9A2F-423D-8E21-2B4181C6C8D8";
name = SemiBold;
paths = (
{
closed = 1;
nodes = (
"561 -10 OFFCURVE",
"673 93 OFFCURVE",
"673 319 CURVE SMOOTH",
"673 557 OFFCURVE",
"561 654 OFFCURVE",
"352 654 CURVE SMOOTH",
"142 654 OFFCURVE",
"31 557 OFFCURVE",
"31 319 CURVE SMOOTH",
"31 93 OFFCURVE",
"142 -10 OFFCURVE",
"352 -10 CURVE SMOOTH"
);
},
{
closed = 1;
nodes = (
"243 127 OFFCURVE",
"195 187 OFFCURVE",
"195 319 CURVE SMOOTH",
"195 463 OFFCURVE",
"243 516 OFFCURVE",
"352 516 CURVE SMOOTH",
"460 516 OFFCURVE",
"508 463 OFFCURVE",
"508 319 CURVE SMOOTH",
"508 187 OFFCURVE",
"460 127 OFFCURVE",
"352 127 CURVE SMOOTH"
);
},
{
closed = 1;
nodes = (
"508 724 LINE",
"508 821 LINE",
"190 821 LINE",
"190 724 LINE"
);
}
);
width = 704;
}
);
leftKerningGroup = O;
note = Omacron;
rightKerningGroup = O;
unicode = 014C;
},
{
glyphname = Oslash;
lastChange = "2015-10-24 07:37:55 +0000";
layers = (
{
layerId = "476303D8-9A2F-423D-8E21-2B4181C6C8D8";
name = SemiBold;
paths = (
{
closed = 1;
nodes = (
"245 -53 LINE",
"264 -3 LINE",
"291 -7 OFFCURVE",
"320 -10 OFFCURVE",
"352 -10 CURVE SMOOTH",
"561 -10 OFFCURVE",
"673 93 OFFCURVE",
"673 319 CURVE SMOOTH",
"673 488 OFFCURVE",
"616 586 OFFCURVE",
"509 628 CURVE",
"534 693 LINE",
"445 693 LINE",
"428 649 LINE",
"404 652 OFFCURVE",
"379 654 OFFCURVE",
"352 654 CURVE SMOOTH",
"142 654 OFFCURVE",
"31 557 OFFCURVE",
"31 319 CURVE SMOOTH",
"31 163 OFFCURVE",
"83 66 OFFCURVE",
"184 21 CURVE",
"156 -53 LINE"
);
},
{
closed = 1;
nodes = (
"209 196 OFFCURVE",
"195 247 OFFCURVE",
"195 319 CURVE SMOOTH",
"195 463 OFFCURVE",
"243 516 OFFCURVE",
"352 516 CURVE SMOOTH",
"360 516 OFFCURVE",
"368 515 OFFCURVE",
"376 515 CURVE",
"240 165 LINE"
);
},
{
closed = 1;
nodes = (
"339 127 OFFCURVE",
"327 128 OFFCURVE",
"316 129 CURVE",
"454 487 LINE",
"491 458 OFFCURVE",
"508 404 OFFCURVE",
"508 319 CURVE SMOOTH",
"508 187 OFFCURVE",
"460 127 OFFCURVE",
"352 127 CURVE SMOOTH"
);
}
);
width = 704;
}
);
leftKerningGroup = O;
note = Oslash;
rightKerningGroup = O;
unicode = 00D8;
},
{
glyphname = Oslashacute;
lastChange = "2015-10-24 07:37:55 +0000";
layers = (
{
layerId = "476303D8-9A2F-423D-8E21-2B4181C6C8D8";
name = SemiBold;
paths = (
{
closed = 1;
nodes = (
"245 -53 LINE",
"264 -3 LINE",
"291 -7 OFFCURVE",
"320 -10 OFFCURVE",
"352 -10 CURVE SMOOTH",
"561 -10 OFFCURVE",
"673 93 OFFCURVE",
"673 319 CURVE SMOOTH",
"673 488 OFFCURVE",
"616 586 OFFCURVE",
"509 628 CURVE",
"534 693 LINE",
"445 693 LINE",
"428 649 LINE",
"404 652 OFFCURVE",
"379 654 OFFCURVE",
"352 654 CURVE SMOOTH",
"142 654 OFFCURVE",
"31 557 OFFCURVE",
"31 319 CURVE SMOOTH",
"31 163 OFFCURVE",
"83 66 OFFCURVE",
"184 21 CURVE",
"156 -53 LINE"
);
},
{
closed = 1;
nodes = (
"209 196 OFFCURVE",
"195 247 OFFCURVE",
"195 319 CURVE SMOOTH",
"195 463 OFFCURVE",
"243 516 OFFCURVE",
"352 516 CURVE SMOOTH",
"360 516 OFFCURVE",
"368 515 OFFCURVE",
"376 515 CURVE",
"240 165 LINE"
);
},
{
closed = 1;
nodes = (
"339 127 OFFCURVE",
"327 128 OFFCURVE",
"316 129 CURVE",
"454 487 LINE",
"491 458 OFFCURVE",
"508 404 OFFCURVE",
"508 319 CURVE SMOOTH",
"508 187 OFFCURVE",
"460 127 OFFCURVE",
"352 127 CURVE SMOOTH"
);
},
{
closed = 1;
nodes = (
"381 688 LINE",
"473 884 LINE",
"341 884 LINE",
"257 688 LINE"
);
}
);
width = 704;
}
);
leftKerningGroup = O;
note = Oslashacute;
rightKerningGroup = O;
unicode = 01FE;
},
{
glyphname = Otilde;
lastChange = "2015-10-24 07:37:55 +0000";
layers = (
{
layerId = "476303D8-9A2F-423D-8E21-2B4181C6C8D8";
name = SemiBold;
paths = (
{
closed = 1;
nodes = (
"561 -10 OFFCURVE",
"673 93 OFFCURVE",
"673 319 CURVE SMOOTH",
"673 557 OFFCURVE",
"561 654 OFFCURVE",
"352 654 CURVE SMOOTH",
"142 654 OFFCURVE",
"31 557 OFFCURVE",
"31 319 CURVE SMOOTH",
"31 93 OFFCURVE",
"142 -10 OFFCURVE",
"352 -10 CURVE SMOOTH"
);
},
{
closed = 1;
nodes = (
"243 127 OFFCURVE",
"195 187 OFFCURVE",
"195 319 CURVE SMOOTH",
"195 463 OFFCURVE",
"243 516 OFFCURVE",
"352 516 CURVE SMOOTH",
"460 516 OFFCURVE",
"508 463 OFFCURVE",
"508 319 CURVE SMOOTH",
"508 187 OFFCURVE",
"460 127 OFFCURVE",
"352 127 CURVE SMOOTH"
);
},
{
closed = 1;
nodes = (
"481 710 OFFCURVE",
"514 724 OFFCURVE",
"527 742 CURVE",
"527 850 LINE",
"510 826 OFFCURVE",
"480 811 OFFCURVE",
"440 811 CURVE SMOOTH",
"381 811 OFFCURVE",
"333 852 OFFCURVE",
"269 852 CURVE SMOOTH",
"232 852 OFFCURVE",
"197 838 OFFCURVE",
"178 820 CURVE",
"178 713 LINE",
"202 737 OFFCURVE",
"233 751 OFFCURVE",
"272 751 CURVE SMOOTH",
"324 751 OFFCURVE",
"381 710 OFFCURVE",
"443 710 CURVE SMOOTH"
);
}
);
width = 704;
}
);
leftKerningGroup = O;
note = Otilde;
rightKerningGroup = O;
unicode = 00D5;
},
{
glyphname = OE;
lastChange = "2015-10-24 07:37:55 +0000";
layers = (
{
layerId = "476303D8-9A2F-423D-8E21-2B4181C6C8D8";
name = SemiBold;
paths = (
{
closed = 1;
nodes = (
"561 -10 OFFCURVE",
"673 93 OFFCURVE",
"673 319 CURVE SMOOTH",
"673 557 OFFCURVE",
"561 654 OFFCURVE",
"352 654 CURVE SMOOTH",
"142 654 OFFCURVE",
"31 557 OFFCURVE",
"31 319 CURVE SMOOTH",
"31 93 OFFCURVE",
"142 -10 OFFCURVE",
"352 -10 CURVE SMOOTH"
);
},
{
closed = 1;
nodes = (
"243 127 OFFCURVE",
"195 187 OFFCURVE",
"195 319 CURVE SMOOTH",
"195 463 OFFCURVE",
"243 516 OFFCURVE",
"352 516 CURVE SMOOTH",
"460 516 OFFCURVE",
"508 463 OFFCURVE",
"508 319 CURVE SMOOTH",
"508 187 OFFCURVE",
"460 127 OFFCURVE",
"352 127 CURVE SMOOTH"
);
},
{
closed = 1;
nodes = (
"984 0 LINE",
"984 124 LINE",
"670 124 LINE",
"670 259 LINE",
"947 259 LINE",
"947 385 LINE",
"670 385 LINE",
"670 520 LINE",
"984 520 LINE",
"984 644 LINE",
"509 644 LINE",
"509 0 LINE"
);
}
);
width = 1015;
}
);
leftKerningGroup = O;
note = OE;
rightKerningGroup = E;
unicode = 0152;
},
{
glyphname = P;
lastChange = "2015-10-24 07:37:55 +0000";
layers = (
{
layerId = "476303D8-9A2F-423D-8E21-2B4181C6C8D8";
name = SemiBold;
paths = (
{
closed = 1;
nodes = (
"212 0 LINE",
"212 189 LINE",
"364 189 LINE SMOOTH",
"505 189 OFFCURVE",
"594 281 OFFCURVE",
"594 414 CURVE SMOOTH",
"594 544 OFFCURVE",
"522 644 OFFCURVE",
"368 644 CURVE SMOOTH",
"51 644 LINE",
"51 0 LINE"
);
},
{
closed = 1;
nodes = (
"212 520 LINE",
"333 520 LINE SMOOTH",
"399 520 OFFCURVE",
"430 481 OFFCURVE",
"430 415 CURVE SMOOTH",
"430 354 OFFCURVE",
"396 313 OFFCURVE",
"328 313 CURVE SMOOTH",
"212 313 LINE"
);
}
);
width = 606;
}
);
note = P;
unicode = 0050;
},
{
glyphname = Thorn;
lastChange = "2015-11-25 10:07:59 +0000";
layers = (
{
layerId = "476303D8-9A2F-423D-8E21-2B4181C6C8D8";
name = SemiBold;
paths = (
{
closed = 1;
nodes = (
"212 0 LINE",
"212 95 LINE",
"364 95 LINE SMOOTH",
"505 95 OFFCURVE",
"594 187 OFFCURVE",
"594 320 CURVE SMOOTH",
"594 450 OFFCURVE",
"522 547 OFFCURVE",
"368 547 CURVE SMOOTH",
"212 547 LINE",
"212 644 LINE",
"51 644 LINE",
"51 0 LINE"
);
},
{
closed = 1;
nodes = (
"212 423 LINE",
"333 423 LINE SMOOTH",
"399 423 OFFCURVE",
"430 386 OFFCURVE",
"430 320 CURVE SMOOTH",
"430 259 OFFCURVE",
"396 219 OFFCURVE",
"328 219 CURVE SMOOTH",
"212 219 LINE"
);
}
);
width = 606;
}
);
note = Thorn;
unicode = 00DE;
},
{
glyphname = Q;
lastChange = "2015-10-24 07:37:56 +0000";
layers = (
{
layerId = "476303D8-9A2F-423D-8E21-2B4181C6C8D8";
name = SemiBold;
paths = (
{
closed = 1;
nodes = (
"484 -172 OFFCURVE",
"523 -168 OFFCURVE",
"543 -162 CURVE",
"543 -53 LINE",
"523 -58 OFFCURVE",
"500 -61 OFFCURVE",
"480 -61 CURVE SMOOTH",
"442 -61 OFFCURVE",
"429 -47 OFFCURVE",
"429 -4 CURVE",
"588 19 OFFCURVE",
"673 122 OFFCURVE",
"673 319 CURVE SMOOTH",
"673 557 OFFCURVE",
"561 654 OFFCURVE",
"352 654 CURVE SMOOTH",
"142 654 OFFCURVE",
"31 557 OFFCURVE",
"31 319 CURVE SMOOTH",
"31 118 OFFCURVE",
"119 14 OFFCURVE",
"286 -6 CURVE",
"287 -117 OFFCURVE",
"325 -172 OFFCURVE",
"462 -172 CURVE SMOOTH"
);
},
{
closed = 1;
nodes = (
"243 127 OFFCURVE",
"195 187 OFFCURVE",
"195 319 CURVE SMOOTH",
"195 463 OFFCURVE",
"243 516 OFFCURVE",
"352 516 CURVE SMOOTH",
"460 516 OFFCURVE",
"508 463 OFFCURVE",
"508 319 CURVE SMOOTH",
"508 187 OFFCURVE",
"460 127 OFFCURVE",
"352 127 CURVE SMOOTH"
);
}
);
width = 704;
}
);
leftKerningGroup = O;
note = Q;
rightKerningGroup = O;
unicode = 0051;
},
{
glyphname = R;
lastChange = "2015-10-24 07:37:55 +0000";
layers = (
{
layerId = "476303D8-9A2F-423D-8E21-2B4181C6C8D8";
name = SemiBold;
paths = (
{
closed = 1;
nodes = (
"212 0 LINE",
"212 204 LINE",
"286 204 LINE SMOOTH",
"321 204 OFFCURVE",
"337 192 OFFCURVE",
"349 164 CURVE SMOOTH",
"421 0 LINE",
"589 0 LINE",
"513 174 LINE SMOOTH",
"499 206 OFFCURVE",
"490 221 OFFCURVE",
"472 236 CURVE",
"548 268 OFFCURVE",
"595 336 OFFCURVE",
"595 423 CURVE SMOOTH",
"595 557 OFFCURVE",
"525 644 OFFCURVE",
"373 644 CURVE SMOOTH",
"51 644 LINE",
"51 0 LINE"
);
},
{
closed = 1;
nodes = (
"212 520 LINE",
"338 520 LINE SMOOTH",
"400 520 OFFCURVE",
"431 487 OFFCURVE",
"431 423 CURVE SMOOTH",
"431 359 OFFCURVE",
"394 328 OFFCURVE",
"331 328 CURVE SMOOTH",
"212 328 LINE"
);
}
);
width = 626;
}
);
note = R;
rightKerningGroup = R;
unicode = 0052;
},
{
glyphname = Racute;
lastChange = "2015-10-24 07:37:55 +0000";
layers = (
{
layerId = "476303D8-9A2F-423D-8E21-2B4181C6C8D8";
name = SemiBold;
paths = (
{
closed = 1;
nodes = (
"212 0 LINE",
"212 204 LINE",
"286 204 LINE SMOOTH",
"321 204 OFFCURVE",
"337 192 OFFCURVE",
"349 164 CURVE SMOOTH",
"421 0 LINE",
"589 0 LINE",
"513 174 LINE SMOOTH",
"499 206 OFFCURVE",
"490 221 OFFCURVE",
"472 236 CURVE",
"548 268 OFFCURVE",
"595 336 OFFCURVE",
"595 423 CURVE SMOOTH",
"595 557 OFFCURVE",
"525 644 OFFCURVE",
"373 644 CURVE SMOOTH",
"51 644 LINE",
"51 0 LINE"
);
},
{
closed = 1;
nodes = (
"212 520 LINE",
"338 520 LINE SMOOTH",
"400 520 OFFCURVE",
"431 487 OFFCURVE",
"431 423 CURVE SMOOTH",
"431 359 OFFCURVE",
"394 328 OFFCURVE",
"331 328 CURVE SMOOTH",
"212 328 LINE"
);
},
{
closed = 1;
nodes = (
"331 688 LINE",
"423 884 LINE",
"291 884 LINE",
"207 688 LINE"
);
}
);
width = 626;
}
);
note = Racute;
rightKerningGroup = R;
unicode = 0154;
},
{
glyphname = Rcaron;
lastChange = "2015-10-24 07:37:55 +0000";
layers = (
{
layerId = "476303D8-9A2F-423D-8E21-2B4181C6C8D8";
name = SemiBold;
paths = (
{
closed = 1;
nodes = (
"212 0 LINE",
"212 204 LINE",
"286 204 LINE SMOOTH",
"321 204 OFFCURVE",
"337 192 OFFCURVE",
"349 164 CURVE SMOOTH",
"421 0 LINE",
"589 0 LINE",
"513 174 LINE SMOOTH",
"499 206 OFFCURVE",
"490 221 OFFCURVE",
"472 236 CURVE",
"548 268 OFFCURVE",
"595 336 OFFCURVE",
"595 423 CURVE SMOOTH",
"595 557 OFFCURVE",
"525 644 OFFCURVE",
"373 644 CURVE SMOOTH",
"51 644 LINE",
"51 0 LINE"
);
},
{
closed = 1;
nodes = (
"212 520 LINE",
"338 520 LINE SMOOTH",
"400 520 OFFCURVE",
"431 487 OFFCURVE",
"431 423 CURVE SMOOTH",
"431 359 OFFCURVE",
"394 328 OFFCURVE",
"331 328 CURVE SMOOTH",
"212 328 LINE"
);
},
{
closed = 1;
nodes = (
"333 688 LINE",
"478 875 LINE",
"358 875 LINE",
"283 771 LINE",
"211 875 LINE",
"88 875 LINE",
"233 688 LINE"
);
}
);
width = 626;
}
);
note = Rcaron;
rightKerningGroup = R;
unicode = 0158;
},
{
glyphname = Rcommaaccent;
lastChange = "2015-11-25 10:08:06 +0000";
layers = (
{
layerId = "476303D8-9A2F-423D-8E21-2B4181C6C8D8";
name = SemiBold;
paths = (
{
closed = 1;
nodes = (
"212 0 LINE",
"212 204 LINE",
"286 204 LINE SMOOTH",
"321 204 OFFCURVE",
"337 192 OFFCURVE",
"349 164 CURVE SMOOTH",
"421 0 LINE",
"589 0 LINE",
"513 174 LINE SMOOTH",
"499 206 OFFCURVE",
"490 221 OFFCURVE",
"472 236 CURVE",
"548 268 OFFCURVE",
"595 336 OFFCURVE",
"595 423 CURVE SMOOTH",
"595 557 OFFCURVE",
"525 644 OFFCURVE",
"373 644 CURVE SMOOTH",
"51 644 LINE",
"51 0 LINE"
);
},
{
closed = 1;
nodes = (
"212 520 LINE",
"338 520 LINE SMOOTH",
"400 520 OFFCURVE",
"431 487 OFFCURVE",
"431 423 CURVE SMOOTH",
"431 359 OFFCURVE",
"394 328 OFFCURVE",
"331 328 CURVE SMOOTH",
"212 328 LINE"
);
},
{
closed = 1;
nodes = (
"316 -250 LINE",
"369 -37 LINE",
"240 -37 LINE",
"207 -250 LINE"
);
}
);
width = 626;
}
);
note = Rcommaaccent;
rightKerningGroup = R;
unicode = 0156;
},
{
glyphname = Rdotbelow;
lastChange = "2015-11-25 10:08:12 +0000";
layers = (
{
layerId = "476303D8-9A2F-423D-8E21-2B4181C6C8D8";
name = SemiBold;
paths = (
{
closed = 1;
nodes = (
"212 0 LINE",
"212 204 LINE",
"286 204 LINE SMOOTH",
"321 204 OFFCURVE",
"337 192 OFFCURVE",
"349 164 CURVE SMOOTH",
"421 0 LINE",
"589 0 LINE",
"513 174 LINE SMOOTH",
"499 206 OFFCURVE",
"490 221 OFFCURVE",
"472 236 CURVE",
"548 268 OFFCURVE",
"595 336 OFFCURVE",
"595 423 CURVE SMOOTH",
"595 557 OFFCURVE",
"525 644 OFFCURVE",
"373 644 CURVE SMOOTH",
"51 644 LINE",
"51 0 LINE"
);
},
{
closed = 1;
nodes = (
"212 520 LINE",
"338 520 LINE SMOOTH",
"400 520 OFFCURVE",
"431 487 OFFCURVE",
"431 423 CURVE SMOOTH",
"431 359 OFFCURVE",
"394 328 OFFCURVE",
"331 328 CURVE SMOOTH",
"212 328 LINE"
);
},
{
closed = 1;
nodes = (
"363 -179 LINE",
"363 -70 LINE",
"245 -70 LINE",
"245 -179 LINE"
);
}
);
width = 626;
}
);
note = Rdotbelow;
rightKerningGroup = R;
unicode = 1E5A;
},
{
glyphname = Rdotbelowmacron;
lastChange = "2015-11-25 10:08:17 +0000";
layers = (
{
layerId = "476303D8-9A2F-423D-8E21-2B4181C6C8D8";
name = SemiBold;
paths = (
{
closed = 1;
nodes = (
"212 0 LINE",
"212 204 LINE",
"286 204 LINE SMOOTH",
"321 204 OFFCURVE",
"337 192 OFFCURVE",
"349 164 CURVE SMOOTH",
"421 0 LINE",
"589 0 LINE",
"513 174 LINE SMOOTH",
"499 206 OFFCURVE",
"490 221 OFFCURVE",
"472 236 CURVE",
"548 268 OFFCURVE",
"595 336 OFFCURVE",
"595 423 CURVE SMOOTH",
"595 557 OFFCURVE",
"525 644 OFFCURVE",
"373 644 CURVE SMOOTH",
"51 644 LINE",
"51 0 LINE"
);
},
{
closed = 1;
nodes = (
"212 520 LINE",
"338 520 LINE SMOOTH",
"400 520 OFFCURVE",
"431 487 OFFCURVE",
"431 423 CURVE SMOOTH",
"431 359 OFFCURVE",
"394 328 OFFCURVE",
"331 328 CURVE SMOOTH",
"212 328 LINE"
);
},
{
closed = 1;
nodes = (
"363 -179 LINE",
"363 -70 LINE",
"245 -70 LINE",
"245 -179 LINE"
);
},
{
closed = 1;
nodes = (
"437 717 LINE",
"437 814 LINE",
"119 814 LINE",
"119 717 LINE"
);
}
);
width = 626;
}
);
note = Rdotbelowmacron;
rightKerningGroup = R;
unicode = 1E5C;
},
{
glyphname = Rlinebelow;
lastChange = "2015-11-25 10:08:20 +0000";
layers = (
{
layerId = "476303D8-9A2F-423D-8E21-2B4181C6C8D8";
name = SemiBold;
paths = (
{
closed = 1;
nodes = (
"212 0 LINE",
"212 204 LINE",
"286 204 LINE SMOOTH",
"321 204 OFFCURVE",
"337 192 OFFCURVE",
"349 164 CURVE SMOOTH",
"421 0 LINE",
"589 0 LINE",
"513 174 LINE SMOOTH",
"499 206 OFFCURVE",
"490 221 OFFCURVE",
"472 236 CURVE",
"548 268 OFFCURVE",
"595 336 OFFCURVE",
"595 423 CURVE SMOOTH",
"595 557 OFFCURVE",
"525 644 OFFCURVE",
"373 644 CURVE SMOOTH",
"51 644 LINE",
"51 0 LINE"
);
},
{
closed = 1;
nodes = (
"212 520 LINE",
"338 520 LINE SMOOTH",
"400 520 OFFCURVE",
"431 487 OFFCURVE",
"431 423 CURVE SMOOTH",
"431 359 OFFCURVE",
"394 328 OFFCURVE",
"331 328 CURVE SMOOTH",
"212 328 LINE"
);
},
{
closed = 1;
nodes = (
"457 -166 LINE",
"457 -68 LINE",
"139 -68 LINE",
"139 -166 LINE"
);
}
);
width = 626;
}
);
note = Rlinebelow;
rightKerningGroup = R;
unicode = 1E5E;
},
{
glyphname = S;
lastChange = "2015-10-24 07:37:55 +0000";
layers = (
{
layerId = "476303D8-9A2F-423D-8E21-2B4181C6C8D8";
name = SemiBold;
paths = (
{
closed = 1;
nodes = (
"437 -10 OFFCURVE",
"524 66 OFFCURVE",
"524 180 CURVE SMOOTH",
"524 276 OFFCURVE",
"487 342 OFFCURVE",
"329 385 CURVE SMOOTH",
"226 412 OFFCURVE",
"195 423 OFFCURVE",
"195 465 CURVE SMOOTH",
"195 513 OFFCURVE",
"244 521 OFFCURVE",
"316 521 CURVE SMOOTH",
"370 521 OFFCURVE",
"429 511 OFFCURVE",
"487 488 CURVE",
"487 626 LINE",
"443 641 OFFCURVE",
"366 654 OFFCURVE",
"292 654 CURVE SMOOTH",
"120 654 OFFCURVE",
"31 587 OFFCURVE",
"31 464 CURVE SMOOTH",
"31 362 OFFCURVE",
"77 313 OFFCURVE",
"209 274 CURVE SMOOTH",
"320 242 OFFCURVE",
"359 230 OFFCURVE",
"359 180 CURVE SMOOTH",
"359 130 OFFCURVE",
"320 121 OFFCURVE",
"240 121 CURVE SMOOTH",
"176 121 OFFCURVE",
"100 138 OFFCURVE",
"41 164 CURVE",
"41 27 LINE",
"94 3 OFFCURVE",
"171 -10 OFFCURVE",
"256 -10 CURVE SMOOTH"
);
}
);
width = 555;
}
);
leftKerningGroup = S;
note = S;
rightKerningGroup = S;
unicode = 0053;
},
{
glyphname = Sacute;
lastChange = "2015-10-24 07:37:55 +0000";
layers = (
{
layerId = "476303D8-9A2F-423D-8E21-2B4181C6C8D8";
name = SemiBold;
paths = (
{
closed = 1;
nodes = (
"437 -10 OFFCURVE",
"524 66 OFFCURVE",
"524 180 CURVE SMOOTH",
"524 276 OFFCURVE",
"487 342 OFFCURVE",
"329 385 CURVE SMOOTH",
"226 412 OFFCURVE",
"195 423 OFFCURVE",
"195 465 CURVE SMOOTH",
"195 513 OFFCURVE",
"244 521 OFFCURVE",
"316 521 CURVE SMOOTH",
"370 521 OFFCURVE",
"429 511 OFFCURVE",
"487 488 CURVE",
"487 626 LINE",
"443 641 OFFCURVE",
"366 654 OFFCURVE",
"292 654 CURVE SMOOTH",
"120 654 OFFCURVE",
"31 587 OFFCURVE",
"31 464 CURVE SMOOTH",
"31 362 OFFCURVE",
"77 313 OFFCURVE",
"209 274 CURVE SMOOTH",
"320 242 OFFCURVE",
"359 230 OFFCURVE",
"359 180 CURVE SMOOTH",
"359 130 OFFCURVE",
"320 121 OFFCURVE",
"240 121 CURVE SMOOTH",
"176 121 OFFCURVE",
"100 138 OFFCURVE",
"41 164 CURVE",
"41 27 LINE",
"94 3 OFFCURVE",
"171 -10 OFFCURVE",
"256 -10 CURVE SMOOTH"
);
},
{
closed = 1;
nodes = (
"326 689 LINE",
"418 885 LINE",
"286 885 LINE",
"202 689 LINE"
);
}
);
width = 555;
}
);
leftKerningGroup = S;
note = Sacute;
rightKerningGroup = S;
unicode = 015A;
},
{
glyphname = Scaron;
lastChange = "2015-10-24 07:37:55 +0000";
layers = (
{
layerId = "476303D8-9A2F-423D-8E21-2B4181C6C8D8";
name = SemiBold;
paths = (
{
closed = 1;
nodes = (
"437 -10 OFFCURVE",
"524 66 OFFCURVE",
"524 180 CURVE SMOOTH",
"524 276 OFFCURVE",
"487 342 OFFCURVE",
"329 385 CURVE SMOOTH",
"226 412 OFFCURVE",
"195 423 OFFCURVE",
"195 465 CURVE SMOOTH",
"195 513 OFFCURVE",
"244 521 OFFCURVE",
"316 521 CURVE SMOOTH",
"370 521 OFFCURVE",
"429 511 OFFCURVE",
"487 488 CURVE",
"487 626 LINE",
"443 641 OFFCURVE",
"366 654 OFFCURVE",
"292 654 CURVE SMOOTH",
"120 654 OFFCURVE",
"31 587 OFFCURVE",
"31 464 CURVE SMOOTH",
"31 362 OFFCURVE",
"77 313 OFFCURVE",
"209 274 CURVE SMOOTH",
"320 242 OFFCURVE",
"359 230 OFFCURVE",
"359 180 CURVE SMOOTH",
"359 130 OFFCURVE",
"320 121 OFFCURVE",
"240 121 CURVE SMOOTH",
"176 121 OFFCURVE",
"100 138 OFFCURVE",
"41 164 CURVE",
"41 27 LINE",
"94 3 OFFCURVE",
"171 -10 OFFCURVE",
"256 -10 CURVE SMOOTH"
);
},
{
closed = 1;
nodes = (
"326 688 LINE",
"471 875 LINE",
"351 875 LINE",
"276 771 LINE",
"204 875 LINE",
"81 875 LINE",
"226 688 LINE"
);
}
);
width = 555;
}
);
leftKerningGroup = S;
note = Scaron;
rightKerningGroup = S;
unicode = 0160;
},
{
glyphname = Scedilla;
lastChange = "2015-10-24 07:37:55 +0000";
layers = (
{
layerId = "476303D8-9A2F-423D-8E21-2B4181C6C8D8";
name = SemiBold;
paths = (
{
closed = 1;
nodes = (
"437 -10 OFFCURVE",
"524 66 OFFCURVE",
"524 180 CURVE SMOOTH",
"524 276 OFFCURVE",
"487 342 OFFCURVE",
"329 385 CURVE SMOOTH",
"226 412 OFFCURVE",
"195 423 OFFCURVE",
"195 465 CURVE SMOOTH",
"195 513 OFFCURVE",
"244 521 OFFCURVE",
"316 521 CURVE SMOOTH",
"370 521 OFFCURVE",
"429 511 OFFCURVE",
"487 488 CURVE",
"487 626 LINE",
"443 641 OFFCURVE",
"366 654 OFFCURVE",
"292 654 CURVE SMOOTH",
"120 654 OFFCURVE",
"31 587 OFFCURVE",
"31 464 CURVE SMOOTH",
"31 362 OFFCURVE",
"77 313 OFFCURVE",
"209 274 CURVE SMOOTH",
"320 242 OFFCURVE",
"359 230 OFFCURVE",
"359 180 CURVE SMOOTH",
"359 130 OFFCURVE",
"320 121 OFFCURVE",
"240 121 CURVE SMOOTH",
"176 121 OFFCURVE",
"100 138 OFFCURVE",
"41 164 CURVE",
"41 27 LINE",
"94 3 OFFCURVE",
"171 -10 OFFCURVE",
"256 -10 CURVE SMOOTH"
);
},
{
closed = 1;
nodes = (
"360 -240 OFFCURVE",
"410 -202 OFFCURVE",
"410 -136 CURVE SMOOTH",
"410 -80 OFFCURVE",
"376 -43 OFFCURVE",
"301 -43 CURVE",
"316 0 LINE",
"220 0 LINE",
"191 -100 LINE",
"245 -100 LINE SMOOTH",
"284 -100 OFFCURVE",
"310 -103 OFFCURVE",
"310 -134 CURVE SMOOTH",
"310 -163 OFFCURVE",
"289 -169 OFFCURVE",
"234 -169 CURVE SMOOTH",
"214 -169 OFFCURVE",
"192 -166 OFFCURVE",
"174 -161 CURVE",
"174 -232 LINE",
"189 -236 OFFCURVE",
"230 -240 OFFCURVE",
"253 -240 CURVE SMOOTH"
);
}
);
width = 555;
}
);
leftKerningGroup = S;
note = Scedilla;
rightKerningGroup = S;
unicode = 015E;
},
{
glyphname = Scircumflex;
lastChange = "2015-10-24 07:37:55 +0000";
layers = (
{
layerId = "476303D8-9A2F-423D-8E21-2B4181C6C8D8";
name = SemiBold;
paths = (
{
closed = 1;
nodes = (
"437 -10 OFFCURVE",
"524 66 OFFCURVE",
"524 180 CURVE SMOOTH",
"524 276 OFFCURVE",
"487 342 OFFCURVE",
"329 385 CURVE SMOOTH",
"226 412 OFFCURVE",
"195 423 OFFCURVE",
"195 465 CURVE SMOOTH",
"195 513 OFFCURVE",
"244 521 OFFCURVE",
"316 521 CURVE SMOOTH",
"370 521 OFFCURVE",
"429 511 OFFCURVE",
"487 488 CURVE",
"487 626 LINE",
"443 641 OFFCURVE",
"366 654 OFFCURVE",
"292 654 CURVE SMOOTH",
"120 654 OFFCURVE",
"31 587 OFFCURVE",
"31 464 CURVE SMOOTH",
"31 362 OFFCURVE",
"77 313 OFFCURVE",
"209 274 CURVE SMOOTH",
"320 242 OFFCURVE",
"359 230 OFFCURVE",
"359 180 CURVE SMOOTH",
"359 130 OFFCURVE",
"320 121 OFFCURVE",
"240 121 CURVE SMOOTH",
"176 121 OFFCURVE",
"100 138 OFFCURVE",
"41 164 CURVE",
"41 27 LINE",
"94 3 OFFCURVE",
"171 -10 OFFCURVE",
"256 -10 CURVE SMOOTH"
);
},
{
closed = 1;
nodes = (
"194 689 LINE",
"266 793 LINE",
"341 689 LINE",
"461 689 LINE",
"316 876 LINE",
"216 876 LINE",
"71 689 LINE"
);
}
);
width = 555;
}
);
leftKerningGroup = S;
note = Scircumflex;
rightKerningGroup = S;
unicode = 015C;
},
{
glyphname = Scommaaccent;
lastChange = "2015-10-24 07:37:55 +0000";
layers = (
{
layerId = "476303D8-9A2F-423D-8E21-2B4181C6C8D8";
name = SemiBold;
paths = (
{
closed = 1;
nodes = (
"437 -10 OFFCURVE",
"524 66 OFFCURVE",
"524 180 CURVE SMOOTH",
"524 276 OFFCURVE",
"487 342 OFFCURVE",
"329 385 CURVE SMOOTH",
"226 412 OFFCURVE",
"195 423 OFFCURVE",
"195 465 CURVE SMOOTH",
"195 513 OFFCURVE",
"244 521 OFFCURVE",
"316 521 CURVE SMOOTH",
"370 521 OFFCURVE",
"429 511 OFFCURVE",
"487 488 CURVE",
"487 626 LINE",
"443 641 OFFCURVE",
"366 654 OFFCURVE",
"292 654 CURVE SMOOTH",
"120 654 OFFCURVE",
"31 587 OFFCURVE",
"31 464 CURVE SMOOTH",
"31 362 OFFCURVE",
"77 313 OFFCURVE",
"209 274 CURVE SMOOTH",
"320 242 OFFCURVE",
"359 230 OFFCURVE",
"359 180 CURVE SMOOTH",
"359 130 OFFCURVE",
"320 121 OFFCURVE",
"240 121 CURVE SMOOTH",
"176 121 OFFCURVE",
"100 138 OFFCURVE",
"41 164 CURVE",
"41 27 LINE",
"94 3 OFFCURVE",
"171 -10 OFFCURVE",
"256 -10 CURVE SMOOTH"
);
},
{
closed = 1;
nodes = (
"305 -231 LINE",
"350 -45 LINE",
"217 -45 LINE",
"187 -231 LINE"
);
}
);
width = 555;
}
);
leftKerningGroup = S;
note = Scommaaccent;
rightKerningGroup = S;
unicode = 0218;
},
{
glyphname = Sdotaccent;
lastChange = "2015-10-24 07:37:56 +0000";
layers = (
{
layerId = "476303D8-9A2F-423D-8E21-2B4181C6C8D8";
name = SemiBold;
paths = (
{
closed = 1;
nodes = (
"437 -10 OFFCURVE",
"524 66 OFFCURVE",
"524 180 CURVE SMOOTH",
"524 276 OFFCURVE",
"487 342 OFFCURVE",
"329 385 CURVE SMOOTH",
"226 412 OFFCURVE",
"195 423 OFFCURVE",
"195 465 CURVE SMOOTH",
"195 513 OFFCURVE",
"244 521 OFFCURVE",
"316 521 CURVE SMOOTH",
"370 521 OFFCURVE",
"429 511 OFFCURVE",
"487 488 CURVE",
"487 626 LINE",
"443 641 OFFCURVE",
"366 654 OFFCURVE",
"292 654 CURVE SMOOTH",
"120 654 OFFCURVE",
"31 587 OFFCURVE",
"31 464 CURVE SMOOTH",
"31 362 OFFCURVE",
"77 313 OFFCURVE",
"209 274 CURVE SMOOTH",
"320 242 OFFCURVE",
"359 230 OFFCURVE",
"359 180 CURVE SMOOTH",
"359 130 OFFCURVE",
"320 121 OFFCURVE",
"240 121 CURVE SMOOTH",
"176 121 OFFCURVE",
"100 138 OFFCURVE",
"41 164 CURVE",
"41 27 LINE",
"94 3 OFFCURVE",
"171 -10 OFFCURVE",
"256 -10 CURVE SMOOTH"
);
},
{
closed = 1;
nodes = (
"330 714 LINE",
"330 823 LINE",
"213 823 LINE",
"213 714 LINE"
);
}
);
width = 555;
}
);
leftKerningGroup = S;
note = Sdotaccent;
rightKerningGroup = S;
unicode = 1E60;
},
{
glyphname = Sdotbelow;
lastChange = "2015-10-24 07:37:55 +0000";
layers = (
{
layerId = "476303D8-9A2F-423D-8E21-2B4181C6C8D8";
name = SemiBold;
paths = (
{
closed = 1;
nodes = (
"437 -10 OFFCURVE",
"524 66 OFFCURVE",
"524 180 CURVE SMOOTH",
"524 276 OFFCURVE",
"487 342 OFFCURVE",
"329 385 CURVE SMOOTH",
"226 412 OFFCURVE",
"195 423 OFFCURVE",
"195 465 CURVE SMOOTH",
"195 513 OFFCURVE",
"244 521 OFFCURVE",
"316 521 CURVE SMOOTH",
"370 521 OFFCURVE",
"429 511 OFFCURVE",
"487 488 CURVE",
"487 626 LINE",
"443 641 OFFCURVE",
"366 654 OFFCURVE",
"292 654 CURVE SMOOTH",
"120 654 OFFCURVE",
"31 587 OFFCURVE",
"31 464 CURVE SMOOTH",
"31 362 OFFCURVE",
"77 313 OFFCURVE",
"209 274 CURVE SMOOTH",
"320 242 OFFCURVE",
"359 230 OFFCURVE",
"359 180 CURVE SMOOTH",
"359 130 OFFCURVE",
"320 121 OFFCURVE",
"240 121 CURVE SMOOTH",
"176 121 OFFCURVE",
"100 138 OFFCURVE",
"41 164 CURVE",
"41 27 LINE",
"94 3 OFFCURVE",
"171 -10 OFFCURVE",
"256 -10 CURVE SMOOTH"
);
},
{
closed = 1;
nodes = (
"331 -179 LINE",
"331 -70 LINE",
"213 -70 LINE",
"213 -179 LINE"
);
}
);
width = 555;
}
);
leftKerningGroup = S;
note = Sdotbelow;
rightKerningGroup = S;
unicode = 1E62;
},
{
glyphname = Germandbls;
lastChange = "2015-10-24 07:37:55 +0000";
layers = (
{
layerId = "476303D8-9A2F-423D-8E21-2B4181C6C8D8";
name = SemiBold;
paths = (
{
closed = 1;
nodes = (
"524 -10 OFFCURVE",
"602 67 OFFCURVE",
"602 180 CURVE SMOOTH",
"602 270 OFFCURVE",
"541 330 OFFCURVE",
"457 330 CURVE SMOOTH",
"435 330 LINE",
"580 427 LINE",
"580 551 OFFCURVE",
"502 654 OFFCURVE",
"316 654 CURVE SMOOTH",
"144 654 OFFCURVE",
"46 562 OFFCURVE",
"46 413 CURVE SMOOTH",
"46 0 LINE",
"198 0 LINE",
"198 412 LINE SMOOTH",
"198 481 OFFCURVE",
"234 518 OFFCURVE",
"316 518 CURVE SMOOTH",
"393 518 OFFCURVE",
"429 491 OFFCURVE",
"429 455 CURVE",
"279 354 LINE",
"279 245 LINE",
"362 245 LINE SMOOTH",
"413 245 OFFCURVE",
"443 229 OFFCURVE",
"443 186 CURVE SMOOTH",
"443 140 OFFCURVE",
"416 117 OFFCURVE",
"359 117 CURVE SMOOTH",
"325 117 OFFCURVE",
"285 124 OFFCURVE",
"257 136 CURVE",
"257 12 LINE",
"294 -2 OFFCURVE",
"343 -10 OFFCURVE",
"397 -10 CURVE SMOOTH"
);
}
);
width = 633;
}
);
note = uni1E9E;
unicode = 1E9E;
},
{
glyphname = Schwa;
lastChange = "2015-10-24 07:37:55 +0000";
layers = (
{
layerId = "476303D8-9A2F-423D-8E21-2B4181C6C8D8";
name = SemiBold;
paths = (
{
closed = 1;
nodes = (
"555 -10 OFFCURVE",
"653 115 OFFCURVE",
"653 313 CURVE SMOOTH",
"653 529 OFFCURVE",
"530 654 OFFCURVE",
"307 654 CURVE SMOOTH",
"216 654 OFFCURVE",
"127 634 OFFCURVE",
"66 611 CURVE",
"66 497 LINE",
"116 519 OFFCURVE",
"210 537 OFFCURVE",
"272 537 CURVE SMOOTH",
"427 537 OFFCURVE",
"492 504 OFFCURVE",
"502 389 CURVE",
"31 389 LINE",
"31 271 LINE SMOOTH",
"31 98 OFFCURVE",
"135 -10 OFFCURVE",
"333 -10 CURVE SMOOTH"
);
},
{
closed = 1;
nodes = (
"231 100 OFFCURVE",
"173 151 OFFCURVE",
"173 235 CURVE SMOOTH",
"173 275 LINE",
"502 275 LINE",
"502 159 OFFCURVE",
"450 100 OFFCURVE",
"333 100 CURVE SMOOTH"
);
}
);
width = 684;
}
);
note = uni018F;
unicode = 018F;
},
{
glyphname = T;
lastChange = "2015-10-24 08:13:27 +0000";
layers = (
{
layerId = "476303D8-9A2F-423D-8E21-2B4181C6C8D8";
name = SemiBold;
paths = (
{
closed = 1;
nodes = (
"361 0 LINE",
"361 520 LINE",
"550 520 LINE",
"550 644 LINE",
"11 644 LINE",
"11 520 LINE",
"200 520 LINE",
"200 0 LINE"
);
}
);
width = 561;
}
);
leftKerningGroup = T;
note = T;
rightKerningGroup = T;
unicode = 0054;
},
{
glyphname = Tbar;
lastChange = "2015-11-25 10:08:34 +0000";
layers = (
{
layerId = "476303D8-9A2F-423D-8E21-2B4181C6C8D8";
name = SemiBold;
paths = (
{
closed = 1;
nodes = (
"361 0 LINE",
"361 279 LINE",
"467 279 LINE",
"467 392 LINE",
"361 392 LINE",
"361 520 LINE",
"550 520 LINE",
"550 644 LINE",
"11 644 LINE",
"11 520 LINE",
"200 520 LINE",
"200 392 LINE",
"91 392 LINE",
"91 279 LINE",
"200 279 LINE",
"200 0 LINE"
);
}
);
width = 561;
}
);
leftKerningGroup = T;
note = Tbar;
rightKerningGroup = T;
unicode = 0166;
},
{
glyphname = Tcaron;
lastChange = "2015-11-25 10:08:37 +0000";
layers = (
{
layerId = "476303D8-9A2F-423D-8E21-2B4181C6C8D8";
name = SemiBold;
paths = (
{
closed = 1;
nodes = (
"361 0 LINE",
"361 520 LINE",
"550 520 LINE",
"550 644 LINE",
"11 644 LINE",
"11 520 LINE",
"200 520 LINE",
"200 0 LINE"
);
},
{
closed = 1;
nodes = (
"330 688 LINE",
"475 875 LINE",
"355 875 LINE",
"280 771 LINE",
"208 875 LINE",
"85 875 LINE",
"230 688 LINE"
);
}
);
width = 561;
}
);
leftKerningGroup = T;
note = Tcaron;
rightKerningGroup = T;
unicode = 0164;
},
{
glyphname = Tcedilla;
lastChange = "2015-11-25 10:08:40 +0000";
layers = (
{
layerId = "476303D8-9A2F-423D-8E21-2B4181C6C8D8";
name = SemiBold;
paths = (
{
closed = 1;
nodes = (
"361 0 LINE",
"361 520 LINE",
"550 520 LINE",
"550 644 LINE",
"11 644 LINE",
"11 520 LINE",
"200 520 LINE",
"200 0 LINE"
);
},
{
closed = 1;
nodes = (
"371 -240 OFFCURVE",
"421 -202 OFFCURVE",
"421 -136 CURVE SMOOTH",
"421 -80 OFFCURVE",
"387 -43 OFFCURVE",
"312 -43 CURVE",
"327 0 LINE",
"231 0 LINE",
"202 -100 LINE",
"256 -100 LINE SMOOTH",
"295 -100 OFFCURVE",
"321 -103 OFFCURVE",
"321 -134 CURVE SMOOTH",
"321 -163 OFFCURVE",
"300 -169 OFFCURVE",
"245 -169 CURVE SMOOTH",
"225 -169 OFFCURVE",
"203 -166 OFFCURVE",
"185 -161 CURVE",
"185 -232 LINE",
"200 -236 OFFCURVE",
"241 -240 OFFCURVE",
"264 -240 CURVE SMOOTH"
);
}
);
width = 561;
}
);
leftKerningGroup = T;
note = Tcedilla;
rightKerningGroup = T;
unicode = 0162;
},
{
glyphname = Tcommaaccent;
lastChange = "2015-11-25 10:08:48 +0000";
layers = (
{
layerId = "476303D8-9A2F-423D-8E21-2B4181C6C8D8";
name = SemiBold;
paths = (
{
closed = 1;
nodes = (
"361 0 LINE",
"361 520 LINE",
"550 520 LINE",
"550 644 LINE",
"11 644 LINE",
"11 520 LINE",
"200 520 LINE",
"200 0 LINE"
);
},
{
closed = 1;
nodes = (
"296 -258 LINE",
"349 -45 LINE",
"220 -45 LINE",
"187 -258 LINE"
);
}
);
width = 561;
}
);
leftKerningGroup = T;
note = Tcommaaccent;
rightKerningGroup = T;
unicode = 021A;
},
{
glyphname = Tdotbelow;
lastChange = "2015-11-25 10:08:53 +0000";
layers = (
{
layerId = "476303D8-9A2F-423D-8E21-2B4181C6C8D8";
name = SemiBold;
paths = (
{
closed = 1;
nodes = (
"361 0 LINE",
"361 520 LINE",
"550 520 LINE",
"550 644 LINE",
"11 644 LINE",
"11 520 LINE",
"200 520 LINE",
"200 0 LINE"
);
},
{
closed = 1;
nodes = (
"337 -174 LINE",
"337 -65 LINE",
"219 -65 LINE",
"219 -174 LINE"
);
}
);
width = 561;
}
);
leftKerningGroup = T;
note = Tdotbelow;
rightKerningGroup = T;
unicode = 1E6C;
},
{
glyphname = Tlinebelow;
lastChange = "2015-11-25 10:08:56 +0000";
layers = (
{
layerId = "476303D8-9A2F-423D-8E21-2B4181C6C8D8";
name = SemiBold;
paths = (
{
closed = 1;
nodes = (
"361 0 LINE",
"361 520 LINE",
"550 520 LINE",
"550 644 LINE",
"11 644 LINE",
"11 520 LINE",
"200 520 LINE",
"200 0 LINE"
);
},
{
closed = 1;
nodes = (
"438 -161 LINE",
"438 -63 LINE",
"120 -63 LINE",
"120 -161 LINE"
);
}
);
width = 561;
}
);
leftKerningGroup = T;
note = Tlinebelow;
rightKerningGroup = T;
unicode = 1E6E;
},
{
glyphname = U;
lastChange = "2015-10-24 07:37:55 +0000";
layers = (
{
layerId = "476303D8-9A2F-423D-8E21-2B4181C6C8D8";
name = SemiBold;
paths = (
{
closed = 1;
nodes = (
"521 -10 OFFCURVE",
"638 79 OFFCURVE",
"638 245 CURVE SMOOTH",
"638 644 LINE",
"477 644 LINE",
"477 260 LINE SMOOTH",
"477 170 OFFCURVE",
"429 127 OFFCURVE",
"342 127 CURVE SMOOTH",
"255 127 OFFCURVE",
"207 170 OFFCURVE",
"207 260 CURVE SMOOTH",
"207 644 LINE",
"46 644 LINE",
"46 245 LINE SMOOTH",
"46 79 OFFCURVE",
"163 -10 OFFCURVE",
"342 -10 CURVE SMOOTH"
);
}
);
width = 684;
}
);
leftKerningGroup = U;
note = U;
rightKerningGroup = U;
unicode = 0055;
},
{
glyphname = Uacute;
lastChange = "2015-10-24 07:37:55 +0000";
layers = (
{
layerId = "476303D8-9A2F-423D-8E21-2B4181C6C8D8";
name = SemiBold;
paths = (
{
closed = 1;
nodes = (
"521 -10 OFFCURVE",
"638 79 OFFCURVE",
"638 245 CURVE SMOOTH",
"638 644 LINE",
"477 644 LINE",
"477 260 LINE SMOOTH",
"477 170 OFFCURVE",
"429 127 OFFCURVE",
"342 127 CURVE SMOOTH",
"255 127 OFFCURVE",
"207 170 OFFCURVE",
"207 260 CURVE SMOOTH",
"207 644 LINE",
"46 644 LINE",
"46 245 LINE SMOOTH",
"46 79 OFFCURVE",
"163 -10 OFFCURVE",
"342 -10 CURVE SMOOTH"
);
},
{
closed = 1;
nodes = (
"401 688 LINE",
"493 884 LINE",
"361 884 LINE",
"277 688 LINE"
);
}
);
width = 684;
}
);
leftKerningGroup = U;
note = Uacute;
rightKerningGroup = U;
unicode = 00DA;
},
{
glyphname = Ubreve;
lastChange = "2015-10-24 07:37:55 +0000";
layers = (
{
layerId = "476303D8-9A2F-423D-8E21-2B4181C6C8D8";
name = SemiBold;
paths = (
{
closed = 1;
nodes = (
"521 -10 OFFCURVE",
"638 79 OFFCURVE",
"638 245 CURVE SMOOTH",
"638 644 LINE",
"477 644 LINE",
"477 260 LINE SMOOTH",
"477 170 OFFCURVE",
"429 127 OFFCURVE",
"342 127 CURVE SMOOTH",
"255 127 OFFCURVE",
"207 170 OFFCURVE",
"207 260 CURVE SMOOTH",
"207 644 LINE",
"46 644 LINE",
"46 245 LINE SMOOTH",
"46 79 OFFCURVE",
"163 -10 OFFCURVE",
"342 -10 CURVE SMOOTH"
);
},
{
closed = 1;
nodes = (
"442 688 OFFCURVE",
"513 750 OFFCURVE",
"513 860 CURVE",
"407 860 LINE",
"407 814 OFFCURVE",
"387 778 OFFCURVE",
"338 778 CURVE SMOOTH",
"290 778 OFFCURVE",
"271 814 OFFCURVE",
"271 860 CURVE",
"165 860 LINE",
"165 750 OFFCURVE",
"235 688 OFFCURVE",
"338 688 CURVE SMOOTH"
);
}
);
width = 684;
}
);
leftKerningGroup = U;
note = Ubreve;
rightKerningGroup = U;
unicode = 016C;
},
{
glyphname = Ucaron;
lastChange = "2015-10-24 07:37:55 +0000";
layers = (
{
layerId = "476303D8-9A2F-423D-8E21-2B4181C6C8D8";
name = SemiBold;
paths = (
{
closed = 1;
nodes = (
"521 -10 OFFCURVE",
"638 79 OFFCURVE",
"638 245 CURVE SMOOTH",
"638 644 LINE",
"477 644 LINE",
"477 260 LINE SMOOTH",
"477 170 OFFCURVE",
"429 127 OFFCURVE",
"342 127 CURVE SMOOTH",
"255 127 OFFCURVE",
"207 170 OFFCURVE",
"207 260 CURVE SMOOTH",
"207 644 LINE",
"46 644 LINE",
"46 245 LINE SMOOTH",
"46 79 OFFCURVE",
"163 -10 OFFCURVE",
"342 -10 CURVE SMOOTH"
);
},
{
closed = 1;
nodes = (
"391 688 LINE",
"536 875 LINE",
"416 875 LINE",
"341 771 LINE",
"269 875 LINE",
"146 875 LINE",
"291 688 LINE"
);
}
);
width = 684;
}
);
leftKerningGroup = U;
note = Ucaron;
rightKerningGroup = U;
unicode = 01D3;
},
{
glyphname = Ucircumflex;
lastChange = "2015-10-24 07:37:55 +0000";
layers = (
{
layerId = "476303D8-9A2F-423D-8E21-2B4181C6C8D8";
name = SemiBold;
paths = (
{
closed = 1;
nodes = (
"521 -10 OFFCURVE",
"638 79 OFFCURVE",
"638 245 CURVE SMOOTH",
"638 644 LINE",
"477 644 LINE",
"477 260 LINE SMOOTH",
"477 170 OFFCURVE",
"429 127 OFFCURVE",
"342 127 CURVE SMOOTH",
"255 127 OFFCURVE",
"207 170 OFFCURVE",
"207 260 CURVE SMOOTH",
"207 644 LINE",
"46 644 LINE",
"46 245 LINE SMOOTH",
"46 79 OFFCURVE",
"163 -10 OFFCURVE",
"342 -10 CURVE SMOOTH"
);
},
{
closed = 1;
nodes = (
"270 687 LINE",
"342 791 LINE",
"417 687 LINE",
"537 687 LINE",
"392 874 LINE",
"292 874 LINE",
"147 687 LINE"
);
}
);
width = 684;
}
);
leftKerningGroup = U;
note = Ucircumflex;
rightKerningGroup = U;
unicode = 00DB;
},
{
glyphname = Udieresis;
lastChange = "2015-10-24 07:37:55 +0000";
layers = (
{
layerId = "476303D8-9A2F-423D-8E21-2B4181C6C8D8";
name = SemiBold;
paths = (
{
closed = 1;
nodes = (
"521 -10 OFFCURVE",
"638 79 OFFCURVE",
"638 245 CURVE SMOOTH",
"638 644 LINE",
"477 644 LINE",
"477 260 LINE SMOOTH",
"477 170 OFFCURVE",
"429 127 OFFCURVE",
"342 127 CURVE SMOOTH",
"255 127 OFFCURVE",
"207 170 OFFCURVE",
"207 260 CURVE SMOOTH",
"207 644 LINE",
"46 644 LINE",
"46 245 LINE SMOOTH",
"46 79 OFFCURVE",
"163 -10 OFFCURVE",
"342 -10 CURVE SMOOTH"
);
},
{
closed = 1;
nodes = (
"298 714 LINE",
"298 823 LINE",
"180 823 LINE",
"180 714 LINE"
);
},
{
closed = 1;
nodes = (
"504 714 LINE",
"504 823 LINE",
"386 823 LINE",
"386 714 LINE"
);
}
);
width = 684;
}
);
leftKerningGroup = U;
note = Udieresis;
rightKerningGroup = U;
unicode = 00DC;
},
{
glyphname = Udieresisacute;
lastChange = "2015-10-24 07:37:55 +0000";
layers = (
{
layerId = "476303D8-9A2F-423D-8E21-2B4181C6C8D8";
name = SemiBold;
paths = (
{
closed = 1;
nodes = (
"521 -10 OFFCURVE",
"638 79 OFFCURVE",
"638 245 CURVE SMOOTH",
"638 644 LINE",
"477 644 LINE",
"477 260 LINE SMOOTH",
"477 170 OFFCURVE",
"429 127 OFFCURVE",
"342 127 CURVE SMOOTH",
"255 127 OFFCURVE",
"207 170 OFFCURVE",
"207 260 CURVE SMOOTH",
"207 644 LINE",
"46 644 LINE",
"46 245 LINE SMOOTH",
"46 79 OFFCURVE",
"163 -10 OFFCURVE",
"342 -10 CURVE SMOOTH"
);
},
{
closed = 1;
nodes = (
"295 689 LINE",
"295 792 LINE",
"181 792 LINE",
"181 689 LINE"
);
},
{
closed = 1;
nodes = (
"503 689 LINE",
"503 792 LINE",
"389 792 LINE",
"389 689 LINE"
);
},
{
closed = 1;
nodes = (
"395 815 LINE",
"463 948 LINE",
"342 948 LINE",
"284 815 LINE"
);
}
);
width = 684;
}
);
leftKerningGroup = U;
note = Udieresisacute;
rightKerningGroup = U;
unicode = 01D7;
},
{
glyphname = Udieresiscaron;
lastChange = "2015-10-24 07:37:55 +0000";
layers = (
{
layerId = "476303D8-9A2F-423D-8E21-2B4181C6C8D8";
name = SemiBold;
paths = (
{
closed = 1;
nodes = (
"521 -10 OFFCURVE",
"638 79 OFFCURVE",
"638 245 CURVE SMOOTH",
"638 644 LINE",
"477 644 LINE",
"477 260 LINE SMOOTH",
"477 170 OFFCURVE",
"429 127 OFFCURVE",
"342 127 CURVE SMOOTH",
"255 127 OFFCURVE",
"207 170 OFFCURVE",
"207 260 CURVE SMOOTH",
"207 644 LINE",
"46 644 LINE",
"46 245 LINE SMOOTH",
"46 79 OFFCURVE",
"163 -10 OFFCURVE",
"342 -10 CURVE SMOOTH"
);
},
{
closed = 1;
nodes = (
"294 688 LINE",
"294 791 LINE",
"180 791 LINE",
"180 688 LINE"
);
},
{
closed = 1;
nodes = (
"502 688 LINE",
"502 791 LINE",
"388 791 LINE",
"388 688 LINE"
);
},
{
closed = 1;
nodes = (
"398 812 LINE",
"517 939 LINE",
"401 939 LINE",
"343 866 LINE",
"286 939 LINE",
"167 939 LINE",
"287 812 LINE"
);
}
);
width = 684;
}
);
leftKerningGroup = U;
note = Udieresiscaron;
rightKerningGroup = U;
unicode = 01D9;
},
{
glyphname = Udieresisgrave;
lastChange = "2015-10-24 07:37:55 +0000";
layers = (
{
layerId = "476303D8-9A2F-423D-8E21-2B4181C6C8D8";
name = SemiBold;
paths = (
{
closed = 1;
nodes = (
"521 -10 OFFCURVE",
"638 79 OFFCURVE",
"638 245 CURVE SMOOTH",
"638 644 LINE",
"477 644 LINE",
"477 260 LINE SMOOTH",
"477 170 OFFCURVE",
"429 127 OFFCURVE",
"342 127 CURVE SMOOTH",
"255 127 OFFCURVE",
"207 170 OFFCURVE",
"207 260 CURVE SMOOTH",
"207 644 LINE",
"46 644 LINE",
"46 245 LINE SMOOTH",
"46 79 OFFCURVE",
"163 -10 OFFCURVE",
"342 -10 CURVE SMOOTH"
);
},
{
closed = 1;
nodes = (
"295 688 LINE",
"295 791 LINE",
"181 791 LINE",
"181 688 LINE"
);
},
{
closed = 1;
nodes = (
"503 688 LINE",
"503 791 LINE",
"389 791 LINE",
"389 688 LINE"
);
},
{
closed = 1;
nodes = (
"400 814 LINE",
"342 947 LINE",
"221 947 LINE",
"289 814 LINE"
);
}
);
width = 684;
}
);
leftKerningGroup = U;
note = Udieresisgrave;
rightKerningGroup = U;
unicode = 01DB;
},
{
glyphname = Udieresismacron;
lastChange = "2015-11-25 10:09:04 +0000";
layers = (
{
layerId = "476303D8-9A2F-423D-8E21-2B4181C6C8D8";
name = SemiBold;
paths = (
{
closed = 1;
nodes = (
"521 -10 OFFCURVE",
"638 79 OFFCURVE",
"638 245 CURVE SMOOTH",
"638 644 LINE",
"477 644 LINE",
"477 260 LINE SMOOTH",
"477 170 OFFCURVE",
"429 127 OFFCURVE",
"342 127 CURVE SMOOTH",
"255 127 OFFCURVE",
"207 170 OFFCURVE",
"207 260 CURVE SMOOTH",
"207 644 LINE",
"46 644 LINE",
"46 245 LINE SMOOTH",
"46 79 OFFCURVE",
"163 -10 OFFCURVE",
"342 -10 CURVE SMOOTH"
);
},
{
closed = 1;
nodes = (
"298 688 LINE",
"298 797 LINE",
"180 797 LINE",
"180 688 LINE"
);
},
{
closed = 1;
nodes = (
"504 688 LINE",
"504 797 LINE",
"386 797 LINE",
"386 688 LINE"
);
},
{
closed = 1;
nodes = (
"500 844 LINE",
"500 941 LINE",
"182 941 LINE",
"182 844 LINE"
);
}
);
width = 684;
}
);
leftKerningGroup = U;
note = Udieresismacron;
rightKerningGroup = U;
unicode = 01D5;
},
{
glyphname = Udotbelow;
lastChange = "2015-10-24 07:37:55 +0000";
layers = (
{
layerId = "476303D8-9A2F-423D-8E21-2B4181C6C8D8";
name = SemiBold;
paths = (
{
closed = 1;
nodes = (
"521 -10 OFFCURVE",
"638 79 OFFCURVE",
"638 245 CURVE SMOOTH",
"638 644 LINE",
"477 644 LINE",
"477 260 LINE SMOOTH",
"477 170 OFFCURVE",
"429 127 OFFCURVE",
"342 127 CURVE SMOOTH",
"255 127 OFFCURVE",
"207 170 OFFCURVE",
"207 260 CURVE SMOOTH",
"207 644 LINE",
"46 644 LINE",
"46 245 LINE SMOOTH",
"46 79 OFFCURVE",
"163 -10 OFFCURVE",
"342 -10 CURVE SMOOTH"
);
},
{
closed = 1;
nodes = (
"400 -179 LINE",
"400 -70 LINE",
"282 -70 LINE",
"282 -179 LINE"
);
}
);
width = 684;
}
);
leftKerningGroup = U;
note = Udotbelow;
rightKerningGroup = U;
unicode = 1EE4;
},
{
glyphname = Ugrave;
lastChange = "2015-10-24 07:37:55 +0000";
layers = (
{
layerId = "476303D8-9A2F-423D-8E21-2B4181C6C8D8";
name = SemiBold;
paths = (
{
closed = 1;
nodes = (
"521 -10 OFFCURVE",
"638 79 OFFCURVE",
"638 245 CURVE SMOOTH",
"638 644 LINE",
"477 644 LINE",
"477 260 LINE SMOOTH",
"477 170 OFFCURVE",
"429 127 OFFCURVE",
"342 127 CURVE SMOOTH",
"255 127 OFFCURVE",
"207 170 OFFCURVE",
"207 260 CURVE SMOOTH",
"207 644 LINE",
"46 644 LINE",
"46 245 LINE SMOOTH",
"46 79 OFFCURVE",
"163 -10 OFFCURVE",
"342 -10 CURVE SMOOTH"
);
},
{
closed = 1;
nodes = (
"412 688 LINE",
"328 884 LINE",
"196 884 LINE",
"289 688 LINE"
);
}
);
width = 684;
}
);
leftKerningGroup = U;
note = Ugrave;
rightKerningGroup = U;
unicode = 00D9;
},
{
glyphname = Uhookabove;
lastChange = "2015-10-24 07:37:55 +0000";
layers = (
{
layerId = "476303D8-9A2F-423D-8E21-2B4181C6C8D8";
name = SemiBold;
paths = (
{
closed = 1;
nodes = (
"521 -10 OFFCURVE",
"638 79 OFFCURVE",
"638 245 CURVE SMOOTH",
"638 644 LINE",
"477 644 LINE",
"477 260 LINE SMOOTH",
"477 170 OFFCURVE",
"429 127 OFFCURVE",
"342 127 CURVE SMOOTH",
"255 127 OFFCURVE",
"207 170 OFFCURVE",
"207 260 CURVE SMOOTH",
"207 644 LINE",
"46 644 LINE",
"46 245 LINE SMOOTH",
"46 79 OFFCURVE",
"163 -10 OFFCURVE",
"342 -10 CURVE SMOOTH"
);
},
{
closed = 1;
nodes = (
"401 688 LINE",
"401 732 LINE",
"460 746 OFFCURVE",
"486 772 OFFCURVE",
"486 829 CURVE SMOOTH",
"486 888 OFFCURVE",
"438 928 OFFCURVE",
"350 928 CURVE SMOOTH",
"307 928 OFFCURVE",
"269 923 OFFCURVE",
"243 914 CURVE",
"243 842 LINE",
"259 847 OFFCURVE",
"284 851 OFFCURVE",
"303 851 CURVE SMOOTH",
"344 851 OFFCURVE",
"368 840 OFFCURVE",
"368 815 CURVE SMOOTH",
"368 788 OFFCURVE",
"350 773 OFFCURVE",
"279 769 CURVE",
"279 688 LINE"
);
}
);
width = 684;
}
);
leftKerningGroup = U;
note = Uhookabove;
rightKerningGroup = U;
unicode = 1EE6;
},
{
glyphname = Uhorn;
lastChange = "2015-10-24 07:37:55 +0000";
layers = (
{
layerId = "476303D8-9A2F-423D-8E21-2B4181C6C8D8";
name = SemiBold;
paths = (
{
closed = 1;
nodes = (
"520 -10 OFFCURVE",
"638 79 OFFCURVE",
"638 245 CURVE SMOOTH",
"638 479 LINE",
"784 481 OFFCURVE",
"843 532 OFFCURVE",
"843 688 CURVE",
"728 688 LINE",
"728 612 OFFCURVE",
"703 587 OFFCURVE",
"638 585 CURVE",
"638 644 LINE",
"476 644 LINE",
"476 260 LINE SMOOTH",
"476 170 OFFCURVE",
"428 127 OFFCURVE",
"342 127 CURVE SMOOTH",
"255 127 OFFCURVE",
"207 170 OFFCURVE",
"207 260 CURVE SMOOTH",
"207 644 LINE",
"46 644 LINE",
"46 245 LINE SMOOTH",
"46 79 OFFCURVE",
"163 -10 OFFCURVE",
"342 -10 CURVE SMOOTH"
);
}
);
width = 854;
}
);
leftKerningGroup = U;
note = Uhorn;
rightKerningGroup = U;
unicode = 01AF;
},
{
glyphname = Uhornacute;
lastChange = "2015-10-24 07:37:55 +0000";
layers = (
{
layerId = "476303D8-9A2F-423D-8E21-2B4181C6C8D8";
name = SemiBold;
paths = (
{
closed = 1;
nodes = (
"520 -10 OFFCURVE",
"638 79 OFFCURVE",
"638 245 CURVE SMOOTH",
"638 479 LINE",
"784 481 OFFCURVE",
"843 532 OFFCURVE",
"843 688 CURVE",
"728 688 LINE",
"728 612 OFFCURVE",
"703 587 OFFCURVE",
"638 585 CURVE",
"638 644 LINE",
"476 644 LINE",
"476 260 LINE SMOOTH",
"476 170 OFFCURVE",
"428 127 OFFCURVE",
"342 127 CURVE SMOOTH",
"255 127 OFFCURVE",
"207 170 OFFCURVE",
"207 260 CURVE SMOOTH",
"207 644 LINE",
"46 644 LINE",
"46 245 LINE SMOOTH",
"46 79 OFFCURVE",
"163 -10 OFFCURVE",
"342 -10 CURVE SMOOTH"
);
},
{
closed = 1;
nodes = (
"402 688 LINE",
"494 884 LINE",
"362 884 LINE",
"278 688 LINE"
);
}
);
width = 849;
}
);
leftKerningGroup = U;
note = Uhornacute;
rightKerningGroup = U;
unicode = 1EE8;
},
{
glyphname = Uhorndotbelow;
lastChange = "2015-10-24 07:37:55 +0000";
layers = (
{
layerId = "476303D8-9A2F-423D-8E21-2B4181C6C8D8";
name = SemiBold;
paths = (
{
closed = 1;
nodes = (
"520 -10 OFFCURVE",
"638 79 OFFCURVE",
"638 245 CURVE SMOOTH",
"638 479 LINE",
"784 481 OFFCURVE",
"843 532 OFFCURVE",
"843 688 CURVE",
"728 688 LINE",
"728 612 OFFCURVE",
"703 587 OFFCURVE",
"638 585 CURVE",
"638 644 LINE",
"476 644 LINE",
"476 260 LINE SMOOTH",
"476 170 OFFCURVE",
"428 127 OFFCURVE",
"342 127 CURVE SMOOTH",
"255 127 OFFCURVE",
"207 170 OFFCURVE",
"207 260 CURVE SMOOTH",
"207 644 LINE",
"46 644 LINE",
"46 245 LINE SMOOTH",
"46 79 OFFCURVE",
"163 -10 OFFCURVE",
"342 -10 CURVE SMOOTH"
);
},
{
closed = 1;
nodes = (
"402 -179 LINE",
"402 -70 LINE",
"284 -70 LINE",
"284 -179 LINE"
);
}
);
width = 854;
}
);
leftKerningGroup = U;
note = Uhorndotbelow;
rightKerningGroup = U;
unicode = 1EF0;
},
{
glyphname = Uhorngrave;
lastChange = "2015-11-25 10:09:18 +0000";
layers = (
{
layerId = "476303D8-9A2F-423D-8E21-2B4181C6C8D8";
name = SemiBold;
paths = (
{
closed = 1;
nodes = (
"520 -10 OFFCURVE",
"638 79 OFFCURVE",
"638 245 CURVE SMOOTH",
"638 479 LINE",
"784 481 OFFCURVE",
"843 532 OFFCURVE",
"843 688 CURVE",
"728 688 LINE",
"728 612 OFFCURVE",
"703 587 OFFCURVE",
"638 585 CURVE",
"638 644 LINE",
"476 644 LINE",
"476 260 LINE SMOOTH",
"476 170 OFFCURVE",
"428 127 OFFCURVE",
"342 127 CURVE SMOOTH",
"255 127 OFFCURVE",
"207 170 OFFCURVE",
"207 260 CURVE SMOOTH",
"207 644 LINE",
"46 644 LINE",
"46 245 LINE SMOOTH",
"46 79 OFFCURVE",
"163 -10 OFFCURVE",
"342 -10 CURVE SMOOTH"
);
},
{
closed = 1;
nodes = (
"411 688 LINE",
"327 884 LINE",
"195 884 LINE",
"288 688 LINE"
);
}
);
width = 854;
}
);
leftKerningGroup = U;
note = Uhorngrave;
rightKerningGroup = U;
unicode = 1EEA;
},
{
glyphname = Uhornhookabove;
lastChange = "2015-11-25 10:09:22 +0000";
layers = (
{
layerId = "476303D8-9A2F-423D-8E21-2B4181C6C8D8";
name = SemiBold;
paths = (
{
closed = 1;
nodes = (
"520 -10 OFFCURVE",
"638 79 OFFCURVE",
"638 245 CURVE SMOOTH",
"638 479 LINE",
"784 481 OFFCURVE",
"843 532 OFFCURVE",
"843 688 CURVE",
"728 688 LINE",
"728 612 OFFCURVE",
"703 587 OFFCURVE",
"638 585 CURVE",
"638 644 LINE",
"476 644 LINE",
"476 260 LINE SMOOTH",
"476 170 OFFCURVE",
"428 127 OFFCURVE",
"342 127 CURVE SMOOTH",
"255 127 OFFCURVE",
"207 170 OFFCURVE",
"207 260 CURVE SMOOTH",
"207 644 LINE",
"46 644 LINE",
"46 245 LINE SMOOTH",
"46 79 OFFCURVE",
"163 -10 OFFCURVE",
"342 -10 CURVE SMOOTH"
);
},
{
closed = 1;
nodes = (
"390 688 LINE",
"390 732 LINE",
"449 746 OFFCURVE",
"475 772 OFFCURVE",
"475 829 CURVE SMOOTH",
"475 888 OFFCURVE",
"427 928 OFFCURVE",
"339 928 CURVE SMOOTH",
"296 928 OFFCURVE",
"258 923 OFFCURVE",
"232 914 CURVE",
"232 842 LINE",
"248 847 OFFCURVE",
"273 851 OFFCURVE",
"292 851 CURVE SMOOTH",
"333 851 OFFCURVE",
"357 840 OFFCURVE",
"357 815 CURVE SMOOTH",
"357 788 OFFCURVE",
"339 773 OFFCURVE",
"268 769 CURVE",
"268 688 LINE"
);
}
);
width = 854;
}
);
leftKerningGroup = U;
note = Uhornhookabove;
rightKerningGroup = U;
unicode = 1EEC;
},
{
glyphname = Uhorntilde;
lastChange = "2015-10-24 07:37:55 +0000";
layers = (
{
layerId = "476303D8-9A2F-423D-8E21-2B4181C6C8D8";
name = SemiBold;
paths = (
{
closed = 1;
nodes = (
"520 -10 OFFCURVE",
"638 79 OFFCURVE",
"638 245 CURVE SMOOTH",
"638 479 LINE",
"784 481 OFFCURVE",
"843 532 OFFCURVE",
"843 688 CURVE",
"728 688 LINE",
"728 612 OFFCURVE",
"703 587 OFFCURVE",
"638 585 CURVE",
"638 644 LINE",
"476 644 LINE",
"476 260 LINE SMOOTH",
"476 170 OFFCURVE",
"428 127 OFFCURVE",
"342 127 CURVE SMOOTH",
"255 127 OFFCURVE",
"207 170 OFFCURVE",
"207 260 CURVE SMOOTH",
"207 644 LINE",
"46 644 LINE",
"46 245 LINE SMOOTH",
"46 79 OFFCURVE",
"163 -10 OFFCURVE",
"342 -10 CURVE SMOOTH"
);
},
{
closed = 1;
nodes = (
"473 694 OFFCURVE",
"506 708 OFFCURVE",
"519 726 CURVE",
"519 834 LINE",
"502 810 OFFCURVE",
"472 795 OFFCURVE",
"432 795 CURVE SMOOTH",
"373 795 OFFCURVE",
"325 836 OFFCURVE",
"261 836 CURVE SMOOTH",
"224 836 OFFCURVE",
"189 822 OFFCURVE",
"170 804 CURVE",
"170 697 LINE",
"194 721 OFFCURVE",
"225 735 OFFCURVE",
"264 735 CURVE SMOOTH",
"316 735 OFFCURVE",
"373 694 OFFCURVE",
"435 694 CURVE SMOOTH"
);
}
);
width = 854;
}
);
leftKerningGroup = U;
note = Uhorntilde;
rightKerningGroup = U;
unicode = 1EEE;
},
{
glyphname = Uhungarumlaut;
lastChange = "2015-10-24 07:37:56 +0000";
layers = (
{
layerId = "476303D8-9A2F-423D-8E21-2B4181C6C8D8";
name = SemiBold;
paths = (
{
closed = 1;
nodes = (
"521 -10 OFFCURVE",
"638 79 OFFCURVE",
"638 245 CURVE SMOOTH",
"638 644 LINE",
"477 644 LINE",
"477 260 LINE SMOOTH",
"477 170 OFFCURVE",
"429 127 OFFCURVE",
"342 127 CURVE SMOOTH",
"255 127 OFFCURVE",
"207 170 OFFCURVE",
"207 260 CURVE SMOOTH",
"207 644 LINE",
"46 644 LINE",
"46 245 LINE SMOOTH",
"46 79 OFFCURVE",
"163 -10 OFFCURVE",
"342 -10 CURVE SMOOTH"
);
},
{
closed = 1;
nodes = (
"266 687 LINE",
"363 867 LINE",
"224 867 LINE",
"142 687 LINE"
);
},
{
closed = 1;
nodes = (
"497 687 LINE",
"594 867 LINE",
"455 867 LINE",
"373 687 LINE"
);
}
);
width = 684;
}
);
leftKerningGroup = U;
note = Uhungarumlaut;
rightKerningGroup = U;
unicode = 0170;
},
{
glyphname = Umacron;
lastChange = "2015-10-24 07:37:56 +0000";
layers = (
{
layerId = "476303D8-9A2F-423D-8E21-2B4181C6C8D8";
name = SemiBold;
paths = (
{
closed = 1;
nodes = (
"521 -10 OFFCURVE",
"638 79 OFFCURVE",
"638 245 CURVE SMOOTH",
"638 644 LINE",
"477 644 LINE",
"477 260 LINE SMOOTH",
"477 170 OFFCURVE",
"429 127 OFFCURVE",
"342 127 CURVE SMOOTH",
"255 127 OFFCURVE",
"207 170 OFFCURVE",
"207 260 CURVE SMOOTH",
"207 644 LINE",
"46 644 LINE",
"46 245 LINE SMOOTH",
"46 79 OFFCURVE",
"163 -10 OFFCURVE",
"342 -10 CURVE SMOOTH"
);
},
{
closed = 1;
nodes = (
"500 723 LINE",
"500 820 LINE",
"182 820 LINE",
"182 723 LINE"
);
}
);
width = 684;
}
);
leftKerningGroup = U;
note = Umacron;
rightKerningGroup = U;
unicode = 016A;
},
{
glyphname = Uogonek;
lastChange = "2015-10-24 07:37:55 +0000";
layers = (
{
layerId = "476303D8-9A2F-423D-8E21-2B4181C6C8D8";
name = SemiBold;
paths = (
{
closed = 1;
nodes = (
"521 -10 OFFCURVE",
"638 79 OFFCURVE",
"638 245 CURVE SMOOTH",
"638 644 LINE",
"477 644 LINE",
"477 260 LINE SMOOTH",
"477 170 OFFCURVE",
"429 127 OFFCURVE",
"342 127 CURVE SMOOTH",
"255 127 OFFCURVE",
"207 170 OFFCURVE",
"207 260 CURVE SMOOTH",
"207 644 LINE",
"46 644 LINE",
"46 245 LINE SMOOTH",
"46 79 OFFCURVE",
"163 -10 OFFCURVE",
"342 -10 CURVE SMOOTH"
);
},
{
closed = 1;
nodes = (
"402 -220 OFFCURVE",
"440 -213 OFFCURVE",
"459 -205 CURVE",
"459 -124 LINE",
"447 -131 OFFCURVE",
"426 -135 OFFCURVE",
"409 -135 CURVE SMOOTH",
"382 -135 OFFCURVE",
"365 -124 OFFCURVE",
"365 -97 CURVE SMOOTH",
"365 -61 OFFCURVE",
"391 -28 OFFCURVE",
"428 0 CURVE",
"315 0 LINE",
"270 -30 OFFCURVE",
"242 -76 OFFCURVE",
"242 -126 CURVE SMOOTH",
"242 -191 OFFCURVE",
"297 -220 OFFCURVE",
"365 -220 CURVE SMOOTH"
);
}
);
width = 684;
}
);
leftKerningGroup = U;
note = Uogonek;
rightKerningGroup = U;
unicode = 0172;
},
{
glyphname = Uring;
lastChange = "2015-10-24 07:37:55 +0000";
layers = (
{
layerId = "476303D8-9A2F-423D-8E21-2B4181C6C8D8";
name = SemiBold;
paths = (
{
closed = 1;
nodes = (
"521 -10 OFFCURVE",
"638 79 OFFCURVE",
"638 245 CURVE SMOOTH",
"638 644 LINE",
"477 644 LINE",
"477 260 LINE SMOOTH",
"477 170 OFFCURVE",
"429 127 OFFCURVE",
"342 127 CURVE SMOOTH",
"255 127 OFFCURVE",
"207 170 OFFCURVE",
"207 260 CURVE SMOOTH",
"207 644 LINE",
"46 644 LINE",
"46 245 LINE SMOOTH",
"46 79 OFFCURVE",
"163 -10 OFFCURVE",
"342 -10 CURVE SMOOTH"
);
},
{
closed = 1;
nodes = (
"425 687 OFFCURVE",
"473 742 OFFCURVE",
"473 812 CURVE SMOOTH",
"473 883 OFFCURVE",
"425 938 OFFCURVE",
"341 938 CURVE SMOOTH",
"259 938 OFFCURVE",
"210 883 OFFCURVE",
"210 812 CURVE SMOOTH",
"210 742 OFFCURVE",
"259 687 OFFCURVE",
"341 687 CURVE SMOOTH"
);
},
{
closed = 1;
nodes = (
"306 757 OFFCURVE",
"284 781 OFFCURVE",
"284 812 CURVE SMOOTH",
"284 843 OFFCURVE",
"306 868 OFFCURVE",
"341 868 CURVE SMOOTH",
"378 868 OFFCURVE",
"399 843 OFFCURVE",
"399 812 CURVE SMOOTH",
"399 781 OFFCURVE",
"378 757 OFFCURVE",
"341 757 CURVE SMOOTH"
);
}
);
width = 684;
}
);
leftKerningGroup = U;
note = Uring;
rightKerningGroup = U;
unicode = 016E;
},
{
glyphname = Utilde;
lastChange = "2015-10-24 07:37:55 +0000";
layers = (
{
layerId = "476303D8-9A2F-423D-8E21-2B4181C6C8D8";
name = SemiBold;
paths = (
{
closed = 1;
nodes = (
"521 -10 OFFCURVE",
"638 79 OFFCURVE",
"638 245 CURVE SMOOTH",
"638 644 LINE",
"477 644 LINE",
"477 260 LINE SMOOTH",
"477 170 OFFCURVE",
"429 127 OFFCURVE",
"342 127 CURVE SMOOTH",
"255 127 OFFCURVE",
"207 170 OFFCURVE",
"207 260 CURVE SMOOTH",
"207 644 LINE",
"46 644 LINE",
"46 245 LINE SMOOTH",
"46 79 OFFCURVE",
"163 -10 OFFCURVE",
"342 -10 CURVE SMOOTH"
);
},
{
closed = 1;
nodes = (
"470 698 OFFCURVE",
"503 712 OFFCURVE",
"516 730 CURVE",
"516 838 LINE",
"499 814 OFFCURVE",
"469 799 OFFCURVE",
"429 799 CURVE SMOOTH",
"370 799 OFFCURVE",
"322 840 OFFCURVE",
"258 840 CURVE SMOOTH",
"221 840 OFFCURVE",
"186 826 OFFCURVE",
"167 808 CURVE",
"167 701 LINE",
"191 725 OFFCURVE",
"222 739 OFFCURVE",
"261 739 CURVE SMOOTH",
"313 739 OFFCURVE",
"370 698 OFFCURVE",
"432 698 CURVE SMOOTH"
);
}
);
width = 684;
}
);
leftKerningGroup = U;
note = Utilde;
rightKerningGroup = U;
unicode = 0168;
},
{
glyphname = V;
lastChange = "2015-10-24 07:37:55 +0000";
layers = (
{
layerId = "476303D8-9A2F-423D-8E21-2B4181C6C8D8";
name = SemiBold;
paths = (
{
closed = 1;
nodes = (
"451 0 LINE",
"697 644 LINE",
"528 644 LINE",
"363 184 LINE",
"199 644 LINE",
"31 644 LINE",
"277 0 LINE"
);
}
);
width = 728;
}
);
note = V;
unicode = 0056;
},
{
glyphname = W;
lastChange = "2015-10-24 07:37:55 +0000";
layers = (
{
layerId = "476303D8-9A2F-423D-8E21-2B4181C6C8D8";
name = SemiBold;
paths = (
{
closed = 1;
nodes = (
"330 0 LINE",
"446 372 LINE",
"554 0 LINE",
"703 0 LINE",
"852 644 LINE",
"694 644 LINE",
"605 255 LINE",
"494 644 LINE",
"362 644 LINE",
"362 553 LINE",
"274 256 LINE",
"189 644 LINE",
"31 644 LINE",
"181 0 LINE"
);
}
);
width = 883;
}
);
leftKerningGroup = W;
note = W;
rightKerningGroup = W;
unicode = 0057;
},
{
glyphname = Wacute;
lastChange = "2015-10-24 07:37:56 +0000";
layers = (
{
layerId = "476303D8-9A2F-423D-8E21-2B4181C6C8D8";
name = SemiBold;
paths = (
{
closed = 1;
nodes = (
"330 0 LINE",
"446 372 LINE",
"554 0 LINE",
"703 0 LINE",
"852 644 LINE",
"694 644 LINE",
"605 255 LINE",
"494 644 LINE",
"362 644 LINE",
"362 553 LINE",
"274 256 LINE",
"189 644 LINE",
"31 644 LINE",
"181 0 LINE"
);
},
{
closed = 1;
nodes = (
"489 688 LINE",
"581 884 LINE",
"449 884 LINE",
"365 688 LINE"
);
}
);
width = 883;
}
);
leftKerningGroup = W;
note = Wacute;
rightKerningGroup = W;
unicode = 1E82;
},
{
glyphname = Wcircumflex;
lastChange = "2015-10-24 07:37:55 +0000";
layers = (
{
layerId = "476303D8-9A2F-423D-8E21-2B4181C6C8D8";
name = SemiBold;
paths = (
{
closed = 1;
nodes = (
"330 0 LINE",
"446 372 LINE",
"554 0 LINE",
"703 0 LINE",
"852 644 LINE",
"694 644 LINE",
"605 255 LINE",
"494 644 LINE",
"362 644 LINE",
"362 553 LINE",
"274 256 LINE",
"189 644 LINE",
"31 644 LINE",
"181 0 LINE"
);
},
{
closed = 1;
nodes = (
"374 688 LINE",
"446 792 LINE",
"521 688 LINE",
"641 688 LINE",
"496 875 LINE",
"396 875 LINE",
"251 688 LINE"
);
}
);
width = 883;
}
);
leftKerningGroup = W;
note = Wcircumflex;
rightKerningGroup = W;
unicode = 0174;
},
{
glyphname = Wdieresis;
lastChange = "2015-10-24 07:37:55 +0000";
layers = (
{
layerId = "476303D8-9A2F-423D-8E21-2B4181C6C8D8";
name = SemiBold;
paths = (
{
closed = 1;
nodes = (
"330 0 LINE",
"446 372 LINE",
"554 0 LINE",
"703 0 LINE",
"852 644 LINE",
"694 644 LINE",
"605 255 LINE",
"494 644 LINE",
"362 644 LINE",
"362 553 LINE",
"274 256 LINE",
"189 644 LINE",
"31 644 LINE",
"181 0 LINE"
);
},
{
closed = 1;
nodes = (
"402 714 LINE",
"402 823 LINE",
"284 823 LINE",
"284 714 LINE"
);
},
{
closed = 1;
nodes = (
"608 714 LINE",
"608 823 LINE",
"490 823 LINE",
"490 714 LINE"
);
}
);
width = 883;
}
);
leftKerningGroup = W;
note = Wdieresis;
rightKerningGroup = W;
unicode = 1E84;
},
{
glyphname = Wgrave;
lastChange = "2015-10-24 07:37:55 +0000";
layers = (
{
layerId = "476303D8-9A2F-423D-8E21-2B4181C6C8D8";
name = SemiBold;
paths = (
{
closed = 1;
nodes = (
"330 0 LINE",
"446 372 LINE",
"554 0 LINE",
"703 0 LINE",
"852 644 LINE",
"694 644 LINE",
"605 255 LINE",
"494 644 LINE",
"362 644 LINE",
"362 553 LINE",
"274 256 LINE",
"189 644 LINE",
"31 644 LINE",
"181 0 LINE"
);
},
{
closed = 1;
nodes = (
"493 688 LINE",
"409 884 LINE",
"277 884 LINE",
"370 688 LINE"
);
}
);
width = 883;
}
);
leftKerningGroup = W;
note = Wgrave;
rightKerningGroup = W;
unicode = 1E80;
},
{
glyphname = X;
lastChange = "2015-10-24 07:37:55 +0000";
layers = (
{
layerId = "476303D8-9A2F-423D-8E21-2B4181C6C8D8";
name = SemiBold;
paths = (
{
closed = 1;
nodes = (
"225 0 LINE",
"363 195 LINE",
"502 0 LINE",
"696 0 LINE",
"461 324 LINE",
"689 644 LINE",
"497 644 LINE",
"363 452 LINE",
"230 644 LINE",
"38 644 LINE",
"266 324 LINE",
"31 0 LINE"
);
}
);
width = 727;
}
);
note = X;
unicode = 0058;
},
{
glyphname = Y;
lastChange = "2015-10-24 07:37:55 +0000";
layers = (
{
layerId = "476303D8-9A2F-423D-8E21-2B4181C6C8D8";
name = SemiBold;
paths = (
{
closed = 1;
nodes = (
"424 0 LINE",
"424 237 LINE",
"655 644 LINE",
"487 644 LINE",
"343 377 LINE",
"199 644 LINE",
"31 644 LINE",
"262 237 LINE",
"262 0 LINE"
);
}
);
width = 686;
}
);
leftKerningGroup = Y;
note = Y;
rightKerningGroup = Y;
unicode = 0059;
},
{
glyphname = Yacute;
lastChange = "2015-10-24 07:37:55 +0000";
layers = (
{
layerId = "476303D8-9A2F-423D-8E21-2B4181C6C8D8";
name = SemiBold;
paths = (
{
closed = 1;
nodes = (
"424 0 LINE",
"424 237 LINE",
"655 644 LINE",
"487 644 LINE",
"343 377 LINE",
"199 644 LINE",
"31 644 LINE",
"262 237 LINE",
"262 0 LINE"
);
},
{
closed = 1;
nodes = (
"399 688 LINE",
"491 884 LINE",
"359 884 LINE",
"275 688 LINE"
);
}
);
width = 686;
}
);
leftKerningGroup = Y;
note = Yacute;
rightKerningGroup = Y;
unicode = 00DD;
},
{
glyphname = Ycircumflex;
lastChange = "2015-10-24 07:37:55 +0000";
layers = (
{
layerId = "476303D8-9A2F-423D-8E21-2B4181C6C8D8";
name = SemiBold;
paths = (
{
closed = 1;
nodes = (
"424 0 LINE",
"424 237 LINE",
"655 644 LINE",
"487 644 LINE",
"343 377 LINE",
"199 644 LINE",
"31 644 LINE",
"262 237 LINE",
"262 0 LINE"
);
},
{
closed = 1;
nodes = (
"271 688 LINE",
"343 792 LINE",
"418 688 LINE",
"538 688 LINE",
"393 875 LINE",
"293 875 LINE",
"148 688 LINE"
);
}
);
width = 686;
}
);
leftKerningGroup = Y;
note = Ycircumflex;
rightKerningGroup = Y;
unicode = 0176;
},
{
glyphname = Ydieresis;
lastChange = "2015-10-24 07:37:55 +0000";
layers = (
{
layerId = "476303D8-9A2F-423D-8E21-2B4181C6C8D8";
name = SemiBold;
paths = (
{
closed = 1;
nodes = (
"424 0 LINE",
"424 237 LINE",
"655 644 LINE",
"487 644 LINE",
"343 377 LINE",
"199 644 LINE",
"31 644 LINE",
"262 237 LINE",
"262 0 LINE"
);
},
{
closed = 1;
nodes = (
"300 714 LINE",
"300 823 LINE",
"182 823 LINE",
"182 714 LINE"
);
},
{
closed = 1;
nodes = (
"506 714 LINE",
"506 823 LINE",
"388 823 LINE",
"388 714 LINE"
);
}
);
width = 686;
}
);
leftKerningGroup = Y;
note = Ydieresis;
rightKerningGroup = Y;
unicode = 0178;
},
{
glyphname = Ydotaccent;
lastChange = "2015-10-24 07:37:55 +0000";
layers = (
{
layerId = "476303D8-9A2F-423D-8E21-2B4181C6C8D8";
name = SemiBold;
paths = (
{
closed = 1;
nodes = (
"424 0 LINE",
"424 237 LINE",
"655 644 LINE",
"487 644 LINE",
"343 377 LINE",
"199 644 LINE",
"31 644 LINE",
"262 237 LINE",
"262 0 LINE"
);
},
{
closed = 1;
nodes = (
"401 714 LINE",
"401 823 LINE",
"284 823 LINE",
"284 714 LINE"
);
}
);
width = 686;
}
);
leftKerningGroup = Y;
note = Ydotaccent;
rightKerningGroup = Y;
unicode = 1E8E;
},
{
glyphname = Ydotbelow;
lastChange = "2015-10-24 07:37:56 +0000";
layers = (
{
layerId = "476303D8-9A2F-423D-8E21-2B4181C6C8D8";
name = SemiBold;
paths = (
{
closed = 1;
nodes = (
"424 0 LINE",
"424 237 LINE",
"655 644 LINE",
"487 644 LINE",
"343 377 LINE",
"199 644 LINE",
"31 644 LINE",
"262 237 LINE",
"262 0 LINE"
);
},
{
closed = 1;
nodes = (
"402 -173 LINE",
"402 -64 LINE",
"284 -64 LINE",
"284 -173 LINE"
);
}
);
width = 686;
}
);
leftKerningGroup = Y;
note = Ydotbelow;
rightKerningGroup = Y;
unicode = 1EF4;
},
{
glyphname = Ygrave;
lastChange = "2015-10-24 07:37:55 +0000";
layers = (
{
layerId = "476303D8-9A2F-423D-8E21-2B4181C6C8D8";
name = SemiBold;
paths = (
{
closed = 1;
nodes = (
"424 0 LINE",
"424 237 LINE",
"655 644 LINE",
"487 644 LINE",
"343 377 LINE",
"199 644 LINE",
"31 644 LINE",
"262 237 LINE",
"262 0 LINE"
);
},
{
closed = 1;
nodes = (
"406 688 LINE",
"322 884 LINE",
"190 884 LINE",
"283 688 LINE"
);
}
);
width = 686;
}
);
leftKerningGroup = Y;
note = Ygrave;
rightKerningGroup = Y;
unicode = 1EF2;
},
{
glyphname = Yhookabove;
lastChange = "2015-10-24 07:37:55 +0000";
layers = (
{
layerId = "476303D8-9A2F-423D-8E21-2B4181C6C8D8";
name = SemiBold;
paths = (
{
closed = 1;
nodes = (
"424 0 LINE",
"424 237 LINE",
"655 644 LINE",
"487 644 LINE",
"343 377 LINE",
"199 644 LINE",
"31 644 LINE",
"262 237 LINE",
"262 0 LINE"
);
},
{
closed = 1;
nodes = (
"399 688 LINE",
"399 732 LINE",
"458 746 OFFCURVE",
"484 772 OFFCURVE",
"484 829 CURVE SMOOTH",
"484 888 OFFCURVE",
"436 928 OFFCURVE",
"348 928 CURVE SMOOTH",
"305 928 OFFCURVE",
"267 923 OFFCURVE",
"241 914 CURVE",
"241 842 LINE",
"257 847 OFFCURVE",
"282 851 OFFCURVE",
"301 851 CURVE SMOOTH",
"342 851 OFFCURVE",
"366 840 OFFCURVE",
"366 815 CURVE SMOOTH",
"366 788 OFFCURVE",
"348 773 OFFCURVE",
"277 769 CURVE",
"277 688 LINE"
);
}
);
width = 686;
}
);
leftKerningGroup = Y;
note = Yhookabove;
rightKerningGroup = Y;
unicode = 1EF6;
},
{
glyphname = Ytilde;
lastChange = "2015-10-24 07:37:55 +0000";
layers = (
{
layerId = "476303D8-9A2F-423D-8E21-2B4181C6C8D8";
name = SemiBold;
paths = (
{
closed = 1;
nodes = (
"424 0 LINE",
"424 237 LINE",
"655 644 LINE",
"487 644 LINE",
"343 377 LINE",
"199 644 LINE",
"31 644 LINE",
"262 237 LINE",
"262 0 LINE"
);
},
{
closed = 1;
nodes = (
"471 698 OFFCURVE",
"504 712 OFFCURVE",
"517 730 CURVE",
"517 838 LINE",
"500 814 OFFCURVE",
"470 799 OFFCURVE",
"430 799 CURVE SMOOTH",
"371 799 OFFCURVE",
"323 840 OFFCURVE",
"259 840 CURVE SMOOTH",
"222 840 OFFCURVE",
"187 826 OFFCURVE",
"168 808 CURVE",
"168 701 LINE",
"192 725 OFFCURVE",
"223 739 OFFCURVE",
"262 739 CURVE SMOOTH",
"314 739 OFFCURVE",
"371 698 OFFCURVE",
"433 698 CURVE SMOOTH"
);
}
);
width = 686;
}
);
leftKerningGroup = Y;
note = Ytilde;
rightKerningGroup = Y;
unicode = 1EF8;
},
{
glyphname = Z;
lastChange = "2015-10-24 08:27:33 +0000";
layers = (
{
layerId = "476303D8-9A2F-423D-8E21-2B4181C6C8D8";
name = SemiBold;
paths = (
{
closed = 1;
nodes = (
"550 0 LINE",
"550 124 LINE",
"245 124 LINE",
"544 554 LINE",
"544 644 LINE",
"46 644 LINE",
"46 516 LINE",
"333 516 LINE",
"31 82 LINE",
"31 0 LINE"
);
}
);
width = 578;
}
);
leftKerningGroup = Z;
note = Z;
rightKerningGroup = Z;
unicode = 005A;
},
{
glyphname = Zacute;
lastChange = "2015-10-24 07:37:55 +0000";
layers = (
{
layerId = "476303D8-9A2F-423D-8E21-2B4181C6C8D8";
name = SemiBold;
paths = (
{
closed = 1;
nodes = (
"550 0 LINE",
"550 124 LINE",
"245 124 LINE",
"544 554 LINE",
"544 644 LINE",
"46 644 LINE",
"46 516 LINE",
"333 516 LINE",
"31 82 LINE",
"31 0 LINE"
);
},
{
closed = 1;
nodes = (
"348 688 LINE",
"440 884 LINE",
"308 884 LINE",
"224 688 LINE"
);
}
);
width = 578;
}
);
leftKerningGroup = Z;
note = Zacute;
rightKerningGroup = Z;
unicode = 0179;
},
{
glyphname = Zcaron;
lastChange = "2015-11-25 10:09:48 +0000";
layers = (
{
layerId = "476303D8-9A2F-423D-8E21-2B4181C6C8D8";
name = SemiBold;
paths = (
{
closed = 1;
nodes = (
"550 0 LINE",
"550 124 LINE",
"245 124 LINE",
"544 554 LINE",
"544 644 LINE",
"46 644 LINE",
"46 516 LINE",
"333 516 LINE",
"31 82 LINE",
"31 0 LINE"
);
},
{
closed = 1;
nodes = (
"357 688 LINE",
"502 875 LINE",
"382 875 LINE",
"307 771 LINE",
"235 875 LINE",
"112 875 LINE",
"257 688 LINE"
);
}
);
width = 578;
}
);
leftKerningGroup = Z;
note = Zcaron;
rightKerningGroup = Z;
unicode = 017D;
},
{
glyphname = Zdotaccent;
lastChange = "2015-11-25 10:09:44 +0000";
layers = (
{
layerId = "476303D8-9A2F-423D-8E21-2B4181C6C8D8";
name = SemiBold;
paths = (
{
closed = 1;
nodes = (
"550 0 LINE",
"550 124 LINE",
"245 124 LINE",
"544 554 LINE",
"544 644 LINE",
"46 644 LINE",
"46 516 LINE",
"333 516 LINE",
"31 82 LINE",
"31 0 LINE"
);
},
{
closed = 1;
nodes = (
"357 714 LINE",
"357 823 LINE",
"240 823 LINE",
"240 714 LINE"
);
}
);
width = 578;
}
);
leftKerningGroup = Z;
note = Zdotaccent;
rightKerningGroup = Z;
unicode = 017B;
},
{
glyphname = Zdotbelow;
lastChange = "2015-10-24 07:37:55 +0000";
layers = (
{
layerId = "476303D8-9A2F-423D-8E21-2B4181C6C8D8";
name = SemiBold;
paths = (
{
closed = 1;
nodes = (
"550 0 LINE",
"550 124 LINE",
"245 124 LINE",
"544 554 LINE",
"544 644 LINE",
"46 644 LINE",
"46 516 LINE",
"333 516 LINE",
"31 82 LINE",
"31 0 LINE"
);
},
{
closed = 1;
nodes = (
"357 -179 LINE",
"357 -70 LINE",
"239 -70 LINE",
"239 -179 LINE"
);
}
);
width = 578;
}
);
leftKerningGroup = Z;
note = Zdotbelow;
rightKerningGroup = Z;
unicode = 1E92;
},
{
glyphname = a;
lastChange = "2015-10-24 08:32:37 +0000";
layers = (
{
layerId = "476303D8-9A2F-423D-8E21-2B4181C6C8D8";
name = SemiBold;
paths = (
{
closed = 1;
nodes = (
"279 -10 OFFCURVE",
"331 8 OFFCURVE",
"366 40 CURVE",
"374 0 LINE",
"515 0 LINE",
"515 296 LINE SMOOTH",
"515 427 OFFCURVE",
"426 484 OFFCURVE",
"280 484 CURVE SMOOTH",
"205 484 OFFCURVE",
"134 470 OFFCURVE",
"88 452 CURVE",
"88 348 LINE",
"138 364 OFFCURVE",
"195 373 OFFCURVE",
"247 373 CURVE SMOOTH",
"335 373 OFFCURVE",
"361 354 OFFCURVE",
"361 306 CURVE SMOOTH",
"361 295 LINE",
"229 295 LINE SMOOTH",
"97 295 OFFCURVE",
"31 236 OFFCURVE",
"31 139 CURVE SMOOTH",
"31 38 OFFCURVE",
"108 -10 OFFCURVE",
"199 -10 CURVE SMOOTH"
);
},
{
closed = 1;
nodes = (
"199 89 OFFCURVE",
"176 110 OFFCURVE",
"176 145 CURVE SMOOTH",
"176 184 OFFCURVE",
"199 202 OFFCURVE",
"247 202 CURVE SMOOTH",
"361 202 LINE",
"361 135 LINE",
"338 108 OFFCURVE",
"301 89 OFFCURVE",
"250 89 CURVE SMOOTH"
);
}
);
width = 561;
}
);
leftKerningGroup = a;
note = a;
rightKerningGroup = a;
unicode = 0061;
},
{
glyphname = aacute;
lastChange = "2015-10-24 07:37:55 +0000";
layers = (
{
layerId = "476303D8-9A2F-423D-8E21-2B4181C6C8D8";
name = SemiBold;
paths = (
{
closed = 1;
nodes = (
"279 -10 OFFCURVE",
"331 8 OFFCURVE",
"366 40 CURVE",
"374 0 LINE",
"515 0 LINE",
"515 296 LINE SMOOTH",
"515 427 OFFCURVE",
"426 484 OFFCURVE",
"280 484 CURVE SMOOTH",
"205 484 OFFCURVE",
"134 470 OFFCURVE",
"88 452 CURVE",
"88 348 LINE",
"138 364 OFFCURVE",
"195 373 OFFCURVE",
"247 373 CURVE SMOOTH",
"335 373 OFFCURVE",
"361 354 OFFCURVE",
"361 306 CURVE SMOOTH",
"361 295 LINE",
"229 295 LINE SMOOTH",
"97 295 OFFCURVE",
"31 236 OFFCURVE",
"31 139 CURVE SMOOTH",
"31 38 OFFCURVE",
"108 -10 OFFCURVE",
"199 -10 CURVE SMOOTH"
);
},
{
closed = 1;
nodes = (
"199 89 OFFCURVE",
"176 110 OFFCURVE",
"176 145 CURVE SMOOTH",
"176 184 OFFCURVE",
"199 202 OFFCURVE",
"247 202 CURVE SMOOTH",
"361 202 LINE",
"361 135 LINE",
"338 108 OFFCURVE",
"301 89 OFFCURVE",
"250 89 CURVE SMOOTH"
);
},
{
closed = 1;
nodes = (
"345 522 LINE",
"437 718 LINE",
"305 718 LINE",
"221 522 LINE"
);
}
);
width = 561;
}
);
leftKerningGroup = a;
note = aacute;
rightKerningGroup = a;
unicode = 00E1;
},
{
glyphname = abreve;
lastChange = "2015-10-24 07:37:55 +0000";
layers = (
{
layerId = "476303D8-9A2F-423D-8E21-2B4181C6C8D8";
name = SemiBold;
paths = (
{
closed = 1;
nodes = (
"279 -10 OFFCURVE",
"331 8 OFFCURVE",
"366 40 CURVE",
"374 0 LINE",
"515 0 LINE",
"515 296 LINE SMOOTH",
"515 427 OFFCURVE",
"426 484 OFFCURVE",
"280 484 CURVE SMOOTH",
"205 484 OFFCURVE",
"134 470 OFFCURVE",
"88 452 CURVE",
"88 348 LINE",
"138 364 OFFCURVE",
"195 373 OFFCURVE",
"247 373 CURVE SMOOTH",
"335 373 OFFCURVE",
"361 354 OFFCURVE",
"361 306 CURVE SMOOTH",
"361 295 LINE",
"229 295 LINE SMOOTH",
"97 295 OFFCURVE",
"31 236 OFFCURVE",
"31 139 CURVE SMOOTH",
"31 38 OFFCURVE",
"108 -10 OFFCURVE",
"199 -10 CURVE SMOOTH"
);
},
{
closed = 1;
nodes = (
"199 89 OFFCURVE",
"176 110 OFFCURVE",
"176 145 CURVE SMOOTH",
"176 184 OFFCURVE",
"199 202 OFFCURVE",
"247 202 CURVE SMOOTH",
"361 202 LINE",
"361 135 LINE",
"338 108 OFFCURVE",
"301 89 OFFCURVE",
"250 89 CURVE SMOOTH"
);
},
{
closed = 1;
nodes = (
"406 522 OFFCURVE",
"477 584 OFFCURVE",
"477 694 CURVE",
"371 694 LINE",
"371 648 OFFCURVE",
"351 612 OFFCURVE",
"302 612 CURVE SMOOTH",
"254 612 OFFCURVE",
"235 648 OFFCURVE",
"235 694 CURVE",
"129 694 LINE",
"129 584 OFFCURVE",
"199 522 OFFCURVE",
"302 522 CURVE SMOOTH"
);
}
);
width = 561;
}
);
leftKerningGroup = a;
note = abreve;
rightKerningGroup = a;
unicode = 0103;
},
{
glyphname = abreveacute;
lastChange = "2015-10-24 07:37:55 +0000";
layers = (
{
layerId = "476303D8-9A2F-423D-8E21-2B4181C6C8D8";
name = SemiBold;
paths = (
{
closed = 1;
nodes = (
"279 -10 OFFCURVE",
"331 8 OFFCURVE",
"366 40 CURVE",
"374 0 LINE",
"515 0 LINE",
"515 296 LINE SMOOTH",
"515 427 OFFCURVE",
"426 484 OFFCURVE",
"280 484 CURVE SMOOTH",
"205 484 OFFCURVE",
"134 470 OFFCURVE",
"88 452 CURVE",
"88 348 LINE",
"138 364 OFFCURVE",
"195 373 OFFCURVE",
"247 373 CURVE SMOOTH",
"335 373 OFFCURVE",
"361 354 OFFCURVE",
"361 306 CURVE SMOOTH",
"361 295 LINE",
"229 295 LINE SMOOTH",
"97 295 OFFCURVE",
"31 236 OFFCURVE",
"31 139 CURVE SMOOTH",
"31 38 OFFCURVE",
"108 -10 OFFCURVE",
"199 -10 CURVE SMOOTH"
);
},
{
closed = 1;
nodes = (
"199 89 OFFCURVE",
"176 110 OFFCURVE",
"176 145 CURVE SMOOTH",
"176 184 OFFCURVE",
"199 202 OFFCURVE",
"247 202 CURVE SMOOTH",
"361 202 LINE",
"361 135 LINE",
"338 108 OFFCURVE",
"301 89 OFFCURVE",
"250 89 CURVE SMOOTH"
);
},
{
closed = 1;
nodes = (
"391 522 OFFCURVE",
"463 570 OFFCURVE",
"463 686 CURVE",
"371 686 LINE",
"371 634 OFFCURVE",
"342 603 OFFCURVE",
"291 603 CURVE SMOOTH",
"239 603 OFFCURVE",
"210 634 OFFCURVE",
"210 686 CURVE",
"117 686 LINE",
"117 570 OFFCURVE",
"190 522 OFFCURVE",
"291 522 CURVE SMOOTH"
);
},
{
closed = 1;
nodes = (
"337 671 LINE",
"415 820 LINE",
"302 820 LINE",
"236 671 LINE"
);
}
);
width = 561;
}
);
leftKerningGroup = a;
note = abreveacute;
rightKerningGroup = a;
unicode = 1EAF;
},
{
glyphname = abrevedotbelow;
lastChange = "2015-11-25 10:09:59 +0000";
layers = (
{
layerId = "476303D8-9A2F-423D-8E21-2B4181C6C8D8";
name = SemiBold;
paths = (
{
closed = 1;
nodes = (
"279 -10 OFFCURVE",
"331 8 OFFCURVE",
"366 40 CURVE",
"374 0 LINE",
"515 0 LINE",
"515 296 LINE SMOOTH",
"515 427 OFFCURVE",
"426 484 OFFCURVE",
"280 484 CURVE SMOOTH",
"205 484 OFFCURVE",
"134 470 OFFCURVE",
"88 452 CURVE",
"88 348 LINE",
"138 364 OFFCURVE",
"195 373 OFFCURVE",
"247 373 CURVE SMOOTH",
"335 373 OFFCURVE",
"361 354 OFFCURVE",
"361 306 CURVE SMOOTH",
"361 295 LINE",
"229 295 LINE SMOOTH",
"97 295 OFFCURVE",
"31 236 OFFCURVE",
"31 139 CURVE SMOOTH",
"31 38 OFFCURVE",
"108 -10 OFFCURVE",
"199 -10 CURVE SMOOTH"
);
},
{
closed = 1;
nodes = (
"199 89 OFFCURVE",
"176 110 OFFCURVE",
"176 145 CURVE SMOOTH",
"176 184 OFFCURVE",
"199 202 OFFCURVE",
"247 202 CURVE SMOOTH",
"361 202 LINE",
"361 135 LINE",
"338 108 OFFCURVE",
"301 89 OFFCURVE",
"250 89 CURVE SMOOTH"
);
},
{
closed = 1;
nodes = (
"362 -179 LINE",
"362 -70 LINE",
"244 -70 LINE",
"244 -179 LINE"
);
},
{
closed = 1;
nodes = (
"403 522 OFFCURVE",
"474 584 OFFCURVE",
"474 694 CURVE",
"368 694 LINE",
"368 648 OFFCURVE",
"348 612 OFFCURVE",
"299 612 CURVE SMOOTH",
"251 612 OFFCURVE",
"232 648 OFFCURVE",
"232 694 CURVE",
"126 694 LINE",
"126 584 OFFCURVE",
"196 522 OFFCURVE",
"299 522 CURVE SMOOTH"
);
}
);
width = 561;
}
);
leftKerningGroup = a;
note = abrevedotbelow;
rightKerningGroup = a;
unicode = 1EB7;
},
{
glyphname = abrevegrave;
lastChange = "2015-10-24 07:37:55 +0000";
layers = (
{
layerId = "476303D8-9A2F-423D-8E21-2B4181C6C8D8";
name = SemiBold;
paths = (
{
closed = 1;
nodes = (
"279 -10 OFFCURVE",
"331 8 OFFCURVE",
"366 40 CURVE",
"374 0 LINE",
"515 0 LINE",
"515 296 LINE SMOOTH",
"515 427 OFFCURVE",
"426 484 OFFCURVE",
"280 484 CURVE SMOOTH",
"205 484 OFFCURVE",
"134 470 OFFCURVE",
"88 452 CURVE",
"88 348 LINE",
"138 364 OFFCURVE",
"195 373 OFFCURVE",
"247 373 CURVE SMOOTH",
"335 373 OFFCURVE",
"361 354 OFFCURVE",
"361 306 CURVE SMOOTH",
"361 295 LINE",
"229 295 LINE SMOOTH",
"97 295 OFFCURVE",
"31 236 OFFCURVE",
"31 139 CURVE SMOOTH",
"31 38 OFFCURVE",
"108 -10 OFFCURVE",
"199 -10 CURVE SMOOTH"
);
},
{
closed = 1;
nodes = (
"199 89 OFFCURVE",
"176 110 OFFCURVE",
"176 145 CURVE SMOOTH",
"176 184 OFFCURVE",
"199 202 OFFCURVE",
"247 202 CURVE SMOOTH",
"361 202 LINE",
"361 135 LINE",
"338 108 OFFCURVE",
"301 89 OFFCURVE",
"250 89 CURVE SMOOTH"
);
},
{
closed = 1;
nodes = (
"392 522 OFFCURVE",
"465 570 OFFCURVE",
"465 686 CURVE",
"373 686 LINE",
"373 634 OFFCURVE",
"344 603 OFFCURVE",
"292 603 CURVE SMOOTH",
"240 603 OFFCURVE",
"212 634 OFFCURVE",
"212 686 CURVE",
"119 686 LINE",
"119 570 OFFCURVE",
"192 522 OFFCURVE",
"292 522 CURVE SMOOTH"
);
},
{
closed = 1;
nodes = (
"347 671 LINE",
"281 820 LINE",
"167 820 LINE",
"245 671 LINE"
);
}
);
width = 561;
}
);
leftKerningGroup = a;
note = abrevegrave;
rightKerningGroup = a;
unicode = 1EB1;
},
{
glyphname = abrevehookabove;
lastChange = "2015-10-24 07:37:55 +0000";
layers = (
{
layerId = "476303D8-9A2F-423D-8E21-2B4181C6C8D8";
name = SemiBold;
paths = (
{
closed = 1;
nodes = (
"279 -10 OFFCURVE",
"331 8 OFFCURVE",
"366 40 CURVE",
"374 0 LINE",
"515 0 LINE",
"515 296 LINE SMOOTH",
"515 427 OFFCURVE",
"426 484 OFFCURVE",
"280 484 CURVE SMOOTH",
"205 484 OFFCURVE",
"134 470 OFFCURVE",
"88 452 CURVE",
"88 348 LINE",
"138 364 OFFCURVE",
"195 373 OFFCURVE",
"247 373 CURVE SMOOTH",
"335 373 OFFCURVE",
"361 354 OFFCURVE",
"361 306 CURVE SMOOTH",
"361 295 LINE",
"229 295 LINE SMOOTH",
"97 295 OFFCURVE",
"31 236 OFFCURVE",
"31 139 CURVE SMOOTH",
"31 38 OFFCURVE",
"108 -10 OFFCURVE",
"199 -10 CURVE SMOOTH"
);
},
{
closed = 1;
nodes = (
"199 89 OFFCURVE",
"176 110 OFFCURVE",
"176 145 CURVE SMOOTH",
"176 184 OFFCURVE",
"199 202 OFFCURVE",
"247 202 CURVE SMOOTH",
"361 202 LINE",
"361 135 LINE",
"338 108 OFFCURVE",
"301 89 OFFCURVE",
"250 89 CURVE SMOOTH"
);
},
{
closed = 1;
nodes = (
"395 522 OFFCURVE",
"468 570 OFFCURVE",
"468 686 CURVE",
"376 686 LINE",
"376 634 OFFCURVE",
"347 603 OFFCURVE",
"295 603 CURVE SMOOTH",
"243 603 OFFCURVE",
"215 634 OFFCURVE",
"215 686 CURVE",
"122 686 LINE",
"122 570 OFFCURVE",
"195 522 OFFCURVE",
"295 522 CURVE SMOOTH"
);
},
{
closed = 1;
nodes = (
"346 678 LINE",
"346 709 LINE",
"400 721 OFFCURVE",
"422 744 OFFCURVE",
"422 789 CURVE SMOOTH",
"422 837 OFFCURVE",
"382 872 OFFCURVE",
"311 872 CURVE SMOOTH",
"274 872 OFFCURVE",
"239 867 OFFCURVE",
"216 859 CURVE",
"216 797 LINE",
"230 803 OFFCURVE",
"249 808 OFFCURVE",
"268 808 CURVE SMOOTH",
"301 808 OFFCURVE",
"317 801 OFFCURVE",
"317 778 CURVE SMOOTH",
"317 755 OFFCURVE",
"298 741 OFFCURVE",
"240 739 CURVE",
"240 678 LINE"
);
}
);
width = 561;
}
);
leftKerningGroup = a;
note = abrevehookabove;
rightKerningGroup = a;
unicode = 1EB3;
},
{
glyphname = abrevetilde;
lastChange = "2015-10-24 07:37:55 +0000";
layers = (
{
layerId = "476303D8-9A2F-423D-8E21-2B4181C6C8D8";
name = SemiBold;
paths = (
{
closed = 1;
nodes = (
"279 -10 OFFCURVE",
"331 8 OFFCURVE",
"366 40 CURVE",
"374 0 LINE",
"515 0 LINE",
"515 296 LINE SMOOTH",
"515 427 OFFCURVE",
"426 484 OFFCURVE",
"280 484 CURVE SMOOTH",
"205 484 OFFCURVE",
"134 470 OFFCURVE",
"88 452 CURVE",
"88 348 LINE",
"138 364 OFFCURVE",
"195 373 OFFCURVE",
"247 373 CURVE SMOOTH",
"335 373 OFFCURVE",
"361 354 OFFCURVE",
"361 306 CURVE SMOOTH",
"361 295 LINE",
"229 295 LINE SMOOTH",
"97 295 OFFCURVE",
"31 236 OFFCURVE",
"31 139 CURVE SMOOTH",
"31 38 OFFCURVE",
"108 -10 OFFCURVE",
"199 -10 CURVE SMOOTH"
);
},
{
closed = 1;
nodes = (
"199 89 OFFCURVE",
"176 110 OFFCURVE",
"176 145 CURVE SMOOTH",
"176 184 OFFCURVE",
"199 202 OFFCURVE",
"247 202 CURVE SMOOTH",
"361 202 LINE",
"361 135 LINE",
"338 108 OFFCURVE",
"301 89 OFFCURVE",
"250 89 CURVE SMOOTH"
);
},
{
closed = 1;
nodes = (
"399 522 OFFCURVE",
"472 570 OFFCURVE",
"472 686 CURVE",
"380 686 LINE",
"380 634 OFFCURVE",
"351 603 OFFCURVE",
"299 603 CURVE SMOOTH",
"247 603 OFFCURVE",
"219 634 OFFCURVE",
"219 686 CURVE",
"126 686 LINE",
"126 570 OFFCURVE",
"199 522 OFFCURVE",
"299 522 CURVE SMOOTH"
);
},
{
closed = 1;
nodes = (
"427 704 OFFCURVE",
"459 718 OFFCURVE",
"472 736 CURVE",
"472 828 LINE",
"455 804 OFFCURVE",
"425 789 OFFCURVE",
"386 789 CURVE SMOOTH",
"328 789 OFFCURVE",
"280 830 OFFCURVE",
"217 830 CURVE SMOOTH",
"181 830 OFFCURVE",
"146 816 OFFCURVE",
"128 798 CURVE",
"128 707 LINE",
"151 731 OFFCURVE",
"181 744 OFFCURVE",
"220 744 CURVE SMOOTH",
"272 744 OFFCURVE",
"328 704 OFFCURVE",
"389 704 CURVE SMOOTH"
);
}
);
width = 561;
}
);
leftKerningGroup = a;
note = abrevetilde;
rightKerningGroup = a;
unicode = 1EB5;
},
{
glyphname = acaron;
lastChange = "2015-10-24 07:37:55 +0000";
layers = (
{
layerId = "476303D8-9A2F-423D-8E21-2B4181C6C8D8";
name = SemiBold;
paths = (
{
closed = 1;
nodes = (
"279 -10 OFFCURVE",
"331 8 OFFCURVE",
"366 40 CURVE",
"374 0 LINE",
"515 0 LINE",
"515 296 LINE SMOOTH",
"515 427 OFFCURVE",
"426 484 OFFCURVE",
"280 484 CURVE SMOOTH",
"205 484 OFFCURVE",
"134 470 OFFCURVE",
"88 452 CURVE",
"88 348 LINE",
"138 364 OFFCURVE",
"195 373 OFFCURVE",
"247 373 CURVE SMOOTH",
"335 373 OFFCURVE",
"361 354 OFFCURVE",
"361 306 CURVE SMOOTH",
"361 295 LINE",
"229 295 LINE SMOOTH",
"97 295 OFFCURVE",
"31 236 OFFCURVE",
"31 139 CURVE SMOOTH",
"31 38 OFFCURVE",
"108 -10 OFFCURVE",
"199 -10 CURVE SMOOTH"
);
},
{
closed = 1;
nodes = (
"199 89 OFFCURVE",
"176 110 OFFCURVE",
"176 145 CURVE SMOOTH",
"176 184 OFFCURVE",
"199 202 OFFCURVE",
"247 202 CURVE SMOOTH",
"361 202 LINE",
"361 135 LINE",
"338 108 OFFCURVE",
"301 89 OFFCURVE",
"250 89 CURVE SMOOTH"
);
},
{
closed = 1;
nodes = (
"337 521 LINE",
"482 708 LINE",
"362 708 LINE",
"287 604 LINE",
"215 708 LINE",
"92 708 LINE",
"237 521 LINE"
);
}
);
width = 561;
}
);
leftKerningGroup = a;
note = acaron;
rightKerningGroup = a;
unicode = 01CE;
},
{
glyphname = acircumflex;
lastChange = "2015-10-24 07:37:54 +0000";
layers = (
{
layerId = "476303D8-9A2F-423D-8E21-2B4181C6C8D8";
name = SemiBold;
paths = (
{
closed = 1;
nodes = (
"279 -10 OFFCURVE",
"331 8 OFFCURVE",
"366 40 CURVE",
"374 0 LINE",
"515 0 LINE",
"515 296 LINE SMOOTH",
"515 427 OFFCURVE",
"426 484 OFFCURVE",
"280 484 CURVE SMOOTH",
"205 484 OFFCURVE",
"134 470 OFFCURVE",
"88 452 CURVE",
"88 348 LINE",
"138 364 OFFCURVE",
"195 373 OFFCURVE",
"247 373 CURVE SMOOTH",
"335 373 OFFCURVE",
"361 354 OFFCURVE",
"361 306 CURVE SMOOTH",
"361 295 LINE",
"229 295 LINE SMOOTH",
"97 295 OFFCURVE",
"31 236 OFFCURVE",
"31 139 CURVE SMOOTH",
"31 38 OFFCURVE",
"108 -10 OFFCURVE",
"199 -10 CURVE SMOOTH"
);
},
{
closed = 1;
nodes = (
"199 89 OFFCURVE",
"176 110 OFFCURVE",
"176 145 CURVE SMOOTH",
"176 184 OFFCURVE",
"199 202 OFFCURVE",
"247 202 CURVE SMOOTH",
"361 202 LINE",
"361 135 LINE",
"338 108 OFFCURVE",
"301 89 OFFCURVE",
"250 89 CURVE SMOOTH"
);
},
{
closed = 1;
nodes = (
"221 521 LINE",
"293 625 LINE",
"368 521 LINE",
"488 521 LINE",
"343 708 LINE",
"243 708 LINE",
"98 521 LINE"
);
}
);
width = 561;
}
);
leftKerningGroup = a;
note = acircumflex;
rightKerningGroup = a;
unicode = 00E2;
},
{
glyphname = acircumflexacute;
lastChange = "2015-10-24 07:37:55 +0000";
layers = (
{
layerId = "476303D8-9A2F-423D-8E21-2B4181C6C8D8";
name = SemiBold;
paths = (
{
closed = 1;
nodes = (
"279 -10 OFFCURVE",
"331 8 OFFCURVE",
"366 40 CURVE",
"374 0 LINE",
"515 0 LINE",
"515 296 LINE SMOOTH",
"515 427 OFFCURVE",
"426 484 OFFCURVE",
"280 484 CURVE SMOOTH",
"205 484 OFFCURVE",
"134 470 OFFCURVE",
"88 452 CURVE",
"88 348 LINE",
"138 364 OFFCURVE",
"195 373 OFFCURVE",
"247 373 CURVE SMOOTH",
"335 373 OFFCURVE",
"361 354 OFFCURVE",
"361 306 CURVE SMOOTH",
"361 295 LINE",
"229 295 LINE SMOOTH",
"97 295 OFFCURVE",
"31 236 OFFCURVE",
"31 139 CURVE SMOOTH",
"31 38 OFFCURVE",
"108 -10 OFFCURVE",
"199 -10 CURVE SMOOTH"
);
},
{
closed = 1;
nodes = (
"199 89 OFFCURVE",
"176 110 OFFCURVE",
"176 145 CURVE SMOOTH",
"176 184 OFFCURVE",
"199 202 OFFCURVE",
"247 202 CURVE SMOOTH",
"361 202 LINE",
"361 135 LINE",
"338 108 OFFCURVE",
"301 89 OFFCURVE",
"250 89 CURVE SMOOTH"
);
},
{
closed = 1;
nodes = (
"227 521 LINE",
"292 601 LINE",
"357 521 LINE",
"486 521 LINE",
"352 665 LINE",
"231 665 LINE",
"97 521 LINE"
);
},
{
closed = 1;
nodes = (
"517 642 LINE",
"592 791 LINE",
"472 791 LINE",
"403 642 LINE"
);
}
);
width = 561;
}
);
leftKerningGroup = a;
note = acircumflexacute;
rightKerningGroup = a;
unicode = 1EA5;
},
{
glyphname = acircumflexdotbelow;
lastChange = "2015-11-25 10:10:10 +0000";
layers = (
{
layerId = "476303D8-9A2F-423D-8E21-2B4181C6C8D8";
name = SemiBold;
paths = (
{
closed = 1;
nodes = (
"279 -10 OFFCURVE",
"331 8 OFFCURVE",
"366 40 CURVE",
"374 0 LINE",
"515 0 LINE",
"515 296 LINE SMOOTH",
"515 427 OFFCURVE",
"426 484 OFFCURVE",
"280 484 CURVE SMOOTH",
"205 484 OFFCURVE",
"134 470 OFFCURVE",
"88 452 CURVE",
"88 348 LINE",
"138 364 OFFCURVE",
"195 373 OFFCURVE",
"247 373 CURVE SMOOTH",
"335 373 OFFCURVE",
"361 354 OFFCURVE",
"361 306 CURVE SMOOTH",
"361 295 LINE",
"229 295 LINE SMOOTH",
"97 295 OFFCURVE",
"31 236 OFFCURVE",
"31 139 CURVE SMOOTH",
"31 38 OFFCURVE",
"108 -10 OFFCURVE",
"199 -10 CURVE SMOOTH"
);
},
{
closed = 1;
nodes = (
"199 89 OFFCURVE",
"176 110 OFFCURVE",
"176 145 CURVE SMOOTH",
"176 184 OFFCURVE",
"199 202 OFFCURVE",
"247 202 CURVE SMOOTH",
"361 202 LINE",
"361 135 LINE",
"338 108 OFFCURVE",
"301 89 OFFCURVE",
"250 89 CURVE SMOOTH"
);
},
{
closed = 1;
nodes = (
"353 -179 LINE",
"353 -70 LINE",
"235 -70 LINE",
"235 -179 LINE"
);
},
{
closed = 1;
nodes = (
"221 521 LINE",
"293 625 LINE",
"368 521 LINE",
"488 521 LINE",
"343 708 LINE",
"243 708 LINE",
"98 521 LINE"
);
}
);
width = 561;
}
);
leftKerningGroup = a;
note = acircumflexdotbelow;
rightKerningGroup = a;
unicode = 1EAD;
},
{
glyphname = acircumflexgrave;
lastChange = "2015-10-24 07:37:55 +0000";
layers = (
{
layerId = "476303D8-9A2F-423D-8E21-2B4181C6C8D8";
name = SemiBold;
paths = (
{
closed = 1;
nodes = (
"279 -10 OFFCURVE",
"331 8 OFFCURVE",
"366 40 CURVE",
"374 0 LINE",
"515 0 LINE",
"515 296 LINE SMOOTH",
"515 427 OFFCURVE",
"426 484 OFFCURVE",
"280 484 CURVE SMOOTH",
"205 484 OFFCURVE",
"134 470 OFFCURVE",
"88 452 CURVE",
"88 348 LINE",
"138 364 OFFCURVE",
"195 373 OFFCURVE",
"247 373 CURVE SMOOTH",
"335 373 OFFCURVE",
"361 354 OFFCURVE",
"361 306 CURVE SMOOTH",
"361 295 LINE",
"229 295 LINE SMOOTH",
"97 295 OFFCURVE",
"31 236 OFFCURVE",
"31 139 CURVE SMOOTH",
"31 38 OFFCURVE",
"108 -10 OFFCURVE",
"199 -10 CURVE SMOOTH"
);
},
{
closed = 1;
nodes = (
"199 89 OFFCURVE",
"176 110 OFFCURVE",
"176 145 CURVE SMOOTH",
"176 184 OFFCURVE",
"199 202 OFFCURVE",
"247 202 CURVE SMOOTH",
"361 202 LINE",
"361 135 LINE",
"338 108 OFFCURVE",
"301 89 OFFCURVE",
"250 89 CURVE SMOOTH"
);
},
{
closed = 1;
nodes = (
"183 642 LINE",
"114 791 LINE",
"-6 791 LINE",
"69 642 LINE"
);
},
{
closed = 1;
nodes = (
"229 521 LINE",
"294 601 LINE",
"359 521 LINE",
"489 521 LINE",
"355 665 LINE",
"234 665 LINE",
"100 521 LINE"
);
}
);
width = 561;
}
);
leftKerningGroup = a;
note = acircumflexgrave;
rightKerningGroup = a;
unicode = 1EA7;
},
{
glyphname = acircumflexhookabove;
lastChange = "2015-10-24 07:37:55 +0000";
layers = (
{
layerId = "476303D8-9A2F-423D-8E21-2B4181C6C8D8";
name = SemiBold;
paths = (
{
closed = 1;
nodes = (
"279 -10 OFFCURVE",
"331 8 OFFCURVE",
"366 40 CURVE",
"374 0 LINE",
"515 0 LINE",
"515 296 LINE SMOOTH",
"515 427 OFFCURVE",
"426 484 OFFCURVE",
"280 484 CURVE SMOOTH",
"205 484 OFFCURVE",
"134 470 OFFCURVE",
"88 452 CURVE",
"88 348 LINE",
"138 364 OFFCURVE",
"195 373 OFFCURVE",
"247 373 CURVE SMOOTH",
"335 373 OFFCURVE",
"361 354 OFFCURVE",
"361 306 CURVE SMOOTH",
"361 295 LINE",
"229 295 LINE SMOOTH",
"97 295 OFFCURVE",
"31 236 OFFCURVE",
"31 139 CURVE SMOOTH",
"31 38 OFFCURVE",
"108 -10 OFFCURVE",
"199 -10 CURVE SMOOTH"
);
},
{
closed = 1;
nodes = (
"199 89 OFFCURVE",
"176 110 OFFCURVE",
"176 145 CURVE SMOOTH",
"176 184 OFFCURVE",
"199 202 OFFCURVE",
"247 202 CURVE SMOOTH",
"361 202 LINE",
"361 135 LINE",
"338 108 OFFCURVE",
"301 89 OFFCURVE",
"250 89 CURVE SMOOTH"
);
},
{
closed = 1;
nodes = (
"223 521 LINE",
"288 601 LINE",
"353 521 LINE",
"482 521 LINE",
"348 665 LINE",
"227 665 LINE",
"93 521 LINE"
);
},
{
closed = 1;
nodes = (
"518 620 LINE",
"518 653 LINE",
"569 661 OFFCURVE",
"592 690 OFFCURVE",
"592 735 CURVE SMOOTH",
"592 785 OFFCURVE",
"553 818 OFFCURVE",
"477 818 CURVE SMOOTH",
"439 818 OFFCURVE",
"409 813 OFFCURVE",
"386 806 CURVE",
"386 739 LINE",
"401 745 OFFCURVE",
"419 749 OFFCURVE",
"439 749 CURVE SMOOTH",
"467 749 OFFCURVE",
"482 742 OFFCURVE",
"482 724 CURVE SMOOTH",
"482 705 OFFCURVE",
"469 693 OFFCURVE",
"409 691 CURVE",
"409 620 LINE"
);
}
);
width = 564;
}
);
leftKerningGroup = a;
note = acircumflexhookabove;
rightKerningGroup = a;
unicode = 1EA9;
},
{
glyphname = acircumflextilde;
lastChange = "2015-10-24 07:37:55 +0000";
layers = (
{
layerId = "476303D8-9A2F-423D-8E21-2B4181C6C8D8";
name = SemiBold;
paths = (
{
closed = 1;
nodes = (
"279 -10 OFFCURVE",
"331 8 OFFCURVE",
"366 40 CURVE",
"374 0 LINE",
"515 0 LINE",
"515 296 LINE SMOOTH",
"515 427 OFFCURVE",
"426 484 OFFCURVE",
"280 484 CURVE SMOOTH",
"205 484 OFFCURVE",
"134 470 OFFCURVE",
"88 452 CURVE",
"88 348 LINE",
"138 364 OFFCURVE",
"195 373 OFFCURVE",
"247 373 CURVE SMOOTH",
"335 373 OFFCURVE",
"361 354 OFFCURVE",
"361 306 CURVE SMOOTH",
"361 295 LINE",
"229 295 LINE SMOOTH",
"97 295 OFFCURVE",
"31 236 OFFCURVE",
"31 139 CURVE SMOOTH",
"31 38 OFFCURVE",
"108 -10 OFFCURVE",
"199 -10 CURVE SMOOTH"
);
},
{
closed = 1;
nodes = (
"199 89 OFFCURVE",
"176 110 OFFCURVE",
"176 145 CURVE SMOOTH",
"176 184 OFFCURVE",
"199 202 OFFCURVE",
"247 202 CURVE SMOOTH",
"361 202 LINE",
"361 135 LINE",
"338 108 OFFCURVE",
"301 89 OFFCURVE",
"250 89 CURVE SMOOTH"
);
},
{
closed = 1;
nodes = (
"224 521 LINE",
"289 601 LINE",
"354 521 LINE",
"483 521 LINE",
"349 665 LINE",
"228 665 LINE",
"94 521 LINE"
);
},
{
closed = 1;
nodes = (
"424 680 OFFCURVE",
"456 694 OFFCURVE",
"469 712 CURVE",
"469 804 LINE",
"452 780 OFFCURVE",
"422 765 OFFCURVE",
"383 765 CURVE SMOOTH",
"325 765 OFFCURVE",
"277 806 OFFCURVE",
"214 806 CURVE SMOOTH",
"178 806 OFFCURVE",
"143 792 OFFCURVE",
"125 774 CURVE",
"125 683 LINE",
"148 707 OFFCURVE",
"178 720 OFFCURVE",
"217 720 CURVE SMOOTH",
"269 720 OFFCURVE",
"325 680 OFFCURVE",
"386 680 CURVE SMOOTH"
);
}
);
width = 561;
}
);
leftKerningGroup = a;
note = acircumflextilde;
rightKerningGroup = a;
unicode = 1EAB;
},
{
glyphname = adieresis;
lastChange = "2015-10-24 07:37:55 +0000";
layers = (
{
layerId = "476303D8-9A2F-423D-8E21-2B4181C6C8D8";
name = SemiBold;
paths = (
{
closed = 1;
nodes = (
"279 -10 OFFCURVE",
"331 8 OFFCURVE",
"366 40 CURVE",
"374 0 LINE",
"515 0 LINE",
"515 296 LINE SMOOTH",
"515 427 OFFCURVE",
"426 484 OFFCURVE",
"280 484 CURVE SMOOTH",
"205 484 OFFCURVE",
"134 470 OFFCURVE",
"88 452 CURVE",
"88 348 LINE",
"138 364 OFFCURVE",
"195 373 OFFCURVE",
"247 373 CURVE SMOOTH",
"335 373 OFFCURVE",
"361 354 OFFCURVE",
"361 306 CURVE SMOOTH",
"361 295 LINE",
"229 295 LINE SMOOTH",
"97 295 OFFCURVE",
"31 236 OFFCURVE",
"31 139 CURVE SMOOTH",
"31 38 OFFCURVE",
"108 -10 OFFCURVE",
"199 -10 CURVE SMOOTH"
);
},
{
closed = 1;
nodes = (
"199 89 OFFCURVE",
"176 110 OFFCURVE",
"176 145 CURVE SMOOTH",
"176 184 OFFCURVE",
"199 202 OFFCURVE",
"247 202 CURVE SMOOTH",
"361 202 LINE",
"361 135 LINE",
"338 108 OFFCURVE",
"301 89 OFFCURVE",
"250 89 CURVE SMOOTH"
);
},
{
closed = 1;
nodes = (
"255 548 LINE",
"255 657 LINE",
"137 657 LINE",
"137 548 LINE"
);
},
{
closed = 1;
nodes = (
"461 548 LINE",
"461 657 LINE",
"343 657 LINE",
"343 548 LINE"
);
}
);
width = 561;
}
);
leftKerningGroup = a;
note = adieresis;
rightKerningGroup = a;
unicode = 00E4;
},
{
glyphname = adotbelow;
lastChange = "2015-11-25 10:11:02 +0000";
layers = (
{
layerId = "476303D8-9A2F-423D-8E21-2B4181C6C8D8";
name = SemiBold;
paths = (
{
closed = 1;
nodes = (
"279 -10 OFFCURVE",
"331 8 OFFCURVE",
"366 40 CURVE",
"374 0 LINE",
"515 0 LINE",
"515 296 LINE SMOOTH",
"515 427 OFFCURVE",
"426 484 OFFCURVE",
"280 484 CURVE SMOOTH",
"205 484 OFFCURVE",
"134 470 OFFCURVE",
"88 452 CURVE",
"88 348 LINE",
"138 364 OFFCURVE",
"195 373 OFFCURVE",
"247 373 CURVE SMOOTH",
"335 373 OFFCURVE",
"361 354 OFFCURVE",
"361 306 CURVE SMOOTH",
"361 295 LINE",
"229 295 LINE SMOOTH",
"97 295 OFFCURVE",
"31 236 OFFCURVE",
"31 139 CURVE SMOOTH",
"31 38 OFFCURVE",
"108 -10 OFFCURVE",
"199 -10 CURVE SMOOTH"
);
},
{
closed = 1;
nodes = (
"199 89 OFFCURVE",
"176 110 OFFCURVE",
"176 145 CURVE SMOOTH",
"176 184 OFFCURVE",
"199 202 OFFCURVE",
"247 202 CURVE SMOOTH",
"361 202 LINE",
"361 135 LINE",
"338 108 OFFCURVE",
"301 89 OFFCURVE",
"250 89 CURVE SMOOTH"
);
},
{
closed = 1;
nodes = (
"350 -179 LINE",
"350 -70 LINE",
"232 -70 LINE",
"232 -179 LINE"
);
}
);
width = 561;
}
);
leftKerningGroup = a;
note = adotbelow;
rightKerningGroup = a;
unicode = 1EA1;
},
{
glyphname = agrave;
lastChange = "2015-10-24 07:37:55 +0000";
layers = (
{
layerId = "476303D8-9A2F-423D-8E21-2B4181C6C8D8";
name = SemiBold;
paths = (
{
closed = 1;
nodes = (
"279 -10 OFFCURVE",
"331 8 OFFCURVE",
"366 40 CURVE",
"374 0 LINE",
"515 0 LINE",
"515 296 LINE SMOOTH",
"515 427 OFFCURVE",
"426 484 OFFCURVE",
"280 484 CURVE SMOOTH",
"205 484 OFFCURVE",
"134 470 OFFCURVE",
"88 452 CURVE",
"88 348 LINE",
"138 364 OFFCURVE",
"195 373 OFFCURVE",
"247 373 CURVE SMOOTH",
"335 373 OFFCURVE",
"361 354 OFFCURVE",
"361 306 CURVE SMOOTH",
"361 295 LINE",
"229 295 LINE SMOOTH",
"97 295 OFFCURVE",
"31 236 OFFCURVE",
"31 139 CURVE SMOOTH",
"31 38 OFFCURVE",
"108 -10 OFFCURVE",
"199 -10 CURVE SMOOTH"
);
},
{
closed = 1;
nodes = (
"199 89 OFFCURVE",
"176 110 OFFCURVE",
"176 145 CURVE SMOOTH",
"176 184 OFFCURVE",
"199 202 OFFCURVE",
"247 202 CURVE SMOOTH",
"361 202 LINE",
"361 135 LINE",
"338 108 OFFCURVE",
"301 89 OFFCURVE",
"250 89 CURVE SMOOTH"
);
},
{
closed = 1;
nodes = (
"357 522 LINE",
"273 718 LINE",
"141 718 LINE",
"234 522 LINE"
);
}
);
width = 561;
}
);
leftKerningGroup = a;
note = agrave;
rightKerningGroup = a;
unicode = 00E0;
},
{
glyphname = ahookabove;
lastChange = "2015-10-24 07:37:55 +0000";
layers = (
{
layerId = "476303D8-9A2F-423D-8E21-2B4181C6C8D8";
name = SemiBold;
paths = (
{
closed = 1;
nodes = (
"279 -10 OFFCURVE",
"331 8 OFFCURVE",
"366 40 CURVE",
"374 0 LINE",
"515 0 LINE",
"515 296 LINE SMOOTH",
"515 427 OFFCURVE",
"426 484 OFFCURVE",
"280 484 CURVE SMOOTH",
"205 484 OFFCURVE",
"134 470 OFFCURVE",
"88 452 CURVE",
"88 348 LINE",
"138 364 OFFCURVE",
"195 373 OFFCURVE",
"247 373 CURVE SMOOTH",
"335 373 OFFCURVE",
"361 354 OFFCURVE",
"361 306 CURVE SMOOTH",
"361 295 LINE",
"229 295 LINE SMOOTH",
"97 295 OFFCURVE",
"31 236 OFFCURVE",
"31 139 CURVE SMOOTH",
"31 38 OFFCURVE",
"108 -10 OFFCURVE",
"199 -10 CURVE SMOOTH"
);
},
{
closed = 1;
nodes = (
"199 89 OFFCURVE",
"176 110 OFFCURVE",
"176 145 CURVE SMOOTH",
"176 184 OFFCURVE",
"199 202 OFFCURVE",
"247 202 CURVE SMOOTH",
"361 202 LINE",
"361 135 LINE",
"338 108 OFFCURVE",
"301 89 OFFCURVE",
"250 89 CURVE SMOOTH"
);
},
{
closed = 1;
nodes = (
"344 521 LINE",
"344 565 LINE",
"403 579 OFFCURVE",
"429 605 OFFCURVE",
"429 662 CURVE SMOOTH",
"429 721 OFFCURVE",
"381 761 OFFCURVE",
"293 761 CURVE SMOOTH",
"250 761 OFFCURVE",
"212 756 OFFCURVE",
"186 747 CURVE",
"186 675 LINE",
"202 680 OFFCURVE",
"227 684 OFFCURVE",
"246 684 CURVE SMOOTH",
"287 684 OFFCURVE",
"311 673 OFFCURVE",
"311 648 CURVE SMOOTH",
"311 621 OFFCURVE",
"293 606 OFFCURVE",
"222 602 CURVE",
"222 521 LINE"
);
}
);
width = 561;
}
);
leftKerningGroup = a;
note = ahookabove;
rightKerningGroup = a;
unicode = 1EA3;
},
{
glyphname = "alpha-latin";
lastChange = "2015-10-24 07:37:55 +0000";
layers = (
{
layerId = "476303D8-9A2F-423D-8E21-2B4181C6C8D8";
name = SemiBold;
paths = (
{
closed = 1;
nodes = (
"308 -10 OFFCURVE",
"360 7 OFFCURVE",
"399 40 CURVE",
"408 0 LINE",
"547 0 LINE",
"547 474 LINE",
"386 474 LINE",
"386 447 LINE",
"351 471 OFFCURVE",
"320 484 OFFCURVE",
"266 484 CURVE SMOOTH",
"125 484 OFFCURVE",
"31 375 OFFCURVE",
"31 218 CURVE SMOOTH",
"31 59 OFFCURVE",
"106 -10 OFFCURVE",
"244 -10 CURVE SMOOTH"
);
},
{
closed = 1;
nodes = (
"230 107 OFFCURVE",
"195 134 OFFCURVE",
"195 218 CURVE SMOOTH",
"195 320 OFFCURVE",
"232 366 OFFCURVE",
"308 366 CURVE SMOOTH",
"343 366 OFFCURVE",
"365 355 OFFCURVE",
"386 333 CURVE",
"386 143 LINE",
"361 119 OFFCURVE",
"332 107 OFFCURVE",
"296 107 CURVE SMOOTH"
);
}
);
width = 599;
}
);
leftKerningGroup = a;
note = ascript;
rightKerningGroup = a;
unicode = 0251;
},
{
glyphname = amacron;
lastChange = "2015-10-24 07:37:55 +0000";
layers = (
{
layerId = "476303D8-9A2F-423D-8E21-2B4181C6C8D8";
name = SemiBold;
paths = (
{
closed = 1;
nodes = (
"279 -10 OFFCURVE",
"331 8 OFFCURVE",
"366 40 CURVE",
"374 0 LINE",
"515 0 LINE",
"515 296 LINE SMOOTH",
"515 427 OFFCURVE",
"426 484 OFFCURVE",
"280 484 CURVE SMOOTH",
"205 484 OFFCURVE",
"134 470 OFFCURVE",
"88 452 CURVE",
"88 348 LINE",
"138 364 OFFCURVE",
"195 373 OFFCURVE",
"247 373 CURVE SMOOTH",
"335 373 OFFCURVE",
"361 354 OFFCURVE",
"361 306 CURVE SMOOTH",
"361 295 LINE",
"229 295 LINE SMOOTH",
"97 295 OFFCURVE",
"31 236 OFFCURVE",
"31 139 CURVE SMOOTH",
"31 38 OFFCURVE",
"108 -10 OFFCURVE",
"199 -10 CURVE SMOOTH"
);
},
{
closed = 1;
nodes = (
"199 89 OFFCURVE",
"176 110 OFFCURVE",
"176 145 CURVE SMOOTH",
"176 184 OFFCURVE",
"199 202 OFFCURVE",
"247 202 CURVE SMOOTH",
"361 202 LINE",
"361 135 LINE",
"338 108 OFFCURVE",
"301 89 OFFCURVE",
"250 89 CURVE SMOOTH"
);
},
{
closed = 1;
nodes = (
"463 538 LINE",
"463 635 LINE",
"145 635 LINE",
"145 538 LINE"
);
}
);
width = 561;
}
);
leftKerningGroup = a;
note = amacron;
rightKerningGroup = a;
unicode = 0101;
},
{
glyphname = aogonek;
lastChange = "2015-11-25 10:11:09 +0000";
layers = (
{
layerId = "476303D8-9A2F-423D-8E21-2B4181C6C8D8";
name = SemiBold;
paths = (
{
closed = 1;
nodes = (
"279 -10 OFFCURVE",
"331 8 OFFCURVE",
"366 40 CURVE",
"374 0 LINE",
"515 0 LINE",
"515 296 LINE SMOOTH",
"515 427 OFFCURVE",
"426 484 OFFCURVE",
"280 484 CURVE SMOOTH",
"205 484 OFFCURVE",
"134 470 OFFCURVE",
"88 452 CURVE",
"88 348 LINE",
"138 364 OFFCURVE",
"195 373 OFFCURVE",
"247 373 CURVE SMOOTH",
"335 373 OFFCURVE",
"361 354 OFFCURVE",
"361 306 CURVE SMOOTH",
"361 295 LINE",
"229 295 LINE SMOOTH",
"97 295 OFFCURVE",
"31 236 OFFCURVE",
"31 139 CURVE SMOOTH",
"31 38 OFFCURVE",
"108 -10 OFFCURVE",
"199 -10 CURVE SMOOTH"
);
},
{
closed = 1;
nodes = (
"199 89 OFFCURVE",
"176 110 OFFCURVE",
"176 145 CURVE SMOOTH",
"176 184 OFFCURVE",
"199 202 OFFCURVE",
"247 202 CURVE SMOOTH",
"361 202 LINE",
"361 135 LINE",
"338 108 OFFCURVE",
"301 89 OFFCURVE",
"250 89 CURVE SMOOTH"
);
},
{
closed = 1;
nodes = (
"461 -220 OFFCURVE",
"499 -213 OFFCURVE",
"518 -205 CURVE",
"518 -124 LINE",
"506 -131 OFFCURVE",
"485 -135 OFFCURVE",
"468 -135 CURVE SMOOTH",
"441 -135 OFFCURVE",
"424 -124 OFFCURVE",
"424 -97 CURVE SMOOTH",
"424 -61 OFFCURVE",
"450 -28 OFFCURVE",
"487 0 CURVE",
"374 0 LINE",
"329 -30 OFFCURVE",
"301 -76 OFFCURVE",
"301 -126 CURVE SMOOTH",
"301 -191 OFFCURVE",
"356 -220 OFFCURVE",
"424 -220 CURVE SMOOTH"
);
}
);
width = 566;
}
);
leftKerningGroup = a;
note = aogonek;
rightKerningGroup = a;
unicode = 0105;
},
{
glyphname = aring;
lastChange = "2015-10-24 07:37:55 +0000";
layers = (
{
layerId = "476303D8-9A2F-423D-8E21-2B4181C6C8D8";
name = SemiBold;
paths = (
{
closed = 1;
nodes = (
"279 -10 OFFCURVE",
"331 8 OFFCURVE",
"366 40 CURVE",
"374 0 LINE",
"515 0 LINE",
"515 296 LINE SMOOTH",
"515 427 OFFCURVE",
"426 484 OFFCURVE",
"280 484 CURVE SMOOTH",
"205 484 OFFCURVE",
"134 470 OFFCURVE",
"88 452 CURVE",
"88 348 LINE",
"138 364 OFFCURVE",
"195 373 OFFCURVE",
"247 373 CURVE SMOOTH",
"335 373 OFFCURVE",
"361 354 OFFCURVE",
"361 306 CURVE SMOOTH",
"361 295 LINE",
"229 295 LINE SMOOTH",
"97 295 OFFCURVE",
"31 236 OFFCURVE",
"31 139 CURVE SMOOTH",
"31 38 OFFCURVE",
"108 -10 OFFCURVE",
"199 -10 CURVE SMOOTH"
);
},
{
closed = 1;
nodes = (
"199 89 OFFCURVE",
"176 110 OFFCURVE",
"176 145 CURVE SMOOTH",
"176 184 OFFCURVE",
"199 202 OFFCURVE",
"247 202 CURVE SMOOTH",
"361 202 LINE",
"361 135 LINE",
"338 108 OFFCURVE",
"301 89 OFFCURVE",
"250 89 CURVE SMOOTH"
);
},
{
closed = 1;
nodes = (
"384 521 OFFCURVE",
"432 576 OFFCURVE",
"432 646 CURVE SMOOTH",
"432 717 OFFCURVE",
"384 772 OFFCURVE",
"300 772 CURVE SMOOTH",
"218 772 OFFCURVE",
"169 717 OFFCURVE",
"169 646 CURVE SMOOTH",
"169 576 OFFCURVE",
"218 521 OFFCURVE",
"300 521 CURVE SMOOTH"
);
},
{
closed = 1;
nodes = (
"265 591 OFFCURVE",
"243 615 OFFCURVE",
"243 646 CURVE SMOOTH",
"243 677 OFFCURVE",
"265 702 OFFCURVE",
"300 702 CURVE SMOOTH",
"337 702 OFFCURVE",
"358 677 OFFCURVE",
"358 646 CURVE SMOOTH",
"358 615 OFFCURVE",
"337 591 OFFCURVE",
"300 591 CURVE SMOOTH"
);
}
);
width = 561;
}
);
leftKerningGroup = a;
note = aring;
rightKerningGroup = a;
unicode = 00E5;
},
{
glyphname = aringacute;
lastChange = "2015-11-25 10:11:27 +0000";
layers = (
{
layerId = "476303D8-9A2F-423D-8E21-2B4181C6C8D8";
name = SemiBold;
paths = (
{
closed = 1;
nodes = (
"279 -10 OFFCURVE",
"331 8 OFFCURVE",
"366 40 CURVE",
"374 0 LINE",
"515 0 LINE",
"515 296 LINE SMOOTH",
"515 427 OFFCURVE",
"426 484 OFFCURVE",
"280 484 CURVE SMOOTH",
"205 484 OFFCURVE",
"134 470 OFFCURVE",
"88 452 CURVE",
"88 348 LINE",
"138 364 OFFCURVE",
"195 373 OFFCURVE",
"247 373 CURVE SMOOTH",
"335 373 OFFCURVE",
"361 354 OFFCURVE",
"361 306 CURVE SMOOTH",
"361 295 LINE",
"229 295 LINE SMOOTH",
"97 295 OFFCURVE",
"31 236 OFFCURVE",
"31 139 CURVE SMOOTH",
"31 38 OFFCURVE",
"108 -10 OFFCURVE",
"199 -10 CURVE SMOOTH"
);
},
{
closed = 1;
nodes = (
"199 89 OFFCURVE",
"176 110 OFFCURVE",
"176 145 CURVE SMOOTH",
"176 184 OFFCURVE",
"199 202 OFFCURVE",
"247 202 CURVE SMOOTH",
"361 202 LINE",
"361 135 LINE",
"338 108 OFFCURVE",
"301 89 OFFCURVE",
"250 89 CURVE SMOOTH"
);
},
{
closed = 1;
nodes = (
"384 521 OFFCURVE",
"432 576 OFFCURVE",
"432 646 CURVE SMOOTH",
"432 717 OFFCURVE",
"384 772 OFFCURVE",
"300 772 CURVE SMOOTH",
"218 772 OFFCURVE",
"169 717 OFFCURVE",
"169 646 CURVE SMOOTH",
"169 576 OFFCURVE",
"218 521 OFFCURVE",
"300 521 CURVE SMOOTH"
);
},
{
closed = 1;
nodes = (
"265 591 OFFCURVE",
"243 615 OFFCURVE",
"243 646 CURVE SMOOTH",
"243 677 OFFCURVE",
"265 702 OFFCURVE",
"300 702 CURVE SMOOTH",
"337 702 OFFCURVE",
"358 677 OFFCURVE",
"358 646 CURVE SMOOTH",
"358 615 OFFCURVE",
"337 591 OFFCURVE",
"300 591 CURVE SMOOTH"
);
},
{
closed = 1;
nodes = (
"348 795 LINE",
"440 951 LINE",
"308 951 LINE",
"224 795 LINE"
);
}
);
width = 561;
}
);
leftKerningGroup = a;
note = aringacute;
rightKerningGroup = a;
unicode = 01FB;
},
{
glyphname = atilde;
lastChange = "2015-10-24 07:37:55 +0000";
layers = (
{
layerId = "476303D8-9A2F-423D-8E21-2B4181C6C8D8";
name = SemiBold;
paths = (
{
closed = 1;
nodes = (
"279 -10 OFFCURVE",
"331 8 OFFCURVE",
"366 40 CURVE",
"374 0 LINE",
"515 0 LINE",
"515 296 LINE SMOOTH",
"515 427 OFFCURVE",
"426 484 OFFCURVE",
"280 484 CURVE SMOOTH",
"205 484 OFFCURVE",
"134 470 OFFCURVE",
"88 452 CURVE",
"88 348 LINE",
"138 364 OFFCURVE",
"195 373 OFFCURVE",
"247 373 CURVE SMOOTH",
"335 373 OFFCURVE",
"361 354 OFFCURVE",
"361 306 CURVE SMOOTH",
"361 295 LINE",
"229 295 LINE SMOOTH",
"97 295 OFFCURVE",
"31 236 OFFCURVE",
"31 139 CURVE SMOOTH",
"31 38 OFFCURVE",
"108 -10 OFFCURVE",
"199 -10 CURVE SMOOTH"
);
},
{
closed = 1;
nodes = (
"199 89 OFFCURVE",
"176 110 OFFCURVE",
"176 145 CURVE SMOOTH",
"176 184 OFFCURVE",
"199 202 OFFCURVE",
"247 202 CURVE SMOOTH",
"361 202 LINE",
"361 135 LINE",
"338 108 OFFCURVE",
"301 89 OFFCURVE",
"250 89 CURVE SMOOTH"
);
},
{
closed = 1;
nodes = (
"428 532 OFFCURVE",
"461 546 OFFCURVE",
"474 564 CURVE",
"474 672 LINE",
"457 648 OFFCURVE",
"427 633 OFFCURVE",
"387 633 CURVE SMOOTH",
"328 633 OFFCURVE",
"280 674 OFFCURVE",
"216 674 CURVE SMOOTH",
"179 674 OFFCURVE",
"144 660 OFFCURVE",
"125 642 CURVE",
"125 535 LINE",
"149 559 OFFCURVE",
"180 573 OFFCURVE",
"219 573 CURVE SMOOTH",
"271 573 OFFCURVE",
"328 532 OFFCURVE",
"390 532 CURVE SMOOTH"
);
}
);
width = 561;
}
);
leftKerningGroup = a;
note = atilde;
rightKerningGroup = a;
unicode = 00E3;
},
{
glyphname = ae;
lastChange = "2015-10-24 07:37:55 +0000";
layers = (
{
layerId = "476303D8-9A2F-423D-8E21-2B4181C6C8D8";
name = SemiBold;
paths = (
{
closed = 1;
nodes = (
"334 -10 OFFCURVE",
"393 20 OFFCURVE",
"447 63 CURVE",
"489 16 OFFCURVE",
"564 -10 OFFCURVE",
"640 -10 CURVE SMOOTH",
"715 -10 OFFCURVE",
"778 0 OFFCURVE",
"824 21 CURVE",
"824 124 LINE",
"788 110 OFFCURVE",
"729 99 OFFCURVE",
"677 99 CURVE SMOOTH",
"583 99 OFFCURVE",
"530 122 OFFCURVE",
"515 185 CURVE",
"851 185 LINE",
"851 270 LINE SMOOTH",
"851 400 OFFCURVE",
"764 484 OFFCURVE",
"614 484 CURVE SMOOTH",
"546 484 OFFCURVE",
"487 468 OFFCURVE",
"447 438 CURVE",
"407 469 OFFCURVE",
"354 484 OFFCURVE",
"280 484 CURVE SMOOTH",
"205 484 OFFCURVE",
"134 470 OFFCURVE",
"88 452 CURVE",
"88 348 LINE",
"138 364 OFFCURVE",
"195 373 OFFCURVE",
"247 373 CURVE SMOOTH",
"335 373 OFFCURVE",
"361 354 OFFCURVE",
"361 306 CURVE SMOOTH",
"361 295 LINE",
"229 295 LINE SMOOTH",
"97 295 OFFCURVE",
"31 236 OFFCURVE",
"31 139 CURVE SMOOTH",
"31 38 OFFCURVE",
"110 -10 OFFCURVE",
"212 -10 CURVE SMOOTH"
);
},
{
closed = 1;
nodes = (
"199 89 OFFCURVE",
"176 110 OFFCURVE",
"176 145 CURVE SMOOTH",
"176 184 OFFCURVE",
"199 202 OFFCURVE",
"247 202 CURVE SMOOTH",
"361 202 LINE",
"361 131 LINE",
"336 106 OFFCURVE",
"301 89 OFFCURVE",
"250 89 CURVE SMOOTH"
);
},
{
closed = 1;
nodes = (
"515 344 OFFCURVE",
"541 375 OFFCURVE",
"619 375 CURVE SMOOTH",
"686 375 OFFCURVE",
"711 345 OFFCURVE",
"711 299 CURVE SMOOTH",
"711 278 LINE",
"515 278 LINE"
);
}
);
width = 882;
}
);
leftKerningGroup = a;
note = ae;
rightKerningGroup = e;
unicode = 00E6;
},
